<svg id="Layer_1" data-name="Layer 1" xmlns="http://www.w3.org/2000/svg" xmlns:xlink="http://www.w3.org/1999/xlink" viewBox="0 0 382.82 342.13"><defs><linearGradient id="linear-gradient" x1="29.07" y1="292.71" x2="-20.54" y2="281.63" gradientTransform="translate(149.02 -96.73) rotate(3.84)" gradientUnits="userSpaceOnUse"><stop offset="0.01"/><stop offset="0.83" stop-opacity="0.07"/><stop offset="1" stop-opacity="0"/></linearGradient><linearGradient id="linear-gradient-2" x1="-24.41" y1="267.83" x2="-5.79" y2="302.03" xlink:href="#linear-gradient"/><linearGradient id="linear-gradient-3" x1="55.7" y1="301.83" x2="99.53" y2="470.41" gradientTransform="translate(136.62 -101.2) rotate(3.84)" xlink:href="#linear-gradient"/><linearGradient id="linear-gradient-4" x1="-2.6" y1="363.12" x2="108.43" y2="363.12" xlink:href="#linear-gradient"/><linearGradient id="linear-gradient-5" x1="179.32" y1="301.55" x2="-116.03" y2="287.33" xlink:href="#linear-gradient"/><linearGradient id="linear-gradient-6" x1="51.82" y1="251.1" x2="66.15" y2="306.23" xlink:href="#linear-gradient"/><linearGradient id="linear-gradient-7" x1="35.51" y1="247.21" x2="55.37" y2="323.58" xlink:href="#linear-gradient"/><linearGradient id="linear-gradient-8" x1="9.95" y1="350.17" x2="21.03" y2="497.56" xlink:href="#linear-gradient"/><linearGradient id="linear-gradient-9" x1="104.6" y1="343.05" x2="115.68" y2="490.45" xlink:href="#linear-gradient"/><linearGradient id="linear-gradient-10" x1="191.59" y1="184.65" x2="203.63" y2="151.17" gradientTransform="matrix(1, 0, 0, 1, 0, 0)" xlink:href="#linear-gradient"/><linearGradient id="linear-gradient-11" x1="236.04" y1="103.54" x2="205.7" y2="157" gradientTransform="matrix(1, 0, 0, 1, 0, 0)" xlink:href="#linear-gradient"/><linearGradient id="linear-gradient-12" x1="52.6" y1="195.87" x2="99.49" y2="244.03" xlink:href="#linear-gradient"/><linearGradient id="linear-gradient-13" x1="80.95" y1="215.98" x2="109.18" y2="215.98" xlink:href="#linear-gradient"/><linearGradient id="linear-gradient-14" x1="47.26" y1="186.09" x2="112.02" y2="186.09" xlink:href="#linear-gradient"/><linearGradient id="linear-gradient-15" x1="180.02" y1="174.77" x2="181.46" y2="151.41" gradientTransform="matrix(1, 0, 0, 1, 0, 0)" xlink:href="#linear-gradient"/><linearGradient id="linear-gradient-16" x1="65.05" y1="289.8" x2="152.23" y2="301.36" xlink:href="#linear-gradient"/><linearGradient id="linear-gradient-17" x1="121.76" y1="323.11" x2="149.69" y2="335.15" xlink:href="#linear-gradient"/><linearGradient id="linear-gradient-18" x1="162.46" y1="326.88" x2="144.52" y2="350.36" gradientTransform="translate(136.62 -101.2) rotate(3.84)" gradientUnits="userSpaceOnUse"><stop offset="0.02" stop-color="#fff" stop-opacity="0"/><stop offset="0.39" stop-color="#fff" stop-opacity="0.39"/><stop offset="1" stop-color="#fff"/></linearGradient><linearGradient id="linear-gradient-19" x1="163.58" y1="328.58" x2="149.15" y2="347.48" xlink:href="#linear-gradient-18"/><linearGradient id="linear-gradient-20" x1="-80.11" y1="321.77" x2="34.78" y2="318.88" gradientTransform="translate(149.02 -96.73) rotate(3.84)" xlink:href="#linear-gradient-18"/><linearGradient id="linear-gradient-21" x1="-76.03" y1="321.51" x2="17.96" y2="319.14" gradientTransform="translate(149.02 -96.73) rotate(3.84)" xlink:href="#linear-gradient-18"/><linearGradient id="linear-gradient-22" x1="-81.64" y1="261.12" x2="33.25" y2="258.23" gradientTransform="translate(149.02 -96.73) rotate(3.84)" xlink:href="#linear-gradient-18"/><linearGradient id="linear-gradient-23" x1="-73.64" y1="260.8" x2="15.51" y2="258.55" gradientTransform="translate(149.02 -96.73) rotate(3.84)" xlink:href="#linear-gradient-18"/></defs><title>Banker</title><path d="M394.72,292.9a57.2,57.2,0,0,1-12.32,29.91c-20.46,24.83-57.76,26.3-89.61,21.77C260.34,340,228.21,331.26,195.45,332c-44.58,1.05-88.67,19.61-132.66,12.27C42.92,341,22.28,330.6,15.13,311.76c-3.46-9.12-3.34-18.3-1.29-27.51,4.06-18.2,15.66-36.52,22.07-54.71,17.41-49.47-3.54-108.78,22.73-154.17,23.61-40.81,86.78-65.7,132-70.51,49.76-5.29,91,44.19,110.63,84.29,19.08,39,30,82.28,55.35,117.53,9.19,12.8,20.17,24.36,27.94,38.07C392.76,259.16,396.67,276.63,394.72,292.9Z" transform="translate(-12.4 -4.47)" fill="#68e1fd" opacity="0.18" style="isolation:isolate"/><path d="M394.72,292.9a57.2,57.2,0,0,1-12.32,29.91c-20.46,24.83-57.76,26.3-89.61,21.77C260.34,340,228.21,331.26,195.45,332c-44.58,1.05-88.67,19.61-132.66,12.27C42.92,341,22.28,330.6,15.13,311.76c-3.46-9.12-3.34-18.3-1.29-27.51a79.85,79.85,0,0,1,8.21,2.49c26.9,9.13,54.7,10.88,82.93,10.85C201.6,297.49,298.6,286.23,394.72,292.9Z" transform="translate(-12.4 -4.47)" fill="#68e1fd" opacity="0.18" style="isolation:isolate"/><path d="M130.79,185.24c-4.66-.85-8.86-3.28-13-5.62a2.27,2.27,0,0,0-1.51-.44,2.19,2.19,0,0,0-1,.71,15.33,15.33,0,0,0-4.15,9.73,2.36,2.36,0,0,0,.17,1.18,2.42,2.42,0,0,0,.85.83,42.47,42.47,0,0,0,19.74,7.21,11.15,11.15,0,0,0,5.08-.39c2-.76,3.44-2.43,4.82-4a29.43,29.43,0,0,0,4.25-5.88c2.67-5.33,1-5.78-3.56-4.28A23.7,23.7,0,0,1,130.79,185.24Z" transform="translate(-12.4 -4.47)" fill="#68e1fd"/><path d="M130.79,185.24c-4.66-.85-8.86-3.28-13-5.62a2.27,2.27,0,0,0-1.51-.44,2.19,2.19,0,0,0-1,.71,15.33,15.33,0,0,0-4.15,9.73,2.36,2.36,0,0,0,.17,1.18,2.42,2.42,0,0,0,.85.83,42.47,42.47,0,0,0,19.74,7.21,11.15,11.15,0,0,0,5.08-.39c2-.76,3.44-2.43,4.82-4a29.43,29.43,0,0,0,4.25-5.88c2.67-5.33,1-5.78-3.56-4.28A23.7,23.7,0,0,1,130.79,185.24Z" transform="translate(-12.4 -4.47)" fill="url(#linear-gradient)"/><path d="M117,179c.55.8.21,1.88-.15,2.79l-2,5.11c-.61,1.57-1.41,3.31-3,3.84a.7.7,0,0,1-.4.05c-.3-.08-.4-.46-.42-.78A11.62,11.62,0,0,1,117,179Z" transform="translate(-12.4 -4.47)" fill="url(#linear-gradient-2)"/><polygon points="147.72 256.81 157.55 297.38 177.9 267.53 224.62 300.27 207.68 217.07 147.72 256.81" fill="#68e1fd"/><polygon points="147.72 256.81 157.55 297.38 177.9 267.53 224.62 300.27 207.68 217.07 147.72 256.81" fill="url(#linear-gradient-3)"/><path d="M127.73,221.13s-4.71,5.48-3,15.73,14.87,73.41,14.87,73.41l7.14,1.45,4.83-43.13S169.24,250,190,264.41s30.48,49.36,30.48,49.36l9.64.16-10.31-83.72Z" transform="translate(-12.4 -4.47)" fill="#68e1fd"/><path d="M127.73,221.13s-4.71,5.48-3,15.73,14.87,73.41,14.87,73.41l7.14,1.45,4.83-43.13S169.24,250,190,264.41s30.48,49.36,30.48,49.36l9.64.16-10.31-83.72Z" transform="translate(-12.4 -4.47)" fill="url(#linear-gradient-4)"/><path d="M167.74,164.44s-44.16,32.27-43.31,62.74c0,0,14.09,20.26,52.09,15.09s43.29-12.06,43.29-12.06,6.47-60.4.55-65.62S175.92,157.74,167.74,164.44Z" transform="translate(-12.4 -4.47)" fill="#68e1fd"/><path d="M167.74,164.44s-44.16,32.27-43.31,62.74c0,0,14.09,20.26,52.09,15.09s49.72,9.61,49.72,9.61-11.42-38.42-5.88-87.29C221.24,156.74,175.92,157.74,167.74,164.44Z" transform="translate(-12.4 -4.47)" fill="url(#linear-gradient-5)"/><path d="M214.86,160.2l-4.4,17.56-8-.53,1.48,4.28s-41.73,12.81-43,15l25.76-24.17,22.12-13.16Z" transform="translate(-12.4 -4.47)" fill="url(#linear-gradient-6)"/><path d="M179.36,159.26,164.93,168l1.64,4.45-5.93,2,.08,27.52s.75-13.63,4.77-18.35,20.73-22,20.73-22Z" transform="translate(-12.4 -4.47)" fill="url(#linear-gradient-7)"/><path d="M186.22,161.57s-24.77,17.57-25.29,34.91c0,0,21.4-21.57,42.57-27.71,1.64-.48,4.39-5.5,4.39-5.5Z" transform="translate(-12.4 -4.47)" fill="#fff"/><path d="M124,317.35c-.72.49-1.5,1.14-1.47,2a2.18,2.18,0,0,0,.53,1.19c2.1,2.68,6.07,2.85,9.45,2.43a50.2,50.2,0,0,0,9.6-2.19,7.36,7.36,0,0,1,3.18-.61,8.88,8.88,0,0,0,1.25.15,2.76,2.76,0,0,0,2-1.36c1.73-2.58.68-6.41-1.85-8.23-3.49-2.52-6.74-1.15-10.1.45C132.34,313.23,128,314.65,124,317.35Z" transform="translate(-12.4 -4.47)" fill="#68e1fd"/><path d="M242.87,321.23c.65.57,1.34,1.32,1.19,2.18a2.16,2.16,0,0,1-.68,1.1c-2.44,2.38-6.4,2-9.69,1.14a49.67,49.67,0,0,1-9.22-3.45,7.55,7.55,0,0,0-3.08-1,7.46,7.46,0,0,1-1.25,0,2.76,2.76,0,0,1-1.83-1.61c-1.36-2.79.19-6.45,2.94-7.91,3.8-2,6.83-.24,9.95,1.79C235.19,316,239.26,318,242.87,321.23Z" transform="translate(-12.4 -4.47)" fill="#68e1fd"/><path d="M124,317.35c-.72.49-1.5,1.14-1.47,2a2.18,2.18,0,0,0,.53,1.19c2.1,2.68,6.07,2.85,9.45,2.43a50.2,50.2,0,0,0,9.6-2.19,7.36,7.36,0,0,1,3.18-.61,8.88,8.88,0,0,0,1.25.15,2.76,2.76,0,0,0,2-1.36c1.73-2.58.68-6.41-1.85-8.23-3.49-2.52-6.74-1.15-10.1.45C132.34,313.23,128,314.65,124,317.35Z" transform="translate(-12.4 -4.47)" fill="url(#linear-gradient-8)"/><path d="M242.87,321.23c.65.57,1.34,1.32,1.19,2.18a2.16,2.16,0,0,1-.68,1.1c-2.44,2.38-6.4,2-9.69,1.14a49.67,49.67,0,0,1-9.22-3.45,7.55,7.55,0,0,0-3.08-1,7.46,7.46,0,0,1-1.25,0,2.76,2.76,0,0,1-1.83-1.61c-1.36-2.79.19-6.45,2.94-7.91,3.8-2,6.83-.24,9.95,1.79C235.19,316,239.26,318,242.87,321.23Z" transform="translate(-12.4 -4.47)" fill="url(#linear-gradient-9)"/><path d="M202.79,167.93a16.39,16.39,0,0,0,5.83-2.43c4-2.86,5.71-7.93,6.73-12.74.46-2.23.84-4.47,1.11-6.73.24-2,.26-4.35-1.32-5.57s-13.6,6.67-15.32,7.75c-4,2.52-8.06,5.24-10.71,9.28C182.16,168.12,194.51,169.88,202.79,167.93Z" transform="translate(-12.4 -4.47)" fill="#f6c1b1"/><path d="M202.79,167.93a16.39,16.39,0,0,0,5.83-2.43c4-2.86,5.71-7.93,6.73-12.74.46-2.23.84-4.47,1.11-6.73.24-2,.26-4.35-1.32-5.57s-13.6,6.67-15.32,7.75c-4,2.52-8.06,5.24-10.71,9.28C182.16,168.12,194.51,169.88,202.79,167.93Z" transform="translate(-12.4 -4.47)" fill="url(#linear-gradient-10)"/><path d="M178.86,127.15c-1,5.2-3.28,10.1-4.33,15.3s-.69,11.13,2.91,15c2.26,2.45,5.48,3.76,8.68,4.65,3.8,1.06,7.89,1.61,11.66.48a27.32,27.32,0,0,0,4.41-1.91c4.07-2.06,8.32-4.27,10.82-8.09a21.54,21.54,0,0,0,2.6-6.57,36.17,36.17,0,0,0,1.11-12.84,3.86,3.86,0,0,0-.5-1.71,4.17,4.17,0,0,0-1.33-1.1l-9-5.57a33.06,33.06,0,0,0-6-3.14,25.53,25.53,0,0,0-6.83-1.22c-3.61-.24-7.78-.49-11.33.34S179.41,124.34,178.86,127.15Z" transform="translate(-12.4 -4.47)" fill="#f6c1b1"/><path d="M211.85,149.59l2.19-3.34a1,1,0,0,1,.38-.4c.48-.25,1,.32,1.16.84a6.91,6.91,0,0,1-.58,4.81c-.63,1.42-1.85,2.94-3.39,2.71a11.81,11.81,0,0,1,1.79,4.64c5.21-5.82,6.37-14.19,6.45-22,0-.21.84-1.77.7-1.93a.87.87,0,0,0-.38-.23c-2.54-.93-6.21-.25-8.93-.26s-2.84.72-2.32,3.5S213.59,146.93,211.85,149.59Z" transform="translate(-12.4 -4.47)" fill="#e5e1e2"/><path d="M211.85,149.59l2.19-3.34a1,1,0,0,1,.38-.4c.48-.25,1,.32,1.16.84a6.91,6.91,0,0,1-.58,4.81c-.63,1.42-1.85,2.94-3.39,2.71a11.81,11.81,0,0,1,1.79,4.64c5.21-5.82,6.37-14.19,6.45-22,0-.21.84-1.77.7-1.93a.87.87,0,0,0-.38-.23c-2.54-.93-6.21-.25-8.93-.26s-2.84.72-2.32,3.5S213.59,146.93,211.85,149.59Z" transform="translate(-12.4 -4.47)" fill="url(#linear-gradient-11)"/><path d="M232.9,134.31c3.62-.5,7.49-1.36,9.9-4.1.88-1,1.49-2.57.65-3.61a3.42,3.42,0,0,0-2.53-.93c-8.52-.69-17.09-.89-25.56-2A127,127,0,0,1,178.69,113c-3.52-1.61-9.94-4.15-11.41,1.37-1.4,5.26,5.56,8,9.15,9.86a94.24,94.24,0,0,0,35.33,10.48A93.43,93.43,0,0,0,232.9,134.31Z" transform="translate(-12.4 -4.47)" fill="#68e1fd"/><path d="M232.9,134.31c3.62-.5,7.49-1.36,9.9-4.1.88-1,1.49-2.57.65-3.61a3.42,3.42,0,0,0-2.53-.93c-8.52-.69-17.09-.89-25.56-2A127,127,0,0,1,178.69,113c-3.52-1.61-9.94-4.15-11.41,1.37-1.4,5.26,5.56,8,9.15,9.86a94.24,94.24,0,0,0,35.33,10.48A93.43,93.43,0,0,0,232.9,134.31Z" transform="translate(-12.4 -4.47)" fill="url(#linear-gradient-12)"/><path d="M183.34,116.72,185.46,66s22.71-7.48,45.73,4.36,17.4,14,17.4,14l-28.11,40S188.76,123.35,183.34,116.72Z" transform="translate(-12.4 -4.47)" fill="#68e1fd"/><path d="M243.45,126.6a3.42,3.42,0,0,0-2.53-.93c-8.52-.69-17.09-.89-25.56-2" transform="translate(-12.4 -4.47)" fill="url(#linear-gradient-13)"/><path d="M183.34,116.72,185.46,66s22.71-7.48,45.73,4.36,17.4,14,17.4,14l-28.11,40S188.76,123.35,183.34,116.72Z" transform="translate(-12.4 -4.47)" fill="url(#linear-gradient-14)"/><path d="M171.15,149.29a14,14,0,0,1-3.69,3.86c-1.55.91-3.79.94-4.92-.45a4.57,4.57,0,0,0,2.57,4,10.57,10.57,0,0,0,4.85,1,19.05,19.05,0,0,0,8-1.29,10.25,10.25,0,0,0,5.64-5.54,11.44,11.44,0,0,0,16,12.74,5.42,5.42,0,0,1-5.63-3.6c-.82-2.53.34-5.34-.33-7.9-1-3.77-6.6-6.52-10-7.81C178.67,142.43,174.08,145.5,171.15,149.29Z" transform="translate(-12.4 -4.47)" fill="#e5e1e2"/><path d="M171.15,149.29a14,14,0,0,1-3.69,3.86c-1.55.91-3.79.94-4.92-.45a4.57,4.57,0,0,0,2.57,4,10.57,10.57,0,0,0,4.85,1,19.05,19.05,0,0,0,8-1.29,10.25,10.25,0,0,0,5.64-5.54,11.44,11.44,0,0,0,16,12.74,5.42,5.42,0,0,1-5.63-3.6c-.82-2.53.34-5.34-.33-7.9-1-3.77-6.6-6.52-10-7.81C178.67,142.43,174.08,145.5,171.15,149.29Z" transform="translate(-12.4 -4.47)" fill="url(#linear-gradient-15)"/><path d="M220.36,164.59s8.81,7.67,12.31,22.71,5.77,38.69,20.66,42.26,12.53,5,12.53,5l-5.34,12.51S239.41,245,234.74,238s-17.36-35-22.51-48.18C210,184.17,205.12,171,220.36,164.59Z" transform="translate(-12.4 -4.47)" fill="#68e1fd"/><path d="M220.36,164.59s8.81,7.67,12.31,22.71,5.77,38.69,20.66,42.26,12.53,5,12.53,5l-5.34,12.51S239.41,245,234.74,238s-17.36-35-22.51-48.18C210,184.17,205.12,171,220.36,164.59Z" transform="translate(-12.4 -4.47)" fill="url(#linear-gradient-16)"/><path d="M261.39,234.38a13.86,13.86,0,0,0-3.16,2.51,9,9,0,0,0-1.81,2.26,7.17,7.17,0,0,0-.2,5.26,4.27,4.27,0,0,0,1.39,2.32,3.61,3.61,0,0,0,2,.61c3,.13,5.63-2,7.25-4.5a8.37,8.37,0,0,0,1.54-5.06C268.09,234.09,264.43,232.79,261.39,234.38Z" transform="translate(-12.4 -4.47)" fill="#68e1fd"/><path d="M261.39,234.38a13.86,13.86,0,0,0-3.16,2.51,9,9,0,0,0-1.81,2.26,7.17,7.17,0,0,0-.2,5.26,4.27,4.27,0,0,0,1.39,2.32,3.61,3.61,0,0,0,2,.61c3,.13,5.63-2,7.25-4.5a8.37,8.37,0,0,0,1.54-5.06C268.09,234.09,264.43,232.79,261.39,234.38Z" transform="translate(-12.4 -4.47)" fill="url(#linear-gradient-17)"/><path d="M270.76,235c3.48-.88,6.92-2,10.5-2.26s7.42.59,10,3.12a9.39,9.39,0,0,1,1.89,10.27,4.52,4.52,0,0,1-1.56,2,5.93,5.93,0,0,1-3.47.56l-7.43-.32a1.91,1.91,0,0,1-1.08-.26c-.7-.49-.47-1.56-.63-2.41a2.4,2.4,0,0,0-2.54-1.85c-1.83.22-2.67,2.35-4,3.64-1.85,1.77-4.84,1.86-7.21.89a20.17,20.17,0,0,1-6.11-4.59c-1.18-1.15-2.46-2.55-2.28-4.2a4.1,4.1,0,0,1,.94-2c1.79-2.29,2.81-1.58,5.38-1.51A27.85,27.85,0,0,0,270.76,235Z" transform="translate(-12.4 -4.47)" fill="#f6c1b1"/><polygon points="262.14 239.31 255.46 245.38 266.31 256.37 272.12 256.03 278.41 248.73 280.1 243.29 269.83 238.02 262.14 239.31" fill="#68e1fd"/><polygon points="280.1 243.29 278.4 248.73 272.13 256.03 271.58 256.07 266.31 256.36 255.46 245.38 262.14 239.31 269.83 238.01 270.79 238.51 280.1 243.29" fill="url(#linear-gradient-18)"/><polygon points="280.1 243.29 278.4 248.73 272.13 256.03 271.58 256.07 260.79 245.13 267.47 239.06 270.79 238.51 280.1 243.29" fill="url(#linear-gradient-19)"/><polygon points="266.31 256.37 263.81 324.15 265.01 324.23 272.12 256.03 266.31 256.37" fill="#68e1fd"/><path d="M184.05,161.4a3.54,3.54,0,0,0-2.08-1.64,2.78,2.78,0,0,0-2.05.69,6,6,0,0,0-2.29,4.27,4.44,4.44,0,0,1-.4,2.12,4.57,4.57,0,0,1-1.71,1.15c-.61.34-1.2,1-1,1.64a1.52,1.52,0,0,0,.53.77c1.6,1.39,4,1.18,6.05.58s4.05-1.54,6.15-1.34a38.53,38.53,0,0,0,3.36,5c.91,1.16,2,2.34,3.47,2.54a1.48,1.48,0,0,0,1.15-.22,1.24,1.24,0,0,0,.35-.44c.64-1.23,0-3.19,1.29-3.76a5.31,5.31,0,0,1,1-.23,3.8,3.8,0,0,0,1.81-1.29,6.22,6.22,0,0,0,1.42-2.25,2.67,2.67,0,0,0-.44-2.52c-.81-.88-2.18-.88-3.38-.8-2.76.16-5.78.72-8.54.52C186.64,166.06,185.26,163,184.05,161.4Z" transform="translate(-12.4 -4.47)" fill="#68e1fd"/><path d="M107.84,172.73c-3.43-3-8.39-3.26-13-3.38a4.68,4.68,0,0,0-1.67.16,2.78,2.78,0,0,0-1.73,2.33,4.07,4.07,0,0,0,.89,2.85,6.53,6.53,0,0,1,1,1.34c.43,1.09-.16,2.46.5,3.43.33.5,1,.82,1.06,1.4a2.72,2.72,0,0,1-.15,1,3.78,3.78,0,0,0,1.33,3.56A7.47,7.47,0,0,0,99.7,187c4,.72,8.42-.28,12.18,1.38a2.46,2.46,0,0,0,1.71.35,2.13,2.13,0,0,0,1.1-1.52c.44-1.44,1.25-3.89.86-5.4-.33-1.28-1.45-1.63-2.45-2.64C111.14,177.18,110,174.57,107.84,172.73Z" transform="translate(-12.4 -4.47)" fill="#f6c1b1"/><path d="M121,214.9c3.64,7.2,5.6,15.53,4,23.43s-7.39,15.2-15.18,17.3a25.93,25.93,0,0,1-9.7.49c-9.22-1.05-18.27-5.28-24.1-12.5s-8-17.56-4.56-26.17c2.56-6.36,7.75-11.23,12.79-15.88L97,189.71c8.57-7.91,8.8-.93,12.58,6.34C113,202.56,117.64,208.34,121,214.9Z" transform="translate(-12.4 -4.47)" fill="#68e1fd"/><path d="M124.91,238.33c-1.66,7.91-7.38,15.19-15.18,17.3a26.14,26.14,0,0,1-9.7.49c-1.22-.14-2.43-.33-3.64-.58-7.92-1.63-15.4-5.65-20.46-11.92-5.83-7.23-8-17.55-4.56-26.17,2.56-6.37,7.75-11.23,12.79-15.88L97,189.7a13.85,13.85,0,0,1,4.94-3.33c4-1.16,4.78,4.18,7.64,9.68,3.39,6.51,8,12.28,11.36,18.84C124.6,222.1,126.56,230.43,124.91,238.33Z" transform="translate(-12.4 -4.47)" fill="url(#linear-gradient-20)"/><path d="M113.08,241.69c-2.94,6.95-9.29,12.69-16.69,13.85-7.92-1.63-15.4-5.65-20.46-11.92-5.83-7.23-8-17.55-4.56-26.17,2.56-6.37,7.75-11.23,12.79-15.88L97,189.7a13.85,13.85,0,0,1,4.94-3.33c2.76.84,2.78,5.63,4.31,10.87,2.06,7,5.51,13.61,7.48,20.68C115.93,225.7,116.24,234.25,113.08,241.69Z" transform="translate(-12.4 -4.47)" fill="url(#linear-gradient-21)"/><path d="M84.39,148.37a1.11,1.11,0,0,1,.89-1.56,15.1,15.1,0,0,1,14.17,2.77,4.12,4.12,0,0,0,1.84,1.12,3.56,3.56,0,0,0,1.93-.39c3.32-1.34,6.78-2.67,10.36-2.52,2.61.11,5.63,1.56,5.83,4.17.25,3.25-3.72,5-5.56,7.66a18.89,18.89,0,0,0-1.56,3.31c-1.59,3.77-4.17,7-6.73,10.2a2.84,2.84,0,0,1-1.94,1.35,2.77,2.77,0,0,1-1.7-.77C93.64,167.41,86.42,159,84.39,148.37Z" transform="translate(-12.4 -4.47)" fill="#68e1fd"/><path d="M113.84,159.62a18.85,18.85,0,0,0-1.55,3.31c-1.59,3.77-4.17,7-6.73,10.2a2.15,2.15,0,0,1-3.64.58c-.39-.3-.79-.6-1.17-.91-7.43-5.9-13.83-13.57-16.07-23.08-.11-.44-.2-.9-.29-1.35a1.49,1.49,0,0,1,.07-1.06,1.46,1.46,0,0,1,.82-.51,15.19,15.19,0,0,1,12.86,1.8c.45.31.89.63,1.31,1a4.26,4.26,0,0,0,1.83,1.13,3.69,3.69,0,0,0,1.94-.4,29.25,29.25,0,0,1,8.82-2.49,13.15,13.15,0,0,1,1.54,0c2.61.11,5.63,1.57,5.83,4.18C119.66,155.21,115.69,156.93,113.84,159.62Z" transform="translate(-12.4 -4.47)" fill="url(#linear-gradient-22)"/><path d="M108.8,156.11a18.46,18.46,0,0,0-.51,3.64c-.41,4.06-1.92,7.92-3.41,11.72-.3.76-.69,1.61-1.46,1.87a2.89,2.89,0,0,1-1.86-.23l-.81-.31c-7.43-5.9-13.83-13.57-16.07-23.08a15,15,0,0,1,7.4,1.05,4,4,0,0,0,2.09.54,3.74,3.74,0,0,0,1.74-.95c.73-.59,1.47-1.19,2.23-1.76.45.31.89.63,1.31,1a4.26,4.26,0,0,0,1.83,1.13,3.69,3.69,0,0,0,1.94-.4,29.25,29.25,0,0,1,8.82-2.49C112.59,150.6,109.7,153.23,108.8,156.11Z" transform="translate(-12.4 -4.47)" fill="url(#linear-gradient-23)"/><path d="M94.77,223.05a19.34,19.34,0,0,1-2-.89A7.66,7.66,0,0,1,91,220.89a5.46,5.46,0,0,1-1.24-1.75,5,5,0,0,1-.37-2.4,5.8,5.8,0,0,1,.62-2.3,5.57,5.57,0,0,1,1.38-1.69,6.05,6.05,0,0,1,1.93-1,7.35,7.35,0,0,1,2.26-.31l.14-2.17,1.44.1L97,211.52a9.93,9.93,0,0,1,1.47.27,8,8,0,0,1,1.48.56,7.51,7.51,0,0,1,1.34.84,6.25,6.25,0,0,1,1.11,1.13l-1.74,1.15a4.39,4.39,0,0,0-1.66-1.6,5.47,5.47,0,0,0-2.11-.67l-.56,8.27c.74.31,1.47.65,2.18,1a8.13,8.13,0,0,1,1.87,1.37,5.81,5.81,0,0,1,1.27,1.85,6.11,6.11,0,0,1-.27,4.8A5.23,5.23,0,0,1,100,232.2a6,6,0,0,1-2,1,7.27,7.27,0,0,1-2.44.29l-.14,2.16-1.45-.09.15-2.17a8.07,8.07,0,0,1-3.59-1.17A8.58,8.58,0,0,1,88,229.81l1.79-1.09a4.05,4.05,0,0,0,.92,1.24,7.16,7.16,0,0,0,1.19.9,6.56,6.56,0,0,0,1.24.58,4.39,4.39,0,0,0,1.1.24Zm.67-10a4,4,0,0,0-2.72.92,3.61,3.61,0,0,0-1.26,2.68,3.23,3.23,0,0,0,.85,2.61,6.52,6.52,0,0,0,2.61,1.55Zm.2,18.68a5.21,5.21,0,0,0,1.38-.17,3.76,3.76,0,0,0,1.33-.62,3.55,3.55,0,0,0,1-1.18,4.38,4.38,0,0,0,.49-1.86,3.4,3.4,0,0,0-.94-2.66,7.2,7.2,0,0,0-2.72-1.78Z" transform="translate(-12.4 -4.47)" fill="#68e1fd"/></svg>