<svg id="Layer_1" data-name="Layer 1" xmlns="http://www.w3.org/2000/svg" xmlns:xlink="http://www.w3.org/1999/xlink" viewBox="0 0 437.58 462.73"><defs><linearGradient id="linear-gradient" x1="265.08" y1="380.17" x2="246.6" y2="871.94" gradientUnits="userSpaceOnUse"><stop offset="0" stop-color="#010101" stop-opacity="0"/><stop offset="0.95" stop-color="#010101"/></linearGradient><linearGradient id="linear-gradient-2" x1="267.13" y1="456.41" x2="301.37" y2="280.15" xlink:href="#linear-gradient"/><linearGradient id="linear-gradient-3" x1="224.74" y1="175.12" x2="247.28" y2="175.12" gradientUnits="userSpaceOnUse"><stop offset="0" stop-color="#010101" stop-opacity="0"/><stop offset="1" stop-color="#010101"/></linearGradient><linearGradient id="linear-gradient-4" x1="239.81" y1="369.43" x2="271.14" y2="369.43" gradientUnits="userSpaceOnUse"><stop offset="0" stop-color="#e4c5d5"/><stop offset="0.42" stop-color="#e9d3cf"/><stop offset="1" stop-color="#efe8ca"/></linearGradient><linearGradient id="linear-gradient-5" x1="269.84" y1="369" x2="295.2" y2="369" xlink:href="#linear-gradient-4"/><linearGradient id="linear-gradient-6" x1="218.78" y1="293.58" x2="281.16" y2="248.08" xlink:href="#linear-gradient-3"/><linearGradient id="linear-gradient-7" x1="305.23" y1="231.26" x2="308.54" y2="249.43" xlink:href="#linear-gradient-3"/><linearGradient id="linear-gradient-8" x1="216.53" y1="268.57" x2="282.89" y2="268.57" gradientTransform="translate(-11.12 47.75) rotate(-8.98)" xlink:href="#linear-gradient-3"/><linearGradient id="linear-gradient-9" x1="301.29" y1="248.96" x2="335.97" y2="323.27" xlink:href="#linear-gradient-3"/><linearGradient id="linear-gradient-10" x1="316.14" y1="271.61" x2="295.23" y2="237.67" xlink:href="#linear-gradient-3"/><linearGradient id="linear-gradient-11" x1="242.17" y1="145.89" x2="326.56" y2="206.8" xlink:href="#linear-gradient-3"/><linearGradient id="linear-gradient-12" x1="252.03" y1="102.97" x2="283.01" y2="102.97" xlink:href="#linear-gradient-4"/><linearGradient id="linear-gradient-13" x1="272.73" y1="112.52" x2="268.12" y2="46.53" xlink:href="#linear-gradient-3"/><linearGradient id="linear-gradient-14" x1="299.55" y1="210.22" x2="322.76" y2="210.22" xlink:href="#linear-gradient-4"/><linearGradient id="linear-gradient-15" x1="218.97" y1="224.22" x2="233.75" y2="224.22" xlink:href="#linear-gradient-4"/><linearGradient id="linear-gradient-16" x1="284.29" y1="156.14" x2="327.22" y2="146.24" xlink:href="#linear-gradient-3"/><linearGradient id="linear-gradient-17" x1="243.5" y1="65.06" x2="287.68" y2="65.06" xlink:href="#linear-gradient-4"/></defs><title>Bussiness woman</title><path d="M489.77,285.3c-20.78,29.08-57.33,45.2-74,76.82-6.82,12.93-9.78,27.54-15.13,41.17-.82,2.13-1.74,4.27-2.73,6.33-17.4,36.61-59.06,56.9-99.5,59.3-38.68,2.29-91.7-7-128.27-21.54-15.7-6.24-30.08-18.52-42.68-33.19C110.35,394.33,96.56,370,87.27,350.33,68.39,310.25,63.46,261,85.2,222.43c13.43-23.84,35.55-41.47,51.57-63.66,17.08-23.57,26.83-51.68,42.45-76.23,20.65-32.41,52.14-58.31,88.84-69.7s78.44-7.49,111,12.9c16.91,10.57,31,25.05,44.68,39.56,28.67,30.24,57.23,62,73.15,100.49S514,251.38,489.77,285.3Z" transform="translate(-70.89 -6.53)" fill="#68e1fd" opacity="0.24" style="isolation:isolate"/><path d="M400.6,403.29c-.82,2.13-1.74,4.27-2.73,6.33-17.4,36.61-59.06,56.9-99.5,59.3-38.68,2.29-91.7-7-128.27-21.54-15.7-6.24-30.08-18.52-42.68-33.19q68.05-4,136.21-6.17,23-.69,45.9-1.22l4.92-.1q26-.58,52.07-.85C372.43,405.75,387.5,403.68,400.6,403.29Z" transform="translate(-70.89 -6.53)" fill="url(#linear-gradient)"/><path d="M315.34,407.16c-3.91,2.43-7.09,5.85-10.21,9.2-2,2.19-4.1,4.39-6.14,6.59a9.57,9.57,0,0,0-2,2.73,11.35,11.35,0,0,0-.66,2.82c-1.05,6.27-8,18.95-16,17.86-6.89-.92,1.71-22.72,3.35-26.69-2.69-1.64-6.2-1.18-9,.23s-5.12,3.61-7.58,5.55a47.81,47.81,0,0,1-30.67,10.18c-1.47-.07-3.31-.5-3.51-2C243.9,426.11,253,416,263.63,408q23-.69,45.9-1.22l4.92-.1C314.75,406.83,315,407,315.34,407.16Z" transform="translate(-70.89 -6.53)" fill="url(#linear-gradient-2)"/><path d="M231.6,149.54c.9,11.58,2,18.35-1.77,29.36-1.73,5.13-4,10.14-5,15.48a4.64,4.64,0,0,0,0,2.16,5,5,0,0,0,2.29,2.41c2.35,1.54,5,3.15,7.77,2.64,3.53-.65,5.5-4.38,6.69-7.76a135.24,135.24,0,0,0,4.67-19c.66-3.33,1.31-6.72.86-10.08-.67-4.87-3.61-9.15-7-12.69-1.34-1.39-2.93-2.78-4.86-2.93s-4.19-1.49-3.65.37" transform="translate(-70.89 -6.53)" fill="#68e1fd"/><path d="M246.26,174.87a136.72,136.72,0,0,1-4.65,19c-1.18,3.36-3.17,7.11-6.69,7.74a4.2,4.2,0,0,1-1.17.08c-2.35,0-4.62-1.41-6.61-2.7a8.3,8.3,0,0,1-1.45-1.14,3.06,3.06,0,0,1-.82-1.29,4.47,4.47,0,0,1,0-2.15c1-5.35,3.21-10.36,5-15.48,3.71-11,2.66-17.79,1.76-29.36-.55-1.88,1.72-.51,3.63-.35s3.52,1.52,4.89,2.93c3.4,3.52,6.33,7.78,7,12.67C247.59,168.15,246.92,171.55,246.26,174.87Z" transform="translate(-70.89 -6.53)" fill="url(#linear-gradient-3)"/><path d="M245.6,314.81c-1,2.75-.38,5.82.28,8.69,5.06,22.22,9.8,44.71,9.9,67.5,0,6.23-.34,12.61-2.8,18.33a35,35,0,0,1-10.1,12.77c-1.62,1.34-3.51,3.11-3,5.15a4.1,4.1,0,0,0,1.5,2,9.16,9.16,0,0,0,9.86.92,17.8,17.8,0,0,0,4.52-3.93l11.89-12.94a7.19,7.19,0,0,0,1.54-2.19c.62-1.64,0-3.45-.58-5.12-4.84-15.23,1.62-31.51,2.43-47.47.75-14.85-3.45-29.46-7.61-43.74a12.69,12.69,0,0,0-1.94-4.43,8.49,8.49,0,0,0-7-2.76,25,25,0,0,0-7.5,1.86" transform="translate(-70.89 -6.53)" fill="url(#linear-gradient-4)"/><path d="M270,317.87q3.29,25.68,6.12,51.42c2,18,3.76,36.51-.91,54-1,3.62-2.1,7.83.16,10.82,2.05,2.71,6.32,3,9.22,1.22s4.53-5.13,5.11-8.48.24-6.78.06-10.18c-1.17-21.69,3.77-43.22,5.11-64.91.51-8.17.49-16.44-1.14-24.46S288,307.4,280.37,302.88C270.49,297,269.24,311.69,270,317.87Z" transform="translate(-70.89 -6.53)" fill="url(#linear-gradient-5)"/><path d="M234.34,430a4.52,4.52,0,0,0-1.2,1.84,3,3,0,0,0,1.66,3.1,7.61,7.61,0,0,0,3.7.63c4.79-.09,9.75-1.15,13.54-4.09,5.19-4,7.63-11.06,13.28-14.38a1.84,1.84,0,0,1,.62-.25c1.55-.19,1,2.85,2.34,3.65s2.41-1,2.66-2.39a20.39,20.39,0,0,0,0-7.51c-.16-.85-.51-1.83-1.34-2-1.06-.27-1.88.87-2.41,1.83a20.4,20.4,0,0,1-6.47,7.58c-5,3.25-10.13,1.57-15.52,2.78C240.5,421.82,237.42,426.68,234.34,430Z" transform="translate(-70.89 -6.53)" fill="#68e1fd"/><path d="M273.16,435.64a20.1,20.1,0,0,0,.56,6.2,6.79,6.79,0,0,0,4,4.55c2.35.81,5-.25,6.94-1.77a19.55,19.55,0,0,0,6.62-10.54,37.12,37.12,0,0,0,.78-12.57c-.15-1.69-.54-3.66-2.08-4.38a10.85,10.85,0,0,1-8.16,8.61,5.47,5.47,0,0,1-6.51-3.37C272.84,425.59,273.22,431.63,273.16,435.64Z" transform="translate(-70.89 -6.53)" fill="#68e1fd"/><path d="M300.74,305.7c-.57,1.66-.86,3.85-2.3,5.1a7.37,7.37,0,0,1-2.94,1.3A232.09,232.09,0,0,1,250,319a9.63,9.63,0,0,1-10.13-8.86c-1.44-18.22-2.18-36.52-8.2-53.77-2.62-7.51-5.59-15-6.59-22.88s.2-16.43,5.17-22.64c7.36-9.17,20.47-10.84,32.22-11.33,13.17-.54,37.47-3.78,41.67,12.66,7,27.47,3.86,59.91-.73,84.39A67.2,67.2,0,0,1,300.74,305.7Z" transform="translate(-70.89 -6.53)" fill="#606161"/><path d="M300.74,305.7c-.57,1.66-.86,3.85-2.3,5.1a7.37,7.37,0,0,1-2.94,1.3A232.09,232.09,0,0,1,250,319a9.63,9.63,0,0,1-10.13-8.86c-1.44-18.22-2.18-36.52-8.2-53.77-2.62-7.51-5.59-15-6.59-22.88s.2-16.43,5.17-22.64c7.36-9.17,20.47-10.84,32.22-11.33,13.17-.54,37.47-3.78,41.67,12.66,7,27.47,3.86,59.91-.73,84.39A67.2,67.2,0,0,1,300.74,305.7Z" transform="translate(-70.89 -6.53)" fill="url(#linear-gradient-6)"/><path d="M296.74,247.87l-3.91-.12a15.56,15.56,0,0,1,14.61-15.05c4.71-.48,8.53.48,11.29,2.81a12,12,0,0,1,4,7.76l-3.9.27a8.18,8.18,0,0,0-2.71-5.07c-1.92-1.61-4.73-2.24-8.35-1.88C297.21,237.64,296.75,247.45,296.74,247.87Z" transform="translate(-70.89 -6.53)" fill="#68e1fd"/><path d="M296.74,247.87l-3.91-.12a15.56,15.56,0,0,1,14.61-15.05c4.71-.48,8.53.48,11.29,2.81a12,12,0,0,1,4,7.76l-3.9.27a8.18,8.18,0,0,0-2.71-5.07c-1.92-1.61-4.73-2.24-8.35-1.88C297.21,237.64,296.75,247.45,296.74,247.87Z" transform="translate(-70.89 -6.53)" fill="url(#linear-gradient-7)"/><path d="M332.42,290.17,281,298.3a7.18,7.18,0,0,1-8.2-6l-.06-35.06a7.16,7.16,0,0,1,6-8.19l46-7.37a7.16,7.16,0,0,1,8.19,6l5.42,34.3A7.16,7.16,0,0,1,332.42,290.17Z" transform="translate(-70.89 -6.53)" fill="#68e1fd"/><path d="M332.42,290.17,281,298.3a7.18,7.18,0,0,1-8.2-6l-.06-35.06a7.16,7.16,0,0,1,6-8.19l46-7.37a7.16,7.16,0,0,1,8.19,6l5.42,34.3A7.16,7.16,0,0,1,332.42,290.17Z" transform="translate(-70.89 -6.53)" fill="url(#linear-gradient-8)"/><path d="M343.3,288.45l-51.4,8.13a7.16,7.16,0,0,1-8.19-6l-5.43-34.3a7.17,7.17,0,0,1,6-8.19l45-7a7.16,7.16,0,0,1,8.19,5.95l11.81,33.19A7.16,7.16,0,0,1,343.3,288.45Z" transform="translate(-70.89 -6.53)" fill="#68e1fd"/><path d="M343.3,288.45l-51.4,8.13a7.16,7.16,0,0,1-8.19-6l-5.43-34.3a7.17,7.17,0,0,1,6-8.19l45-7a7.16,7.16,0,0,1,8.19,5.95l11.81,33.19A7.16,7.16,0,0,1,343.3,288.45Z" transform="translate(-70.89 -6.53)" fill="url(#linear-gradient-9)"/><path d="M278.45,253.22s23.67,10.46,31.38,10.18,26.69-19.54,26.69-19.54l3.3,10.19S320.56,277.44,318.63,278s-37.33-2.11-37.33-2.11l-3-19.56A4,4,0,0,1,278.45,253.22Z" transform="translate(-70.89 -6.53)" fill="url(#linear-gradient-10)"/><path d="M301.62,112.07c1.47,2,1.91,4.61,2.18,7.1,1.63,15.31-2.47,32.18-7.89,46.16-1.72,4.44-3.64,9-3.31,13.77.32,4.53,2.66,8.62,4.75,12.66s3.93,8.08,5.6,12.26c1,2.56,2,5.43,1,8a10.61,10.61,0,0,1-3.88,4.35,61.73,61.73,0,0,1-44.33,11.54,31.67,31.67,0,0,1-11.84-3.6,42.48,42.48,0,0,1-7.9-6.47,8,8,0,0,1-2.53-3.52,8.18,8.18,0,0,1,.24-3.86,240.51,240.51,0,0,0,4.86-31.7,40.46,40.46,0,0,0,0-9.65,44,44,0,0,0-2.55-8.53,77,77,0,0,0-5.27-12c-1.46-2.49-3.23-4.88-3.85-7.7-.94-4.29,1-8.7,3.47-12.32s5.6-6.83,7.56-10.76c1.82-3.66,2.61-7.91,5.24-11,4-4.8,11-5.55,17.28-6,4.77-.31,10.74-1.7,15.45-.89,3,.51,3.64,3,5.86,4.67C287.52,108.93,297,105.58,301.62,112.07Z" transform="translate(-70.89 -6.53)" fill="#68e1fd"/><path d="M301.62,112.07c1.47,2,1.91,4.61,2.18,7.1,1.63,15.31-2.47,32.18-7.89,46.16-1.72,4.44-3.64,9-3.31,13.77.32,4.53,2.66,8.62,4.75,12.66s3.93,8.08,5.6,12.26c1,2.56,2,5.43,1,8a10.61,10.61,0,0,1-3.88,4.35,61.73,61.73,0,0,1-44.33,11.54,31.67,31.67,0,0,1-11.84-3.6,42.48,42.48,0,0,1-7.9-6.47,8,8,0,0,1-2.53-3.52,8.18,8.18,0,0,1,.24-3.86,240.51,240.51,0,0,0,4.86-31.7,40.46,40.46,0,0,0,0-9.65,44,44,0,0,0-2.55-8.53,77,77,0,0,0-5.27-12c-1.46-2.49-3.23-4.88-3.85-7.7-.94-4.29,1-8.7,3.47-12.32s5.6-6.83,7.56-10.76c1.82-3.66,2.61-7.91,5.24-11,4-4.8,11-5.55,17.28-6,4.77-.31,10.74-1.7,15.45-.89,3,.51,3.64,3,5.86,4.67C287.52,108.93,297,105.58,301.62,112.07Z" transform="translate(-70.89 -6.53)" fill="url(#linear-gradient-11)"/><path d="M258.59,106.14a27.47,27.47,0,0,1-3.27,3.94,15,15,0,0,0-3.28,8.85,5.54,5.54,0,0,0,.64,3.22,4,4,0,0,0,1.84,1.41,9.76,9.76,0,0,0,8.19-.63,26.84,26.84,0,0,0,6.88-5.51c1.62-1.68,3.2-3.42,4.77-5.16,1.95-2.15,4-4.42,4.85-7.36.76-2.51,1-19.29,3.8-23.15-2.89,1.07-10.15,8.86-12.91,10.28-2.46,1.27-5.32-2.6-7-.49C260.53,94.93,260.94,101.87,258.59,106.14Z" transform="translate(-70.89 -6.53)" fill="url(#linear-gradient-12)"/><path d="M283,81.75s-8.26,21.36-14.78,23.66c-9.4,3.31-8.51-1.89-8.51-1.89l2.73-13.44Z" transform="translate(-70.89 -6.53)" fill="url(#linear-gradient-13)"/><path d="M308.06,219c-1,3.73-2.38,7.65-5.45,10a13,13,0,0,0-2.4,1.95,2.38,2.38,0,0,0-.29,2.86,8.17,8.17,0,0,0,5.31-1.31c.07,2.62-.48,3.62-1.93,4.95a1.66,1.66,0,0,0,.46,2.72c7.18,3.23,13.2-2,14.19-8,.63-3.84-.51-7.74-.41-11.63a42.62,42.62,0,0,1,1.42-8.36c1-4.3,10.5-43.65-4.91-29.89C306.3,189.13,310.45,210.08,308.06,219Z" transform="translate(-70.89 -6.53)" fill="url(#linear-gradient-14)"/><path d="M231.67,232.66a3.14,3.14,0,0,1,.16,2.15,1.26,1.26,0,0,1-1.72.74,2.39,2.39,0,0,1-.55-.7c-.43-.86-.86-1.72-1.33-2.54-1.25,5.2,1.57,10.59,1,15.95-.08,1.06-.63,2.38-1.72,2.35a2.46,2.46,0,0,1-1.37-.63A19,19,0,0,1,220,242.4a18.09,18.09,0,0,1-1.05-6.77,58.22,58.22,0,0,1,.66-7.31,232.39,232.39,0,0,1,6.06-30.5,8.3,8.3,0,0,0,1.45,1.14c2,1.29,4.26,2.66,6.61,2.7a64.67,64.67,0,0,1-2.62,14.89c-.94,3-2.11,6.06-1.72,9.19C229.72,228.16,230.93,230.35,231.67,232.66Z" transform="translate(-70.89 -6.53)" fill="url(#linear-gradient-15)"/><path d="M290.38,141.73c1.67,5.2,4.5,9.93,6.79,14.89,3.41,7.41,8,10.89,8.85,19,.45,4.13.61,8.47,2.65,12.09s6.77,6.17,10.45,4.22,4.24-7.24,4-11.56C322.21,162.73,319,144,312,127.69c-2.22-5.12-9.5-20.57-16.45-18.13C287.39,112.41,288.29,135.22,290.38,141.73Z" transform="translate(-70.89 -6.53)" fill="#68e1fd"/><path d="M290.38,141.73c1.67,5.2,4.5,9.93,6.79,14.89,3.41,7.41,8,10.89,8.85,19,.45,4.13.61,8.47,2.65,12.09s6.77,6.17,10.45,4.22,4.24-7.24,4-11.56C322.21,162.73,319,144,312,127.69c-2.22-5.12-9.5-20.57-16.45-18.13C287.39,112.41,288.29,135.22,290.38,141.73Z" transform="translate(-70.89 -6.53)" fill="url(#linear-gradient-16)"/><path d="M243.63,128.17a32.2,32.2,0,0,0-3.83,7.18c-1.4,4.19-1,8.73-.64,13.14q1.16,14,1.7,28.12c.41,10.4.51,21.15-3.46,30.77-.8,1.93-1.77,3.9-1.65,6,.23,3.85,4,6.42,7.43,8.15a88.19,88.19,0,0,0,13.39,5.4c6.66,2.08,14.56,3.15,20.08-1.11,3.78-2.93,5.59-7.88,5.7-12.66s-1.27-9.47-2.85-14C276,189,271.33,179.26,268.05,169s-5.2-21.2-3.11-31.74c1.23-6.27,3.87-12.34,3.8-18.74a14.24,14.24,0,0,1-7,5c-2.83.77-6.18.08-8-2.22-1.29-1.63-1.34-3.56-1.75-5.46C248.59,118.28,245.93,124.62,243.63,128.17Z" transform="translate(-70.89 -6.53)" fill="#fff"/><path d="M261.25,95.9C250.74,93,245.79,78.41,245.09,71.38s-1.62-12.24-1.59-17.57,1.75-10.87,5.72-14.42a22,22,0,0,1,8.34-4.32c7-2.16,15-2.48,21.07,1.61,5,3.37,7.8,9.28,8.68,15.23s.05,12-.94,17.94a21.18,21.18,0,0,1-1.65,6C283.8,77.74,279.37,100.92,261.25,95.9Z" transform="translate(-70.89 -6.53)" fill="url(#linear-gradient-17)"/><path d="M276.88,47.3c-6.63.66-12.2,5.57-15.65,11.27a68.27,68.27,0,0,1-3.73,6.14c-2.62,3.46-6.42,5.83-10.26,7.86-1.69.9-3.54,1.89-4.26,3.66-.9,2.18.24,4.6,1.12,6.78s1.36,5-.4,6.61c-.76-1.59-.89-3.49-2-4.83s-3-1.76-4.41-2.74c-3.09-2.12-3.83-6.44-3.26-10.15s2.14-7.21,2.6-10.93c.28-2.28.13-4.6.51-6.87.63-3.76,2.65-7.12,4.71-10.32a33.84,33.84,0,0,1,5-6.49c4.12-3.89,9.86-5.67,15.51-6.19a42.67,42.67,0,0,1,17.2,2c2.63.86,5.54,2.44,5.91,5.18a5.37,5.37,0,0,1-2.49,4.9A12.67,12.67,0,0,1,277.55,45" transform="translate(-70.89 -6.53)" fill="#606161"/><path d="M278.23,42a3,3,0,0,0-1.4,1.18,3.24,3.24,0,0,0-.26,1.51,9,9,0,0,0,1.14,5c1.35,2,3.9,2.83,5.79,4.38a11.05,11.05,0,0,1,3.68,7.41,20.94,20.94,0,0,1-1.09,8.37c-1.22,3.92-3.08,7.75-3.08,11.85a13.63,13.63,0,0,0,4.41,9.93,20.63,20.63,0,0,1,1.13-15.05c1.2-2.4,2.87-4.52,4.15-6.87a17.06,17.06,0,0,0,2.23-8.43,26.7,26.7,0,0,0-1.78-7.85c-1.23-3.68-2.43-7.71-4.73-10.89C286.35,39.72,281,40.63,278.23,42Z" transform="translate(-70.89 -6.53)" fill="#606161"/><path d="M292.59,40.15a14.48,14.48,0,0,0-14.62-16,20.68,20.68,0,0,0-5.17.84,13.47,13.47,0,0,0-4.45,2,12.45,12.45,0,0,0-2.61,2.76,10.69,10.69,0,0,0-2.36,5.57A8.66,8.66,0,0,0,266,41.57a18.83,18.83,0,0,0,5.89,3.79,48.25,48.25,0,0,0,13.25,3.81A14.34,14.34,0,0,0,291.3,49a6,6,0,0,0,4.25-4.08,6.1,6.1,0,0,0-.89-4.5,18.19,18.19,0,0,0-3.05-3.57" transform="translate(-70.89 -6.53)" fill="#606161"/></svg>