<svg id="Layer_1" data-name="Layer 1" xmlns="http://www.w3.org/2000/svg" xmlns:xlink="http://www.w3.org/1999/xlink" viewBox="0 0 547.54 437.55"><defs><linearGradient id="linear-gradient" x1="310.44" y1="231.82" x2="327.17" y2="348.94" gradientUnits="userSpaceOnUse"><stop offset="0" stop-color="#010101" stop-opacity="0"/><stop offset="0.95" stop-color="#010101"/></linearGradient><linearGradient id="linear-gradient-2" x1="316.48" y1="214.94" x2="309.1" y2="372.41" gradientTransform="translate(562.57 -66.8) rotate(89.69)" xlink:href="#linear-gradient"/><linearGradient id="linear-gradient-3" x1="279.18" y1="130.33" x2="303.29" y2="201.19" xlink:href="#linear-gradient"/><linearGradient id="linear-gradient-4" x1="273.15" y1="213.76" x2="314.98" y2="180.3" xlink:href="#linear-gradient"/><linearGradient id="linear-gradient-5" x1="301.61" y1="126.72" x2="318.67" y2="240.23" xlink:href="#linear-gradient"/><linearGradient id="linear-gradient-6" x1="309.78" y1="171.25" x2="295.34" y2="266.38" xlink:href="#linear-gradient"/><linearGradient id="linear-gradient-7" x1="309.31" y1="129.18" x2="294.87" y2="311.58" gradientUnits="userSpaceOnUse"><stop offset="0" stop-color="#fff" stop-opacity="0"/><stop offset="0.95" stop-color="#fff"/></linearGradient><linearGradient id="linear-gradient-8" x1="473.36" y1="272.64" x2="466.75" y2="356.19" gradientUnits="userSpaceOnUse"><stop offset="0" stop-color="#fff" stop-opacity="0"/><stop offset="0.66" stop-color="#fff"/></linearGradient><linearGradient id="linear-gradient-9" x1="420.11" y1="306.72" x2="413.5" y2="390.28" xlink:href="#linear-gradient-7"/><linearGradient id="linear-gradient-10" x1="176.28" y1="174" x2="169.67" y2="257.55" gradientUnits="userSpaceOnUse"><stop offset="0" stop-color="#fff" stop-opacity="0"/><stop offset="0.38" stop-color="#fff" stop-opacity="0.67"/><stop offset="0.95" stop-color="#fff"/></linearGradient><linearGradient id="linear-gradient-11" x1="222.04" y1="103.19" x2="215.43" y2="186.75" gradientUnits="userSpaceOnUse"><stop offset="0" stop-color="#fff" stop-opacity="0"/><stop offset="0.58" stop-color="#fff"/></linearGradient><linearGradient id="linear-gradient-12" x1="70.15" y1="174.55" x2="63.54" y2="258.1" gradientUnits="userSpaceOnUse"><stop offset="0" stop-color="#fff" stop-opacity="0"/><stop offset="0.53" stop-color="#fff"/></linearGradient><linearGradient id="linear-gradient-13" x1="475.29" y1="319.25" x2="483.07" y2="373.72" xlink:href="#linear-gradient"/><linearGradient id="linear-gradient-14" x1="478.1" y1="311.39" x2="474.67" y2="384.64" gradientTransform="translate(802.18 -151.69) rotate(89.69)" xlink:href="#linear-gradient-7"/><linearGradient id="linear-gradient-15" x1="418.95" y1="373.25" x2="426.74" y2="427.73" xlink:href="#linear-gradient"/><linearGradient id="linear-gradient-16" x1="421.76" y1="365.4" x2="418.33" y2="438.65" gradientTransform="translate(800.16 -41.64) rotate(89.69)" xlink:href="#linear-gradient-7"/><linearGradient id="linear-gradient-17" x1="224" y1="145.05" x2="231.78" y2="199.52" xlink:href="#linear-gradient"/><linearGradient id="linear-gradient-18" x1="226.8" y1="137.19" x2="223.37" y2="210.44" gradientTransform="translate(378.05 -73.65) rotate(89.69)" xlink:href="#linear-gradient-7"/><linearGradient id="linear-gradient-19" x1="177.74" y1="218.86" x2="185.52" y2="273.33" xlink:href="#linear-gradient"/><linearGradient id="linear-gradient-20" x1="180.55" y1="211.01" x2="177.12" y2="284.25" gradientTransform="matrix(0.01, 1, -1, 0.01, 405.86, 46.02)" xlink:href="#linear-gradient-7"/><linearGradient id="linear-gradient-21" x1="71.45" y1="221.81" x2="79.23" y2="276.29" xlink:href="#linear-gradient"/><linearGradient id="linear-gradient-22" x1="74.26" y1="213.96" x2="70.82" y2="287.21" gradientTransform="translate(303.1 155.24) rotate(89.69)" xlink:href="#linear-gradient-7"/></defs><title>Ether Cryptocurrency</title><path d="M320.28,8.06C236.54,10.42,157,43,79.61,75.09,56.94,84.5,32.27,95.77,22.17,118.14,5.76,154.5,37.1,195.19,35,235c-1.32,24.28-15.05,46.23-18.87,70.24C9.37,347.49,35.47,390,71.63,412.83s80.42,28.92,123.16,28.89,85.42-5.64,128.13-4c48.27,1.9,96.88,13.07,144.42,4.49s95.37-45.8,93.77-94.08c-1-30.33-21-57.54-22.22-87.86-1.69-42.7,28-78.65,23.15-122.48-3.24-29.45-17.51-65.74-41.29-85C475,15.81,374.93,6.52,320.28,8.06Z" transform="translate(-15.02 -7.9)" fill="#f7b844" opacity="0.24" style="isolation:isolate"/><polygon points="325.17 314.31 261.74 277.69 311.37 249.04 275.78 228.49 244.12 246.77 147.11 190.76 204.72 157.5 207.01 158.82 151.68 190.77 244.1 244.13 275.76 225.85 315.94 249.05 266.31 277.7 325.15 311.67 398.74 269.19 439.78 292.88 406.41 312.15 445.44 334.69 463.13 324.48 465.43 325.8 445.46 337.33 401.84 312.14 435.21 292.88 398.75 271.83 325.17 314.31" fill="#f7b844"/><polygon points="411.11 387.15 331.83 341.38 383.17 311.74 312.42 270.89 263.63 296.08 191.66 254.52 224.6 235.5 191.38 216.32 167.28 230.24 164.98 228.91 191.36 213.68 229.17 235.51 196.23 254.53 263.74 293.51 312.53 268.32 387.74 311.75 336.4 341.38 413.39 385.84 411.11 387.15" fill="#f7b844"/><polygon points="98.67 254.19 58.77 231.16 61.05 229.84 98.65 251.55 131.38 232.65 312.2 337.05 353.92 312.97 401.7 340.56 428.16 325.28 430.45 326.61 401.72 343.2 353.93 315.61 312.21 339.69 131.4 235.29 98.67 254.19" fill="#f7b844"/><polygon points="168.4 200.51 166.11 199.18 198.69 180.37 253.58 212.06 282.46 195.39 381.12 252.35 378.84 253.66 282.48 198.03 253.6 214.7 198.71 183.01 168.4 200.51" fill="#f7b844"/><path d="M278.62,275.92a7,7,0,0,1,0,2.58c-.64,2-3.31,2.4-5.44,2.44a147.13,147.13,0,0,0-35.95,5.15c-2.81.76-5.82,1.76-7.49,4.16s-.93,6.53,1.92,7.14a57.72,57.72,0,0,0-12,2.78,4.39,4.39,0,0,0-2.58,1.72c-1.23,2.22,1.65,4.45,4.07,5.22,9.69,3.13,20,3.25,30.23,3.35,4.84,0,10.53-.34,13.18-4.4.83-1.28,1.29-2.87,2.46-3.86a7.6,7.6,0,0,1,2.75-1.27l15.36-4.71a17.23,17.23,0,0,1,5.78-1.07c2.28.12,4.4,1.13,6.52,2a47.88,47.88,0,0,0,23.86,3c1.91,4,4,8.3,7.76,10.73,3.07,2,6.83,2.46,10.46,2.9,8,1,16.14,1.91,24,.15,3.31-.74,7-2.54,7.48-5.9.53-3.85-3.47-6.63-6.93-8.42l-7-3.65a8,8,0,0,1-3.34-2.58c-1.54-2.49.1-5.81,2.33-7.72a14.44,14.44,0,0,1,6.21-3.09c3.41-.76,7-.24,10.46-.39s7.29-1.23,9.2-4.17a2,2,0,0,0,.4-1.43,2.19,2.19,0,0,0-1-1.22c-7.73-5.41-17.79-5.81-27.22-6l-43.42-.92c-7.16-.15-14.36-.08-21.51-.45C283.64,267.65,278.2,268.8,278.62,275.92Z" transform="translate(-15.02 -7.9)" fill="#f7b844" opacity="0.24" style="isolation:isolate"/><ellipse cx="250.45" cy="284.2" rx="8.97" ry="15.53" transform="translate(-50.12 525.21) rotate(-89.69)" fill="#f29c5a"/><ellipse cx="250.45" cy="281.39" rx="8.97" ry="15.53" transform="translate(-47.31 522.41) rotate(-89.69)" fill="#ffc91f"/><ellipse cx="250.38" cy="281.17" rx="6.96" ry="12.06" transform="translate(-47.16 522.12) rotate(-89.69)" fill="#f29c5a"/><ellipse cx="246.52" cy="278.79" rx="8.97" ry="15.53" transform="translate(-48.63 515.89) rotate(-89.69)" fill="#f29c5a"/><ellipse cx="246.52" cy="275.98" rx="8.97" ry="15.53" transform="translate(-45.82 513.09) rotate(-89.69)" fill="#ffc91f"/><ellipse cx="246.45" cy="275.75" rx="6.96" ry="12.06" transform="translate(-45.66 512.8) rotate(-89.69)" fill="#f29c5a"/><ellipse cx="252.94" cy="270.26" rx="8.97" ry="15.53" transform="translate(-33.71 513.83) rotate(-89.69)" fill="#f29c5a"/><ellipse cx="252.94" cy="267.45" rx="8.97" ry="15.53" transform="translate(-30.91 511.04) rotate(-89.69)" fill="#ffc91f"/><ellipse cx="252.87" cy="267.23" rx="6.96" ry="12.06" transform="translate(-30.75 510.75) rotate(-89.69)" fill="#f29c5a"/><ellipse cx="368.27" cy="273.05" rx="8.97" ry="15.53" transform="matrix(0.01, -1, 1, 0.01, 78.2, 631.94)" fill="#f29c5a"/><ellipse cx="368.27" cy="270.24" rx="8.97" ry="15.53" transform="translate(81.01 629.14) rotate(-89.69)" fill="#ffc91f"/><ellipse cx="368.2" cy="270.02" rx="6.96" ry="12.06" transform="translate(81.16 628.85) rotate(-89.69)" fill="#f29c5a"/><ellipse cx="374.83" cy="266.98" rx="8.97" ry="15.53" transform="matrix(0.01, -1, 1, 0.01, 90.79, 632.46)" fill="#f29c5a"/><ellipse cx="374.83" cy="264.17" rx="8.97" ry="15.53" transform="translate(93.6 629.67) rotate(-89.69)" fill="#ffc91f"/><ellipse cx="374.76" cy="263.95" rx="6.96" ry="12.06" transform="translate(93.76 629.38) rotate(-89.69)" fill="#f29c5a"/><ellipse cx="369.13" cy="257.25" rx="8.97" ry="15.53" transform="matrix(0.01, -1, 1, 0.01, 94.86, 617.08)" fill="#f29c5a"/><ellipse cx="369.13" cy="254.44" rx="8.97" ry="15.53" transform="translate(97.67 614.29) rotate(-89.69)" fill="#ffc91f"/><ellipse cx="369.06" cy="254.22" rx="6.96" ry="12.06" transform="translate(97.82 614) rotate(-89.69)" fill="#f29c5a"/><ellipse cx="264.15" cy="234.89" rx="8.97" ry="15.53" transform="translate(12.8 489.87) rotate(-89.69)" fill="#f29c5a"/><ellipse cx="264.15" cy="232.09" rx="8.97" ry="15.53" transform="translate(15.61 487.08) rotate(-89.69)" fill="#ffc91f"/><ellipse cx="264.08" cy="231.86" rx="6.96" ry="12.06" transform="translate(15.77 486.79) rotate(-89.69)" fill="#f29c5a"/><ellipse cx="345.02" cy="305.47" rx="8.97" ry="15.53" transform="translate(22.65 640.93) rotate(-89.69)" fill="#f29c5a"/><ellipse cx="345.02" cy="302.67" rx="8.97" ry="15.53" transform="translate(25.46 638.14) rotate(-89.69)" fill="#ffc91f"/><ellipse cx="344.95" cy="302.44" rx="6.96" ry="12.06" transform="translate(25.62 637.85) rotate(-89.69)" fill="#f29c5a"/><path d="M336.45,284.89c-11.95,6.9-31.39,6.86-43.42-.08-6-3.47-9-8-9.06-12.55,0-1.71.48-25.62.31-24.8-.6,3,4.88,14.43,8.61,12.28,11.95-6.9,31.39-6.87,43.42.08,3,1.75,7.4-13.12,8.91-11,0,0-.28,20.13,0,21.81C346.09,275.76,343.17,281,336.45,284.89Z" transform="translate(-15.02 -7.9)" fill="#f7b844"/><path d="M336.45,284.89c-11.95,6.9-31.39,6.86-43.42-.08-6-3.47-9-8-9.06-12.55,0-1.71.48-25.62.31-24.8-.6,3,4.88,14.43,8.61,12.28,11.95-6.9,31.39-6.87,43.42.08,3,1.75,7.4-13.12,8.91-11,0,0-.28,20.13,0,21.81C346.09,275.76,343.17,281,336.45,284.89Z" transform="translate(-15.02 -7.9)" fill="url(#linear-gradient)"/><ellipse cx="314.67" cy="249.68" rx="17.73" ry="30.7" transform="translate(48.27 555.09) rotate(-89.69)" fill="#f7b844"/><path d="M345.35,262.92c.28,4.72-2.69,9.51-8.91,13.11-12,6.89-31.39,6.85-43.42-.07-6.29-3.63-9.29-8.42-9-13.18.38,4.27,3.39,8.46,9,11.68,12,7,31.46,7,43.42.1C342,271.31,345,267.15,345.35,262.92Z" transform="translate(-15.02 -7.9)" fill="#f7b844"/><ellipse cx="314.86" cy="249.42" rx="13.67" ry="23.68" transform="translate(48.72 555.03) rotate(-89.69)" fill="url(#linear-gradient-2)"/><polygon points="300.67 117.69 268.93 176 286.15 176 300.67 117.69" fill="#f7b844"/><polygon points="300.1 233.33 268.93 176 286.15 176 300.1 233.33" fill="#f7b844"/><polygon points="331.92 176.25 300.67 117.69 286.15 176 331.92 176.25" fill="#f7b844"/><polygon points="300.1 233.33 331.92 176.25 286.15 176 300.1 233.33" fill="#f7b844"/><polygon points="300.67 117.69 268.93 176 286.15 176 300.67 117.69" fill="url(#linear-gradient-3)"/><polygon points="300.1 233.33 268.93 176 286.15 176 300.1 233.33" fill="url(#linear-gradient-4)"/><polygon points="331.92 176.25 300.67 117.69 286.15 176 331.92 176.25" fill="url(#linear-gradient-5)"/><polygon points="300.1 233.33 331.92 176.25 286.15 176 300.1 233.33" fill="url(#linear-gradient-6)"/><path d="M284.28,247.46l-52.49-147L392.22,89.67,345,256S304.3,284.7,284.28,247.46Z" transform="translate(-15.02 -7.9)" fill="url(#linear-gradient-7)"/><path d="M461.9,326.83l-24-67.33,73.48-5L489.7,330.73S471.07,343.88,461.9,326.83Z" transform="translate(-15.02 -7.9)" fill="url(#linear-gradient-8)"/><path d="M407.12,380.3,383.07,313l73.49-5-21.64,76.19S416.28,397.36,407.12,380.3Z" transform="translate(-15.02 -7.9)" fill="url(#linear-gradient-9)"/><path d="M164.82,228.18l-24-67.32,73.48-5-21.64,76.19S174,245.24,164.82,228.18Z" transform="translate(-15.02 -7.9)" fill="url(#linear-gradient-10)"/><path d="M210.58,157.38,186.53,90.05l73.49-5-21.64,76.19S219.74,174.43,210.58,157.38Z" transform="translate(-15.02 -7.9)" fill="url(#linear-gradient-11)"/><path d="M58.69,228.73l-24-67.32,73.49-5L86.49,232.64S67.85,245.79,58.69,228.73Z" transform="translate(-15.02 -7.9)" fill="url(#linear-gradient-12)"/><path d="M487.39,343.93c-5.56,3.21-14.61,3.19-20.2,0-2.8-1.61-4.2-3.73-4.21-5.84,0-.79.22-11.91.14-11.53-.28,1.4,2.27,6.71,4,5.71,5.56-3.21,14.6-3.19,20.19,0,1.41.81,3.44-6.1,4.15-5.1,0,0-.14,9.36,0,10.14C491.87,339.68,490.51,342.12,487.39,343.93Z" transform="translate(-15.02 -7.9)" fill="#f7b844"/><path d="M487.39,343.93c-5.56,3.21-14.61,3.19-20.2,0-2.8-1.61-4.2-3.73-4.21-5.84,0-.79.22-11.91.14-11.53-.28,1.4,2.27,6.71,4,5.71,5.56-3.21,14.6-3.19,20.19,0,1.41.81,3.44-6.1,4.15-5.1,0,0-.14,9.36,0,10.14C491.87,339.68,490.51,342.12,487.39,343.93Z" transform="translate(-15.02 -7.9)" fill="url(#linear-gradient-13)"/><ellipse cx="477.26" cy="327.55" rx="8.25" ry="14.28" transform="translate(132.1 795.12) rotate(-89.69)" fill="#f7b844"/><path d="M491.53,333.71c.13,2.2-1.25,4.42-4.15,6.1-5.56,3.2-14.6,3.18-20.19,0-2.93-1.7-4.33-3.92-4.2-6.13.18,2,1.58,3.93,4.2,5.43,5.59,3.23,14.63,3.25,20.19,0C490,337.61,491.37,335.68,491.53,333.71Z" transform="translate(-15.02 -7.9)" fill="#f7b844"/><ellipse cx="477.35" cy="327.43" rx="6.36" ry="11.01" transform="translate(132.31 795.09) rotate(-89.69)" fill="url(#linear-gradient-14)"/><path d="M431.05,397.94c-5.56,3.21-14.6,3.19-20.2,0-2.79-1.62-4.2-3.73-4.21-5.84,0-.79.22-11.91.15-11.53-.28,1.4,2.27,6.71,4,5.71,5.56-3.21,14.6-3.19,20.2,0,1.41.81,3.44-6.11,4.14-5.1,0,0-.13,9.36,0,10.14C435.54,393.69,434.18,396.13,431.05,397.94Z" transform="translate(-15.02 -7.9)" fill="#f7b844"/><path d="M431.05,397.94c-5.56,3.21-14.6,3.19-20.2,0-2.79-1.62-4.2-3.73-4.21-5.84,0-.79.22-11.91.15-11.53-.28,1.4,2.27,6.71,4,5.71,5.56-3.21,14.6-3.19,20.2,0,1.41.81,3.44-6.11,4.14-5.1,0,0-.13,9.36,0,10.14C435.54,393.69,434.18,396.13,431.05,397.94Z" transform="translate(-15.02 -7.9)" fill="url(#linear-gradient-15)"/><ellipse cx="420.92" cy="381.56" rx="8.25" ry="14.28" transform="translate(22.06 792.51) rotate(-89.69)" fill="#f7b844"/><path d="M435.19,387.72c.13,2.19-1.25,4.42-4.14,6.1-5.56,3.2-14.6,3.18-20.2,0-2.92-1.69-4.32-3.91-4.19-6.13.18,2,1.58,3.94,4.19,5.44,5.6,3.23,14.64,3.25,20.2,0C433.63,391.62,435,389.69,435.19,387.72Z" transform="translate(-15.02 -7.9)" fill="#f7b844"/><ellipse cx="421.01" cy="381.44" rx="6.36" ry="11.01" transform="translate(22.27 792.48) rotate(-89.69)" fill="url(#linear-gradient-16)"/><path d="M236.09,169.73c-5.56,3.21-14.6,3.19-20.19,0-2.8-1.61-4.21-3.73-4.22-5.84,0-.79.23-11.91.15-11.53-.28,1.4,2.27,6.71,4,5.71,5.56-3.21,14.6-3.19,20.2,0,1.41.81,3.44-6.1,4.14-5.1,0,0-.13,9.36,0,10.14C240.58,165.48,239.22,167.92,236.09,169.73Z" transform="translate(-15.02 -7.9)" fill="#f7b844"/><path d="M236.09,169.73c-5.56,3.21-14.6,3.19-20.19,0-2.8-1.61-4.21-3.73-4.22-5.84,0-.79.23-11.91.15-11.53-.28,1.4,2.27,6.71,4,5.71,5.56-3.21,14.6-3.19,20.2,0,1.41.81,3.44-6.1,4.14-5.1,0,0-.13,9.36,0,10.14C240.58,165.48,239.22,167.92,236.09,169.73Z" transform="translate(-15.02 -7.9)" fill="url(#linear-gradient-17)"/><ellipse cx="225.96" cy="153.35" rx="8.25" ry="14.28" transform="translate(56.37 370.58) rotate(-89.69)" fill="#f7b844"/><path d="M240.23,159.51c.13,2.2-1.25,4.42-4.14,6.1-5.56,3.2-14.6,3.18-20.2,0-2.92-1.7-4.32-3.92-4.19-6.13.18,2,1.58,3.93,4.19,5.43,5.6,3.23,14.64,3.25,20.2.05C238.67,163.41,240.07,161.48,240.23,159.51Z" transform="translate(-15.02 -7.9)" fill="#f7b844"/><ellipse cx="226.05" cy="153.23" rx="6.36" ry="11.01" transform="translate(56.58 370.55) rotate(-89.69)" fill="url(#linear-gradient-18)"/><path d="M189.84,243.54c-5.56,3.21-14.61,3.19-20.2,0-2.8-1.61-4.2-3.72-4.22-5.83,0-.8.23-11.92.15-11.54-.28,1.4,2.27,6.72,4,5.71,5.56-3.21,14.6-3.19,20.19,0,1.41.81,3.44-6.1,4.15-5.1,0,0-.14,9.37,0,10.15C194.32,239.29,193,241.74,189.84,243.54Z" transform="translate(-15.02 -7.9)" fill="#f7b844"/><path d="M189.84,243.54c-5.56,3.21-14.61,3.19-20.2,0-2.8-1.61-4.2-3.72-4.22-5.83,0-.8.23-11.92.15-11.54-.28,1.4,2.27,6.72,4,5.71,5.56-3.21,14.6-3.19,20.19,0,1.41.81,3.44-6.1,4.15-5.1,0,0-.14,9.37,0,10.15C194.32,239.29,193,241.74,189.84,243.54Z" transform="translate(-15.02 -7.9)" fill="url(#linear-gradient-19)"/><ellipse cx="179.71" cy="227.16" rx="8.25" ry="14.28" transform="translate(-63.45 397.74) rotate(-89.69)" fill="#f7b844"/><path d="M194,233.32c.13,2.2-1.25,4.43-4.15,6.1-5.56,3.2-14.6,3.19-20.19,0-2.93-1.69-4.33-3.92-4.2-6.13.18,2,1.58,3.93,4.2,5.43,5.59,3.24,14.63,3.25,20.19.05C192.42,237.23,193.81,235.29,194,233.32Z" transform="translate(-15.02 -7.9)" fill="#f7b844"/><ellipse cx="179.8" cy="227.04" rx="6.36" ry="11.01" transform="translate(-63.24 397.71) rotate(-89.69)" fill="url(#linear-gradient-20)"/><path d="M83.54,246.49c-5.55,3.21-14.6,3.2-20.19,0-2.8-1.62-4.2-3.73-4.22-5.84,0-.79.23-11.91.15-11.53-.28,1.4,2.27,6.71,4,5.71,5.56-3.21,14.61-3.2,20.2,0,1.41.82,3.44-6.1,4.15-5.09,0,0-.14,9.36,0,10.14C88,242.25,86.67,244.69,83.54,246.49Z" transform="translate(-15.02 -7.9)" fill="#f7b844"/><path d="M83.54,246.49c-5.55,3.21-14.6,3.2-20.19,0-2.8-1.62-4.2-3.73-4.22-5.84,0-.79.23-11.91.15-11.53-.28,1.4,2.27,6.71,4,5.71,5.56-3.21,14.61-3.2,20.2,0,1.41.82,3.44-6.1,4.15-5.09,0,0-.14,9.36,0,10.14C88,242.25,86.67,244.69,83.54,246.49Z" transform="translate(-15.02 -7.9)" fill="url(#linear-gradient-21)"/><ellipse cx="73.41" cy="230.12" rx="8.25" ry="14.28" transform="translate(-172.12 294.38) rotate(-89.69)" fill="#f7b844"/><path d="M87.69,236.28c.13,2.19-1.26,4.42-4.15,6.09-5.56,3.21-14.6,3.19-20.19,0-2.93-1.69-4.33-3.92-4.2-6.13.18,2,1.58,3.94,4.2,5.43,5.59,3.24,14.63,3.25,20.19.05C86.13,240.18,87.52,238.24,87.69,236.28Z" transform="translate(-15.02 -7.9)" fill="#f7b844"/><ellipse cx="73.51" cy="229.99" rx="6.36" ry="11.01" transform="translate(-171.91 294.35) rotate(-89.69)" fill="url(#linear-gradient-22)"/></svg>