<svg id="Layer_1" data-name="Layer 1" xmlns="http://www.w3.org/2000/svg" xmlns:xlink="http://www.w3.org/1999/xlink" viewBox="0 0 397.14 335.53"><defs><linearGradient id="linear-gradient" x1="6965.68" y1="197.38" x2="6979.07" y2="188.91" gradientTransform="matrix(-1, 0, 0, 1, 7277.72, 0)" gradientUnits="userSpaceOnUse"><stop offset="0.01"/><stop offset="0.83" stop-opacity="0.07"/><stop offset="1" stop-opacity="0"/></linearGradient><linearGradient id="linear-gradient-2" x1="6965.2" y1="217.22" x2="6949.36" y2="161.89" xlink:href="#linear-gradient"/><linearGradient id="linear-gradient-3" x1="6962.69" y1="287.7" x2="6962.69" y2="239.22" xlink:href="#linear-gradient"/><linearGradient id="linear-gradient-4" x1="6946.52" y1="199.91" x2="6971.51" y2="199.91" xlink:href="#linear-gradient"/><linearGradient id="linear-gradient-5" x1="321.3" y1="144.36" x2="320.86" y2="165.33" gradientTransform="matrix(1, 0, 0, 1, 0, 0)" xlink:href="#linear-gradient"/><linearGradient id="linear-gradient-6" x1="6927.83" y1="208.61" x2="6947.46" y2="195" xlink:href="#linear-gradient"/><linearGradient id="linear-gradient-7" x1="7005.66" y1="231.75" x2="7005.96" y2="199.63" gradientTransform="matrix(1, 0, 0, -1, -6733.93, 428.61)" xlink:href="#linear-gradient"/><linearGradient id="linear-gradient-8" x1="106.48" y1="197.23" x2="119.86" y2="188.76" gradientTransform="matrix(1, 0, 0, 1, 0, 0)" xlink:href="#linear-gradient"/><linearGradient id="linear-gradient-9" x1="106" y1="217.07" x2="90.16" y2="161.74" gradientTransform="matrix(1, 0, 0, 1, 0, 0)" xlink:href="#linear-gradient"/><linearGradient id="linear-gradient-10" x1="103.49" y1="287.55" x2="103.49" y2="239.07" gradientTransform="matrix(1, 0, 0, 1, 0, 0)" xlink:href="#linear-gradient"/><linearGradient id="linear-gradient-11" x1="87.32" y1="199.76" x2="112.3" y2="199.76" gradientTransform="matrix(1, 0, 0, 1, 0, 0)" xlink:href="#linear-gradient"/><linearGradient id="linear-gradient-12" x1="68.62" y1="208.46" x2="88.26" y2="194.85" gradientTransform="matrix(1, 0, 0, 1, 0, 0)" xlink:href="#linear-gradient"/><linearGradient id="linear-gradient-13" x1="192.13" y1="169.06" x2="199.31" y2="272.92" gradientTransform="matrix(1, 0, 0, 1, 0, 0)" xlink:href="#linear-gradient"/><linearGradient id="linear-gradient-14" x1="177.95" y1="79.17" x2="211.41" y2="318.77" gradientTransform="matrix(1, 0, 0, 1, 0, 0)" xlink:href="#linear-gradient"/><linearGradient id="linear-gradient-15" x1="201.84" y1="72.26" x2="188.01" y2="185.59" gradientTransform="matrix(1, 0, 0, 1, 0, 0)" xlink:href="#linear-gradient"/><linearGradient id="linear-gradient-16" x1="130.48" y1="67.55" x2="289.32" y2="113.06" gradientTransform="matrix(1, 0, 0, 1, 0, 0)" xlink:href="#linear-gradient"/><linearGradient id="linear-gradient-17" x1="130.36" y1="21.11" x2="289.2" y2="66.62" gradientTransform="matrix(1, 0, 0, 1, 0, 0)" xlink:href="#linear-gradient"/><linearGradient id="linear-gradient-18" x1="135.6" y1="0.97" x2="294.44" y2="46.48" gradientTransform="matrix(1, 0, 0, 1, 0, 0)" xlink:href="#linear-gradient"/><linearGradient id="linear-gradient-19" x1="137.12" y1="219.52" x2="137.42" y2="187.39" gradientTransform="matrix(1, 0, 0, 1, 0, 0)" xlink:href="#linear-gradient"/><linearGradient id="linear-gradient-20" x1="261.93" y1="221.87" x2="262.82" y2="193.31" gradientTransform="matrix(1, 0, 0, 1, 0, 0)" xlink:href="#linear-gradient"/><linearGradient id="linear-gradient-21" x1="197.08" y1="72.95" x2="194.41" y2="236.25" gradientTransform="matrix(1, 0, 0, 1, 0, 0)" xlink:href="#linear-gradient"/><linearGradient id="linear-gradient-22" x1="197.08" y1="132.74" x2="194.41" y2="296.04" gradientTransform="matrix(1, 0, 0, 1, 0, 0)" xlink:href="#linear-gradient"/><linearGradient id="linear-gradient-23" x1="196.33" y1="224.65" x2="195.03" y2="303.74" gradientTransform="matrix(1, 0, 0, 1, 0, 0)" xlink:href="#linear-gradient"/><linearGradient id="linear-gradient-24" x1="321.97" y1="121.04" x2="319.81" y2="147.95" gradientTransform="matrix(1, 0, 0, 1, 0, 0)" xlink:href="#linear-gradient"/></defs><title>Factory Worker</title><path d="M383,291.18c-1.7,2.28-3.51,4.49-5.46,6.63-23.76,26.2-61.2,35.13-96.52,37s-71.12-2-105.86,4.68c-11.95,2.3-23.68,5.83-35.77,7.32-20.9,2.57-42.16-1-62.3-7.21-15.7-4.8-31.68-11.69-41.63-24.75a123.14,123.14,0,0,1-14.18-23.64C1,246.72,9.12,194.67,26.26,149.35,37.05,120.83,50,92.77,68.89,68.84s44.24-43.64,73.69-51.52C155,14,167.89,12.81,180.82,12.4c6.72-.23,13.48-.25,20.19-.26,8.56,0,17.17,0,25.73.38a158.3,158.3,0,0,1,33.95,4.82c18.93,5.12,36.18,15.06,52.64,25.72,37.43,24.24,73.93,55.39,86.77,98.09,5.07,16.86,6.14,34.65,6.35,52.26C406.86,227.52,403.11,264.19,383,291.18Z" transform="translate(-9.34 -12.08)" fill="#68e1fd" opacity="0.18" style="isolation:isolate"/><path d="M383.12,291.12q-2.55,3.44-5.45,6.64c-23.76,26.2-61.21,35.12-96.53,37s-71.12-2-105.86,4.68c-11.94,2.3-23.68,5.82-35.76,7.31-20.9,2.58-42.16-1-62.3-7.2-15.71-4.8-31.69-11.7-41.64-24.75a123,123,0,0,1-14.17-23.65Z" transform="translate(-9.34 -12.08)" fill="#68e1fd" opacity="0.41" style="isolation:isolate"/><path d="M84.93,292.22S73.78,296,75.79,298s-24.76,0-24.09,4,307.86,0,307.86,0,8.25-2-2.45-4.38A114.75,114.75,0,0,0,338.66,295l-5.08-2.62Z" transform="translate(-9.34 -12.08)" fill="#68e1fd" opacity="0.66" style="isolation:isolate"/><path d="M335.91,212.5s.81,6.32-.74,32c-1.45,23.9-1.86,40.63-1.86,40.63s-.16,2-4.27,2-5.21-2.66-5.21-2.66l-4-61.28L303,285.71s-4.94,2.84-8.79.71c-2.74-1.52,12.72-74,12.72-74A34.11,34.11,0,0,0,335.91,212.5Z" transform="translate(-9.34 -12.08)" fill="#3f3d56"/><path d="M304.94,166.68c-.12.53-.24,1.06-.35,1.59-1.19,5.29-3.63,24.3-6.11,26.63s-7.55,7.27-9.41,10.26c-.64,1,2.79,9.26,7.7,5.69,2.76-2,10.52-10.51,11-11.82a12.78,12.78,0,0,0,.57-5.46Z" transform="translate(-9.34 -12.08)" fill="#68e1fd"/><path d="M304.94,166.68c-.12.53-.24,1.06-.35,1.59-1.19,5.29-3.63,24.3-6.11,26.63s-7.55,7.27-9.41,10.26c-.64,1,2.79,9.26,7.7,5.69,2.76-2,10.52-10.51,11-11.82a12.78,12.78,0,0,0,.57-5.46Z" transform="translate(-9.34 -12.08)" fill="url(#linear-gradient)"/><path d="M326,161.15s10.94,5.28,11.19,7-1.24,44.33-1.24,44.33-3.55,4.61-14.43,4.61c-11.14,0-14.69-3.11-14.51-4.67.61-5.39-2.27-43.95-2-45.76s10.34-5.51,10.34-5.51Z" transform="translate(-9.34 -12.08)" fill="#68e1fd"/><path d="M326,161.15s10.94,5.28,11.19,7-1.24,44.33-1.24,44.33-3.55,4.61-14.43,4.61c-11.14,0-14.69-3.11-14.51-4.67.61-5.39-2.27-43.95-2-45.76s10.34-5.51,10.34-5.51Z" transform="translate(-9.34 -12.08)" fill="url(#linear-gradient-2)"/><path d="M333.24,165.11l-5.61,20.42-3.72-1.19,5.43-20.51c.26-1,.6-1.24,1.48-.72C330.82,163.11,333.41,164.45,333.24,165.11Z" transform="translate(-9.34 -12.08)" fill="#3f3d56"/><path d="M313.79,161.4,310.48,183l-3.73-.21,3.06-19.68C310,162.17,313.89,160.74,313.79,161.4Z" transform="translate(-9.34 -12.08)" fill="#3f3d56"/><path d="M328.22,190.14l-.44-5.95S320,182.4,315.58,182a25.91,25.91,0,0,0-8.83.86l-.54,31.41s1,2.83,5.21,3.57,19.78-1.49,19.78-1.49Z" transform="translate(-9.34 -12.08)" fill="#3f3d56"/><path d="M335.91,212.5s.81,6.32-.74,32c-1.45,23.9-1.86,40.63-1.86,40.63s-.16,2-4.27,2-5.21-2.66-5.21-2.66l-4-61.28L303,285.71s-4.94,2.84-8.79.71c-2.74-1.52,12.72-74,12.72-74A34.11,34.11,0,0,0,335.91,212.5Z" transform="translate(-9.34 -12.08)" fill="#3f3d56"/><path d="M335.91,212.5s.81,6.32-.74,32c-1.45,23.9-1.86,40.63-1.86,40.63s-.16,2-4.27,2-5.21-2.66-5.21-2.66l-4-61.28L303,285.71s-4.94,2.84-8.79.71c-2.74-1.52,12.72-74,12.72-74A34.11,34.11,0,0,0,335.91,212.5Z" transform="translate(-9.34 -12.08)" fill="url(#linear-gradient-3)"/><path d="M328.22,190.14l-.44-5.95S320,182.4,315.58,182a25.91,25.91,0,0,0-8.83.86l-.54,31.41s1,2.83,5.21,3.57,19.78-1.49,19.78-1.49Z" transform="translate(-9.34 -12.08)" fill="#3f3d56"/><path d="M328.22,190.14l-.44-5.95S320,182.4,315.58,182a25.91,25.91,0,0,0-8.83.86l-.54,31.41s1,2.83,5.21,3.57,19.78-1.49,19.78-1.49Z" transform="translate(-9.34 -12.08)" fill="url(#linear-gradient-4)"/><path d="M325.93,154.53s.08,3.82,0,6.62c0,2.08-.75,6.08-5.18,6.08s-4.8-4.73-4.72-5.72c.05-.71,1.2-2.71,1.48-5C317.85,154.09,325.68,152.84,325.93,154.53Z" transform="translate(-9.34 -12.08)" fill="#f7ad7e"/><path d="M317.13,162.45a3.25,3.25,0,0,0,3.41,1.15,5.08,5.08,0,0,0,2.93-2.32,11.65,11.65,0,0,0,1.3-3.58,34.89,34.89,0,0,0,.7-4.17c0,.15-2.8,1.18-3.15,1.37a19.88,19.88,0,0,0-2.95,2,9.85,9.85,0,0,0-2.47,2.39A3.45,3.45,0,0,0,317.13,162.45Z" transform="translate(-9.34 -12.08)" fill="url(#linear-gradient-5)"/><path d="M334.42,167.58a1.73,1.73,0,0,1,2.17-.29,19,19,0,0,1,2.14,1.73c1.79,3.5,2.23,7.51,2.65,11.43l.89,8.49c.37,3.52.74,7.12-.1,10.56a31,31,0,0,1-3.06,7.11c-2.37,4.44-4.75,8.9-7.5,13.12a7.09,7.09,0,0,1-2.3,2.5c-1.69,1-3.8.47-5.68,0-.71-.19-1.55-.51-1.7-1.24a2.07,2.07,0,0,1,.28-1.22l10.34-22.57a8,8,0,0,0,.74-2.1,8.35,8.35,0,0,0-.12-2.54q-.89-5.93-1.22-11.92a16.84,16.84,0,0,1,.68-6.88C333.2,172.22,333.25,168.69,334.42,167.58Z" transform="translate(-9.34 -12.08)" fill="#68e1fd"/><path d="M334.42,167.58a1.73,1.73,0,0,1,2.17-.29,19,19,0,0,1,2.14,1.73c1.79,3.5,2.23,7.51,2.65,11.43l.89,8.49c.37,3.52.74,7.12-.1,10.56a31,31,0,0,1-3.06,7.11c-2.37,4.44-4.75,8.9-7.5,13.12a7.09,7.09,0,0,1-2.3,2.5c-1.69,1-3.8.47-5.68,0-.71-.19-1.55-.51-1.7-1.24a2.07,2.07,0,0,1,.28-1.22l10.34-22.57a8,8,0,0,0,.74-2.1,8.35,8.35,0,0,0-.12-2.54q-.89-5.93-1.22-11.92a16.84,16.84,0,0,1,.68-6.88C333.2,172.22,333.25,168.69,334.42,167.58Z" transform="translate(-9.34 -12.08)" fill="url(#linear-gradient-6)"/><path d="M285.24,208.53c-1.81.77-3.88,1.27-5.13,2.78a1.49,1.49,0,0,0-.31,1.78,1.73,1.73,0,0,0,1.17.49c2.26.34,4.53.68,6.82.82a6.76,6.76,0,0,0,3-.31,7.18,7.18,0,0,0,2.07-1.49,10.18,10.18,0,0,0,2-2.29,3.72,3.72,0,0,0,.47-2.93c-.52-1.7-3.09-3.15-4.81-2.47-.75.3-1.26,1.12-1.87,1.63A13.13,13.13,0,0,1,285.24,208.53Z" transform="translate(-9.34 -12.08)" fill="#f7ad7e"/><path d="M318.73,219.57c-.82.61-1.68,1.53-1.36,2.5s1.47,1.2,2.45,1.32c2.75.33,5.79.59,8.06-1a2.83,2.83,0,0,0,.72-.66,3.09,3.09,0,0,0,.39-2.18,5,5,0,0,0-1-2.49C325.84,214.36,320.8,218,318.73,219.57Z" transform="translate(-9.34 -12.08)" fill="#f7ad7e"/><path d="M333.58,292.37a2.62,2.62,0,0,1-1,2.58,3.31,3.31,0,0,1-1.74.29l-8.63-.12a2,2,0,0,1-1-.2c-.65-.4-.58-1.38-.32-2.1a7.62,7.62,0,0,1,1.28-2.25c.8-1,1.86-1.8,2.27-3a7.26,7.26,0,0,1,.65-2,3,3,0,0,1,2.79-.82c1.7.19,3.27.48,4,2A19.17,19.17,0,0,1,333.58,292.37Z" transform="translate(-9.34 -12.08)" fill="#3f3d56"/><path d="M300.41,285.92s-.15,7.73-1.19,8.18-18,.44-18,.44-1-1.93,1.64-3,10.56-2.08,12.64-5.06S300.41,285.92,300.41,285.92Z" transform="translate(-9.34 -12.08)" fill="#3f3d56"/><rect x="258.62" y="204.71" width="26.55" height="19.19" transform="translate(534.44 416.53) rotate(-180)" fill="#68e1fd"/><rect x="258.62" y="204.71" width="26.55" height="19.19" transform="translate(534.44 416.53) rotate(-180)" fill="url(#linear-gradient-7)"/><path d="M82.6,212.36s-.81,6.31.74,32C84.79,268.22,85.2,285,85.2,285s.16,2,4.28,2,5.2-2.66,5.2-2.66l4-61.28,16.77,62.54s4.94,2.84,8.8.71c2.73-1.51-12.73-74-12.73-74A34.13,34.13,0,0,1,82.6,212.36Z" transform="translate(-9.34 -12.08)" fill="#3f3d56"/><path d="M113.57,166.53l.36,1.59c1.19,5.29,3.62,24.3,6.11,26.63s7.54,7.27,9.4,10.26c.65,1-2.78,9.26-7.69,5.69-2.77-2-10.53-10.51-11-11.82a12.78,12.78,0,0,1-.57-5.46Z" transform="translate(-9.34 -12.08)" fill="#68e1fd"/><path d="M113.57,166.53l.36,1.59c1.19,5.29,3.62,24.3,6.11,26.63s7.54,7.27,9.4,10.26c.65,1-2.78,9.26-7.69,5.69-2.77-2-10.53-10.51-11-11.82a12.78,12.78,0,0,1-.57-5.46Z" transform="translate(-9.34 -12.08)" fill="url(#linear-gradient-8)"/><path d="M92.55,161s-10.94,5.28-11.19,7,1.24,44.34,1.24,44.34S86.15,217,97,217c11.15,0,14.69-3.11,14.51-4.67-.61-5.39,2.28-43.94,2-45.76S103.23,161,103.23,161Z" transform="translate(-9.34 -12.08)" fill="#68e1fd"/><path d="M92.55,161s-10.94,5.28-11.19,7,1.24,44.34,1.24,44.34S86.15,217,97,217c11.15,0,14.69-3.11,14.51-4.67-.61-5.39,2.28-43.94,2-45.76S103.23,161,103.23,161Z" transform="translate(-9.34 -12.08)" fill="url(#linear-gradient-9)"/><path d="M85.53,164.86l5.36,20.52,3.72-1.19-5.44-20.51a1.53,1.53,0,0,0-2.25-.93l-.68.4A1.53,1.53,0,0,0,85.53,164.86Z" transform="translate(-9.34 -12.08)" fill="#3f3d56"/><path d="M104.9,162.5,108,182.89l3.73-.22-3.2-20.39a1.74,1.74,0,0,0-2.1-1.41l-.7.21A1.23,1.23,0,0,0,104.9,162.5Z" transform="translate(-9.34 -12.08)" fill="#3f3d56"/><path d="M90.29,190l.45-6s7.73-1.79,12.19-2.23a25.86,25.86,0,0,1,8.83.86l.54,31.41s-1,2.83-5.2,3.57-19.78-1.49-19.78-1.49Z" transform="translate(-9.34 -12.08)" fill="#3f3d56"/><path d="M82.6,212.36s-.81,6.31.74,32C84.79,268.22,85.2,285,85.2,285s.16,2,4.28,2,5.2-2.66,5.2-2.66l4-61.28,16.77,62.54s4.94,2.84,8.8.71c2.73-1.51-12.73-74-12.73-74A34.13,34.13,0,0,1,82.6,212.36Z" transform="translate(-9.34 -12.08)" fill="#3f3d56"/><path d="M82.6,212.36s-.81,6.31.74,32C84.79,268.22,85.2,285,85.2,285s.16,2,4.28,2,5.2-2.66,5.2-2.66l4-61.28,16.77,62.54s4.94,2.84,8.8.71c2.73-1.51-12.73-74-12.73-74A34.13,34.13,0,0,1,82.6,212.36Z" transform="translate(-9.34 -12.08)" fill="url(#linear-gradient-10)"/><path d="M90.29,190l.45-6s7.73-1.79,12.19-2.23a25.86,25.86,0,0,1,8.83.86l.54,31.41s-1,2.83-5.2,3.57-19.78-1.49-19.78-1.49Z" transform="translate(-9.34 -12.08)" fill="#3f3d56"/><path d="M90.29,190l.45-6s7.73-1.79,12.19-2.23a25.86,25.86,0,0,1,8.83.86l.54,31.41s-1,2.83-5.2,3.57-19.78-1.49-19.78-1.49Z" transform="translate(-9.34 -12.08)" fill="url(#linear-gradient-11)"/><path d="M92.59,154.38s-.08,3.82,0,6.62c0,2.08.75,6.08,5.19,6.08s5-5.09,4.87-6.08a26.24,26.24,0,0,0,0-4.44C102.32,154.12,92.84,152.69,92.59,154.38Z" transform="translate(-9.34 -12.08)" fill="#bb826c"/><path d="M106,140.91s-1.11,3.39-.08,5c3.81,6,1.64,5.37.22,5.5-.18,0,.07,1.15-.44,3.35-.41,1.73.81,5.68-4.53,4-1.52-.47-8.93-2.55-9.46-7.14-.66-5.73-4.17-13,2.76-15.42C102.8,133.32,105.51,135.58,106,140.91Z" transform="translate(-9.34 -12.08)" fill="#bb826c"/><path d="M102.23,132.93s3.81.28,5.11,1.72c1.62,1.79,1.9,3.76.21,5.36s-6.1.07-9.18,2,.2,6.8-1.34,7.85-.62-2.11-2.65-2.91-2.87,2.63-.73,5.15.13,4.14-1.25,4.56-4.75-10.94-4.47-15.14,2.31-4.14,2.31-4.14S90.31,130.9,102.23,132.93Z" transform="translate(-9.34 -12.08)" fill="#3f3d56"/><path d="M102.71,159.15s-5.41-2-7.85-3.12c0,0,5.09,4.84,7.72,4.8Z" transform="translate(-9.34 -12.08)" fill="#ad7862"/><path d="M84.09,167.43a1.72,1.72,0,0,0-2.16-.29,17.38,17.38,0,0,0-2.14,1.73c-1.8,3.5-2.24,7.51-2.65,11.43l-.9,8.49c-.37,3.52-.73,7.12.1,10.56a30.79,30.79,0,0,0,3.06,7.11c2.37,4.45,4.75,8.9,7.5,13.12a7.28,7.28,0,0,0,2.3,2.5c1.7,1,3.8.47,5.68,0,.71-.19,1.55-.51,1.7-1.23a2,2,0,0,0-.27-1.22L86,197a6.14,6.14,0,0,1-.61-4.64c.58-4,1-7.93,1.21-11.91a16.87,16.87,0,0,0-.67-6.89C85.31,172.07,85.27,168.54,84.09,167.43Z" transform="translate(-9.34 -12.08)" fill="#68e1fd"/><path d="M84.09,167.43a1.72,1.72,0,0,0-2.16-.29,17.38,17.38,0,0,0-2.14,1.73c-1.8,3.5-2.24,7.51-2.65,11.43l-.9,8.49c-.37,3.52-.73,7.12.1,10.56a30.79,30.79,0,0,0,3.06,7.11c2.37,4.45,4.75,8.9,7.5,13.12a7.28,7.28,0,0,0,2.3,2.5c1.7,1,3.8.47,5.68,0,.71-.19,1.55-.51,1.7-1.23a2,2,0,0,0-.27-1.22L86,197a6.14,6.14,0,0,1-.61-4.64c.58-4,1-7.93,1.21-11.91a16.87,16.87,0,0,0-.67-6.89C85.31,172.07,85.27,168.54,84.09,167.43Z" transform="translate(-9.34 -12.08)" fill="url(#linear-gradient-12)"/><path d="M133.28,208.39c1.81.76,3.87,1.26,5.13,2.77.41.5.71,1.27.3,1.78a1.71,1.71,0,0,1-1.16.49c-2.27.34-4.54.68-6.83.82a6.72,6.72,0,0,1-3-.31,7.09,7.09,0,0,1-2.08-1.49,10.18,10.18,0,0,1-2-2.29,3.76,3.76,0,0,1-.47-2.93c.53-1.7,3.09-3.15,4.81-2.46.75.3,1.27,1.11,1.87,1.62A13.51,13.51,0,0,0,133.28,208.39Z" transform="translate(-9.34 -12.08)" fill="#bb826c"/><path d="M99.79,219.42c.81.61,1.67,1.53,1.36,2.5s-1.48,1.21-2.46,1.32c-2.75.33-5.78.59-8.06-1a2.62,2.62,0,0,1-.71-.66,3,3,0,0,1-.39-2.18,5,5,0,0,1,1-2.49C92.67,214.22,97.72,217.88,99.79,219.42Z" transform="translate(-9.34 -12.08)" fill="#bb826c"/><rect x="46.74" y="211.22" width="299.19" height="23.2" rx="11.6" fill="#68e1fd"/><rect x="50.61" y="215.3" width="290.46" height="14.96" rx="7.48" fill="url(#linear-gradient-13)"/><rect x="154.79" y="126" width="80.98" height="154.6" fill="#68e1fd"/><rect x="154.79" y="126" width="80.98" height="154.6" fill="url(#linear-gradient-14)"/><path d="M84.93,292.22a2.64,2.64,0,0,0,1,2.58,3.35,3.35,0,0,0,1.75.29l8.62-.12a2,2,0,0,0,1-.2c.66-.4.59-1.37.32-2.1a7.59,7.59,0,0,0-1.27-2.25c-.8-1-1.87-1.8-2.28-3a6.93,6.93,0,0,0-.64-2,3,3,0,0,0-2.8-.82c-1.7.19-3.26.49-4,2A18.74,18.74,0,0,0,84.93,292.22Z" transform="translate(-9.34 -12.08)" fill="#3f3d56"/><path d="M118.1,285.77s.15,7.73,1.19,8.18,18,.44,18,.44,1-1.93-1.64-3-10.56-2.08-12.64-5.06S118.1,285.77,118.1,285.77Z" transform="translate(-9.34 -12.08)" fill="#3f3d56"/><polygon points="154.79 126 171.49 109.31 217.48 109.31 235.78 126 154.79 126" fill="#68e1fd"/><polygon points="154.79 126 171.49 109.31 217.48 109.31 235.78 126 154.79 126" fill="url(#linear-gradient-15)"/><rect x="171.56" y="62.49" width="45.92" height="46.81" fill="#68e1fd"/><rect x="171.56" y="62.49" width="45.92" height="46.81" fill="url(#linear-gradient-16)"/><rect x="171.56" y="16.09" width="45.92" height="46.81" fill="#68e1fd"/><rect x="171.56" y="16.09" width="45.92" height="46.81" fill="url(#linear-gradient-17)"/><path d="M226.82,12.47V28.59H180.9V12.34c6.73-.23,13.48-.24,20.2-.25C209.65,12.07,218.27,12.07,226.82,12.47Z" transform="translate(-9.34 -12.08)" fill="#68e1fd"/><path d="M226.82,12.47V28.59H180.9V12.34c6.73-.23,13.48-.24,20.2-.25C209.65,12.07,218.27,12.07,226.82,12.47Z" transform="translate(-9.34 -12.08)" fill="url(#linear-gradient-18)"/><rect x="124.01" y="192.48" width="26.55" height="19.19" fill="#68e1fd"/><rect x="124.01" y="192.48" width="26.55" height="19.19" fill="url(#linear-gradient-19)"/><rect x="249.27" y="192.48" width="26.55" height="19.19" fill="#68e1fd"/><rect x="249.27" y="192.48" width="26.55" height="19.19" fill="url(#linear-gradient-20)"/><rect x="161.26" y="135.82" width="68.71" height="53.09" fill="url(#linear-gradient-21)"/><rect x="161.26" y="195.6" width="68.71" height="53.09" fill="url(#linear-gradient-22)"/><rect x="161.26" y="255.39" width="68.71" height="25.13" fill="url(#linear-gradient-23)"/><path d="M314.35,156.11c.73,1.74,2,3.53,3.83,3.84a5.66,5.66,0,0,0,4.12-1.39,10.94,10.94,0,0,0,4.12-5.36,14.33,14.33,0,0,0,.5-3.64,16,16,0,0,0-.48-5.56,6.27,6.27,0,0,0-3.55-4.09,8.26,8.26,0,0,0-2.27-.4,11.73,11.73,0,0,0-3.55.19,7.34,7.34,0,0,0-3.7,2.2c-1.23,1.33-1.1,2.14-1,3.83A31.91,31.91,0,0,0,314.35,156.11Z" transform="translate(-9.34 -12.08)" fill="#f7ad7e"/><path d="M329,147.31c-.17.83-.42,1.65-.61,2.48a14.7,14.7,0,0,0-.29,1.88,15.48,15.48,0,0,0,.07,3.47,5.83,5.83,0,0,1-1.21-1.22,9.52,9.52,0,0,1-.93,1.52c-.13-1.38-.26-2.75-.4-4.13a.49.49,0,0,1,0-.24c0-.13.14-.2.24-.29a.46.46,0,0,0,.07-.07,2.29,2.29,0,0,0,.39-2.7,1.18,1.18,0,0,0-.78.43,2.6,2.6,0,0,0-.6,1.35.94.94,0,0,1-.15.49.32.32,0,0,1-.46,0,.65.65,0,0,1-.06-.24,8.23,8.23,0,0,0-.81-4,19.56,19.56,0,0,1-9.12-.61c-.66-.21-2.6-.35-3.09-.83-1.78-1.73-.54-3.15,0-5l.06-.17s0,0,0,0c.75-2,4.24-4,6.16-4.4a7.36,7.36,0,0,1,5.35,1.08l.15-.85a3.76,3.76,0,0,1,2.24,2.38.46.46,0,0,0,.16.28.54.54,0,0,0,.25.06,3,3,0,0,1,2.05,1.16,6.23,6.23,0,0,1,1,2.17A12.56,12.56,0,0,1,329,147.31Z" transform="translate(-9.34 -12.08)" fill="#fece00"/><path d="M329,147.31c-.17.83-.42,1.65-.61,2.48a14.7,14.7,0,0,0-.29,1.88l-.25-.32a29.85,29.85,0,0,1-1.35,3.24c0-.52-.26-2.08-.54-3.88a2.29,2.29,0,0,0,.39-2.7,1.18,1.18,0,0,0-.78.43c0-.07,0-.15,0-.22-.45-2.54,1.52-4.78-5.23-4.42a14.64,14.64,0,0,1-5-.88c-.65-.21-2.59-.34-3.08-.82a2.51,2.51,0,0,1-.83-2.62s0,0,0,0c.75-2,4.24-4,6.16-4.4a7.36,7.36,0,0,1,5.35,1.08l.15-.85a3.76,3.76,0,0,1,2.24,2.38.46.46,0,0,0,.16.28.54.54,0,0,0,.25.06,3,3,0,0,1,2.05,1.16,6.23,6.23,0,0,1,1,2.17A12.56,12.56,0,0,1,329,147.31Z" transform="translate(-9.34 -12.08)" fill="url(#linear-gradient-24)"/></svg>