<svg id="Layer_1" data-name="Layer 1" xmlns="http://www.w3.org/2000/svg" xmlns:xlink="http://www.w3.org/1999/xlink" viewBox="0 0 311.97 344.63"><defs><linearGradient id="linear-gradient" x1="166.39" y1="246.76" x2="114.66" y2="183.79" gradientUnits="userSpaceOnUse"><stop offset="0.01"/><stop offset="0.12" stop-opacity="0.75"/><stop offset="1" stop-opacity="0"/></linearGradient><linearGradient id="linear-gradient-2" x1="250.34" y1="207.44" x2="126.68" y2="141.25" xlink:href="#linear-gradient"/><linearGradient id="linear-gradient-3" x1="173.63" y1="122.97" x2="246.53" y2="118.29" gradientTransform="translate(-11.22 47.51) rotate(-0.8)" xlink:href="#linear-gradient"/><linearGradient id="linear-gradient-4" x1="208.2" y1="73.9" x2="215.37" y2="129.14" xlink:href="#linear-gradient"/></defs><title>Marketing</title><path d="M254.62,7.46A511.58,511.58,0,0,0,162,1.94c-12.21.39-24.57,1.24-36.16,5.1C116.56,10.14,108,15.11,100,20.76c-9.22,6.5-17.91,14.13-23.64,23.84C66.69,61,66.55,81.25,69,100.12s7.1,37.64,6.1,56.64C72.86,198.87,43,238.07,50,279.65c3,17.67,12.48,33.58,23.21,47.94,3.92,5.25,8.19,10.5,14,13.63,4.32,2.35,9.24,3.36,14.11,4,30.89,4.16,62-5,93.14-5.38,20.78-.26,41.41,3.37,62.17,4.27s42.45-1.21,60.28-11.88c11.7-7,21.06-17.29,29.27-28.18,6.68-8.86,12.88-18.63,14.38-29.63,1.05-7.66-.25-15.42-1.54-23L343.14,158c-2.3-13.54-4.61-27.24-3.75-41,.56-9,2.39-18.4-1.3-26.58-4.91-10.85-17.57-15.45-28.94-19-9.25-2.85-16-13.14-18.42-22.52s-2.7-19.33-6.48-28.25S264.18,8.91,254.62,7.46Z" transform="translate(-48.97 -1.69)" fill="#68e1fd" opacity="0.18" style="isolation:isolate"/><ellipse cx="187.03" cy="297.92" rx="61.35" ry="13.92" fill="#68e1fd" opacity="0.14"/><rect x="58.41" y="226.65" width="180.06" height="3.8" fill="#fff"/><g opacity="0.49" style="isolation:isolate"><rect x="74.44" y="76.35" width="23.4" height="150.73" fill="#68e1fd"/><rect x="117.45" y="107.48" width="23.4" height="119.6" fill="#68e1fd"/><path d="M140.06,195.38a26.85,26.85,0,0,1,6.75,1.34v25.14c-1-.45-2-.92-2.94-1.4-5.29-2.63-11.2-5.83-16.75-3.82a24.31,24.31,0,0,1-3.71,1.28,3,3,0,0,1-2.61-.54c-2.17-1.83.09-5.16,1.69-7.5.33-.49.64-1,.92-1.52,1.55-2.84,2.5-6.05,4.62-8.5C130.92,196.5,135.63,195.14,140.06,195.38Z" transform="translate(-48.97 -1.69)" fill="url(#linear-gradient)"/><path d="M189.82,109.17v119.6H168.23l-1.81-.38V206.23c.94.56,1.89,1.14,2.81,1.73,2.14,1.35,4.76,2.81,7,1.71,1.71-.83,2.49-2.83,2.91-4.69,1.94-8.64-.63-17.57-1-26.41a53,53,0,0,1,4-22.32c1.48-3.53,3.34-6.9,4.5-10.55a58.63,58.63,0,0,0,2-11.35c.38-3.58.76-7.26-.14-10.74a19.67,19.67,0,0,0-4.13-7.55c-1-1.2-5.42-4.18-5.44-5.7a2,2,0,0,1,.34-1.19Z" transform="translate(-48.97 -1.69)" fill="url(#linear-gradient-2)"/><rect x="158.56" y="42.59" width="23.4" height="184.49" fill="#68e1fd"/><rect x="201.57" y="80.69" width="23.4" height="146.39" fill="#68e1fd"/></g><path d="M136.94,202.62a2,2,0,0,0-1.27-3.12c-3.3-.73-8.28-1.84-8.49-1.91s-.64,1.09-.64,1.09l2,1.49s-1.67,4-4.68,5.47-7.2,10.58-5,12.17c1.58,1.15,3.14.17,8.16-4a54.33,54.33,0,0,0,8.1-8.33Z" transform="translate(-48.97 -1.69)" fill="#68e1fd"/><path d="M230.89,288.56a2,2,0,0,0-2.39,2.37c.6,3.33,1.5,8.35,1.52,8.58s1.25.16,1.25.16l.61-2.39s4.36,0,6.85,2.21,12.55,2.55,13.17-.07c.45-1.9-1.05-3-6.84-6a54.19,54.19,0,0,0-10.81-4.26Z" transform="translate(-48.97 -1.69)" fill="#68e1fd"/><path d="M241.24,102.49a5.52,5.52,0,0,1,4.52-6.1c4.63-.9,12.9-3.48,15.3-10.65,3.39-10.14,9.51-2.38,10.07-1.41,1.81,3.16,9.17,24.6-.66,25.24,0,0-2.58,1.38-6.61-3.69-3.1-3.92-12.65-1.38-16.83,0a4.41,4.41,0,0,1-5.63-2.71A4.54,4.54,0,0,1,241.24,102.49Z" transform="translate(-48.97 -1.69)" fill="#68e1fd"/><ellipse cx="269.42" cy="94.71" rx="4.49" ry="13.56" transform="translate(-63.06 58.67) rotate(-12.46)" fill="#193f56"/><path d="M227.91,217.23l.65,8.81,2.34,31.87,1.23,16.8c.41,5.52-.48,11.52,4.24,15.43a18.79,18.79,0,0,0,3.52,2.21,3.94,3.94,0,0,1,1.52,1.11,1.31,1.31,0,0,1-.09,1.73,1.78,1.78,0,0,1-1,.3,29.71,29.71,0,0,1-8.42-.37c-2.64-.5-3.24-6.06-4.09-8.7-1.36-4.2-2.66-8.43-3.86-12.68-2.09-7.4-5.42-16.47-4.41-24.28a66.07,66.07,0,0,0,.22-16.73l-7.71-15.58Z" transform="translate(-48.97 -1.69)" fill="#f7ad7e"/><path d="M192.66,235l-4.74-2.47L162.27,219.2l-14.37-7.48-6.14-3.2c-2.29-1.19-4.12-2.79-6.74-1.59-1,.45-4.3,3.88-5.35,4.25-1.3.45-1.92-.09-3.25-.46-.34-.1-.73-.28-.81-.62a28.94,28.94,0,0,1,1.64-2.88,14.86,14.86,0,0,1,2.32-3.44l1.92-2.34a3.59,3.59,0,0,1,1-1c1.3-.67,5.65.9,7,1.18,3.84.79,7.68,1.63,11.49,2.54,5.09,1.21,10.17,2.52,15.15,4.13,3.6,1.16,7.63,2.37,10.7,4.68a65.59,65.59,0,0,0,14.42,8.47l18.5-2.12-5.93,12A8.26,8.26,0,0,1,192.66,235Z" transform="translate(-48.97 -1.69)" fill="#f7ad7e"/><path d="M221.89,107.58a11.36,11.36,0,0,1,5.26,5.4c2,4.08,11.86,21.67,11.86,21.67l11.3-19.13c.88-1.5,1.84-2.82,1-4.66a12.35,12.35,0,0,0-1.43-1.89,4.53,4.53,0,0,1-.37-4.55,2.22,2.22,0,0,1,.64-.81,2.45,2.45,0,0,1,.73-.3,12,12,0,0,1,4.3-.39,2.16,2.16,0,0,1,2.46,1.86,10.85,10.85,0,0,1-.09,5.13c-.46,1.77-1.59,3-2.28,4.57-.55,1.26-.85,2.76-1.3,4.07-1.49,4.33-3,8.64-4.65,12.91-1.18,3.08-2.38,6.16-3.78,9.14-.52,1.1-1.45,3.94-2.79,4.37-2.8.91-4.62-.15-6.37-1.57s-11.6-15.4-11.6-15.4Z" transform="translate(-48.97 -1.69)" fill="#f7ad7e"/><path d="M206.53,104.22s-3.14,2.29-9.84,2c0,0-2.48,8.36-1.77,12.88s5.91,18.22.33,31.56-14.49,14.32-6.64,40.15,5,30.76,5,30.76l35,.81s-7.66-63.44-6.27-67.2c0,0-.45-11.09,1.31-19.33a63.3,63.3,0,0,0,1.7-12.56l-3.53-15.66Z" transform="translate(-48.97 -1.69)" fill="#68e1fd"/><path d="M193.64,221.52s2.82-4.93-5-30.77,1.07-26.81,6.65-40.14.38-27-.34-31.56,1.77-12.89,1.77-12.89c.43,0,.86,0,1.26,0-.36,2.22-1.25,8.61-.28,12.22,1.18,4.44,7.78,17.5,3.63,31.34s-12.92,15.77-2.4,40.63,8.23,30.07,8.23,30.07l21.11-1.73c.27,2.28.43,3.6.43,3.6Z" transform="translate(-48.97 -1.69)" fill="url(#linear-gradient-3)"/><path d="M219.56,72.17a7.85,7.85,0,0,1,5.75,8.61A37.5,37.5,0,0,1,224,88.39a16.76,16.76,0,0,0-.35,7.67,5.86,5.86,0,0,0,2.68,3.86.63.63,0,0,1,.32.26.59.59,0,0,1-.07.46,6.69,6.69,0,0,1-6.1,3.81,2.45,2.45,0,0,1-1.91,2.08,8.56,8.56,0,0,1-3,.08c-4.76-.32-9.68.6-14.21-.85a6.49,6.49,0,0,1-1.86-.88,8.86,8.86,0,0,0-1.33-1,6.08,6.08,0,0,0-1.46-.34,7.35,7.35,0,0,1-3.51-1.67,2.58,2.58,0,0,1-1-1.63c-.08-1,.82-1.81,1.6-2.47,3.38-2.87,6.07-6.83,6.42-11.25.14-1.68-.07-3.37-.05-5.06,0-3.66,1.58-6.3,5.26-7.16,2.94-.69,5.48-2.36,8.52-2.7A13.79,13.79,0,0,1,219.56,72.17Z" transform="translate(-48.97 -1.69)" fill="#984e45"/><path d="M218.08,77.82a5.88,5.88,0,0,1,2.12,1.33,8.28,8.28,0,0,1,1.88,5.79,37,37,0,0,1-.92,6.28,16.29,16.29,0,0,0-.23,6.33,4.93,4.93,0,0,0,1.86,3.19.45.45,0,0,1,.22.21.56.56,0,0,1,0,.38,4.6,4.6,0,0,1-4.22,3.14,1.92,1.92,0,0,1-1.32,1.71,5,5,0,0,1-2.08.07c-3.29-.28-6.7.47-9.85-.74a4.34,4.34,0,0,1-1.29-.72,5.4,5.4,0,0,0-.92-.81,3.88,3.88,0,0,0-1-.28,4.84,4.84,0,0,1-2.43-1.39,2.25,2.25,0,0,1-.7-1.34,2.83,2.83,0,0,1,1.1-2,14.79,14.79,0,0,0,4.43-9.28c.09-1.38-.05-2.78,0-4.18,0-3,1.08-5.19,3.63-5.9,2-.56,3.79-1.94,5.9-2.21A8.05,8.05,0,0,1,218.08,77.82Z" transform="translate(-48.97 -1.69)" fill="url(#linear-gradient-4)"/><path d="M213.81,101.41a6.37,6.37,0,0,0,1.34,3.75c.5.59,1.13,1,1.58,1.68A2,2,0,0,1,217,109a2.15,2.15,0,0,1-1.24.75c-2.26.62-4.65-.33-6.74-1.39-1.21-.62-2.4-1.29-3.57-2-.18-.1-.37-.24-.38-.44a.59.59,0,0,1,.2-.4,17.7,17.7,0,0,0,1.29-1.31,6.55,6.55,0,0,0,.94-3.66q.19-2.85.63-5.67a2.27,2.27,0,0,1,.6-1.45,1.68,1.68,0,0,1,1.13-.33,3.74,3.74,0,0,1,2.66,1.38,7.47,7.47,0,0,1,1.51,3C214.28,98.66,213.74,100.13,213.81,101.41Z" transform="translate(-48.97 -1.69)" fill="#f7ad7e"/><path d="M220.19,87.5c.06,2.94,0,6-1.52,8.58a5.14,5.14,0,0,1-3.11,2.55c-2.08.49-4.11-.89-5.7-2.31a14.25,14.25,0,0,1-2.2-2.39c-1.77-2.57-2-5.9-1.82-9a7,7,0,0,1,1.29-4.36,7.57,7.57,0,0,1,2.73-1.71A14.08,14.08,0,0,1,215,77.33C220.9,77.14,220.11,83.37,220.19,87.5Z" transform="translate(-48.97 -1.69)" fill="#f7ad7e"/><path d="M212.47,83.18c-1.21.09-2.62,0-3.43.89-1.09,1.21-.24,3.15-.66,4.72l-.86-1.69c-.86.07-1.31,1.16-1.1,2a7.23,7.23,0,0,0,1.32,2.23,5.38,5.38,0,0,1,.36,3.56c-.38,1-1.63.15-2.37-.6a3.11,3.11,0,0,1-.65-1.31,27.49,27.49,0,0,1-1.47-6.6,10,10,0,0,1,1.62-6.45,9.38,9.38,0,0,1,5-3.35,18.25,18.25,0,0,1,6-.61c.92,0,2.59.11,3.22.92s-.24,2.08-.84,2.88A8.59,8.59,0,0,1,212.47,83.18Z" transform="translate(-48.97 -1.69)" fill="#984e45"/><path d="M198.64,114.68s1.86,8.84-8,.54c-6.56-5.52-23.23-16.48-23.23-16.48s-4-2.56-4-6.32,3.78-18,3.78-18-2.75-9.68-1.24-11.33c.44-.48.88-.94,1.28-1.34a1.47,1.47,0,0,1,2.43.57l.83,4.31A8.71,8.71,0,0,0,172,70.12l.45.62s.89-1.68,1.55-1.85,1.08,1.28,1.08,1.28-1.94,3.12-2,3.52-1.16,3.13-1.16,3.13.47,12.11-.24,13.6,25,15.75,25,15.75S197.58,106,198.64,114.68Z" transform="translate(-48.97 -1.69)" fill="#f7ad7e"/><path d="M252.32,111a8.4,8.4,0,0,0,3.4,4.57l3.65-3.33a9.63,9.63,0,0,1-3.29-3.12Z" transform="translate(-48.97 -1.69)" fill="#68e1fd"/></svg>