<svg id="Layer_1" data-name="Layer 1" xmlns="http://www.w3.org/2000/svg" xmlns:xlink="http://www.w3.org/1999/xlink" viewBox="0 0 411.82 331.58"><defs><linearGradient id="linear-gradient" x1="278.18" y1="153.71" x2="294.05" y2="153.71" gradientUnits="userSpaceOnUse"><stop offset="0.01"/><stop offset="0.83" stop-opacity="0.07"/><stop offset="1" stop-opacity="0"/></linearGradient><linearGradient id="linear-gradient-2" x1="63.02" y1="220.29" x2="134.98" y2="272.83" xlink:href="#linear-gradient"/><linearGradient id="linear-gradient-3" x1="176.45" y1="261.12" x2="141.42" y2="255.95" xlink:href="#linear-gradient"/><linearGradient id="linear-gradient-4" x1="301.95" y1="211.53" x2="303.32" y2="164.47" xlink:href="#linear-gradient"/><linearGradient id="linear-gradient-5" x1="303.17" y1="156.17" x2="305.09" y2="195.31" xlink:href="#linear-gradient"/><linearGradient id="linear-gradient-6" x1="352.58" y1="200.83" x2="269.88" y2="366.67" xlink:href="#linear-gradient"/><linearGradient id="linear-gradient-7" x1="320.47" y1="262.7" x2="316.03" y2="291.72" xlink:href="#linear-gradient"/><linearGradient id="linear-gradient-8" x1="321.66" y1="185.41" x2="238.97" y2="351.26" xlink:href="#linear-gradient"/><linearGradient id="linear-gradient-9" x1="305.25" y1="193.35" x2="300.46" y2="223.27" xlink:href="#linear-gradient"/><linearGradient id="linear-gradient-10" x1="297.05" y1="129.5" x2="308.71" y2="129.5" xlink:href="#linear-gradient"/><linearGradient id="linear-gradient-11" x1="314.94" y1="155.5" x2="330.81" y2="155.5" xlink:href="#linear-gradient"/><linearGradient id="linear-gradient-12" x1="4368.3" y1="-895.7" x2="4379.93" y2="-895.7" gradientTransform="matrix(-0.93, 0.37, 0.35, 0.86, 4492.67, -729.31)" xlink:href="#linear-gradient"/><linearGradient id="linear-gradient-13" x1="4387.58" y1="-861.94" x2="4403.45" y2="-861.94" gradientTransform="matrix(-1, 0, 0, 0.93, 4511.45, 971.65)" xlink:href="#linear-gradient"/><linearGradient id="linear-gradient-14" x1="195.6" y1="257.82" x2="203.14" y2="327.72" xlink:href="#linear-gradient"/><linearGradient id="linear-gradient-15" x1="161.55" y1="61.38" x2="213.63" y2="86.97" xlink:href="#linear-gradient"/><linearGradient id="linear-gradient-16" x1="174.33" y1="140.55" x2="173.11" y2="192.33" gradientTransform="translate(345.48 339.15) rotate(-179.37)" xlink:href="#linear-gradient"/><linearGradient id="linear-gradient-17" x1="251.89" y1="142.76" x2="250.98" y2="202.15" gradientTransform="translate(-3.59 5.45) rotate(-1.23)" xlink:href="#linear-gradient"/><linearGradient id="linear-gradient-18" x1="173.33" y1="130.3" x2="173.56" y2="165.25" xlink:href="#linear-gradient"/><linearGradient id="linear-gradient-19" x1="251.44" y1="129.79" x2="251.67" y2="164.74" xlink:href="#linear-gradient"/><linearGradient id="linear-gradient-20" x1="271.77" y1="55.31" x2="204.76" y2="92.78" xlink:href="#linear-gradient"/></defs><title>Radio Presenter</title><path d="M382.07,286.83c-23.26,16.6-52.66,21.62-81.05,25a1016,1016,0,0,1-191.57,4.5c-41.76-3-70.12-8-90.74-46.58C3.63,241.5-1.8,216.6,3.25,184.59c3.15-19.92,8.38-40.15,20.42-56.33C48.9,94.35,96.93,86.24,127.39,57c9.44-9.08,17-20.06,27.17-28.33C168.84,17,186.78,11.84,205.32,9.86q2.35-.27,4.71-.45c1.83-.14,3.66-.26,5.5-.35,1.57-.08,3.14-.13,4.71-.18q6-.17,12,0c24.71.45,50.38,3.6,71.16,16.94C328.58,42,342.77,70.54,353,98.65s18.13,57.76,35.49,82.14c7.37,10.35,16.44,19.75,21.19,31.52C420.43,238.81,405.34,270.24,382.07,286.83Z" transform="translate(-1.42 -8.79)" fill="#68e1fd" opacity="0.18" style="isolation:isolate"/><path d="M35.78,257.74A45.8,45.8,0,0,1,41,240.08c9.61-19,27.16-32.76,45.47-43.63s38-19.54,55.33-31.87c8.5-6.05,16.53-13,26.13-17.07,14-5.92,29.94-5.06,44.85-2.17,22.39,4.33,44.71,13.59,59.63,30.83,13.95,16.13,21.3,38.87,39.95,49.21,5.33,3,11.25,4.66,16.85,7A74.67,74.67,0,0,1,360.16,257c4.33,6,7.88,13.15,6.8,20.44-1,6.94-6.19,12.75-12.33,16.13-8.76,4.82-19.16,5.34-29.15,5.56-80.59,1.79-161.32-8.59-241.69-2.42-10.11.77-28.51,6.25-36-3.09C40.62,284.61,35.11,269.18,35.78,257.74Z" transform="translate(-1.42 -8.79)" fill="#68e1fd" opacity="0.18" style="isolation:isolate"/><ellipse cx="283.37" cy="153.86" rx="7.94" ry="9.02" fill="#68e1fd"/><ellipse cx="286.11" cy="153.71" rx="7.94" ry="9.02" fill="#68e1fd"/><ellipse cx="286.11" cy="153.71" rx="7.94" ry="9.02" fill="url(#linear-gradient)"/><path d="M116.84,193.25s-23.13,11.17-23.65,14.84,2.62,93.73,2.62,93.73,7.5,9.74,30.5,9.74c23.57,0,31.06-6.58,30.68-9.87-1.29-11.4,4.81-92.91,4.29-96.75s-21.86-11.64-21.86-11.64Z" transform="translate(-1.42 -8.79)" fill="#68e1fd"/><path d="M131.24,250.41s-27.87,5-29.6,3.26c-1.55-1.55-8.26-47-8.45-45.58-.38,2.63,1.14,45.88,2,70,14.3-4.33,44.23-19.51,44.23-19.51A32,32,0,0,0,131.24,250.41Z" transform="translate(-1.42 -8.79)" fill="url(#linear-gradient-2)"/><path d="M120.47,250.73a64.63,64.63,0,0,1,6.28-4.2c2.42-1.29,13.43-2.41,15.39-1.81s1.11,1.73-1.23,2.18-4.34-.05-4.85,1.36,2.6,4.3,2.4,6.77-.14,2.29-5.76,4.22-10.92,4.52-12.36.16S118.59,251.37,120.47,250.73Z" transform="translate(-1.42 -8.79)" fill="#f7ad7e"/><path d="M116.92,179.26s-.17,8.08-.08,14c.08,4.4,1.59,12.86,11,12.86s10.47-10.78,10.3-12.86c-.12-1.51.61-4.59,0-9.4C137.49,178.72,117.44,175.68,116.92,179.26Z" transform="translate(-1.42 -8.79)" fill="#f7ad7e"/><path d="M116.79,192.51a2.93,2.93,0,0,0-3.7,1.34c-1.41,2.36-1.5,7.09,0,13.54s2.75,8.11,2.75,8.11,6.15-8.7,10.47-9.05C126.31,206.45,117.8,204.78,116.79,192.51Z" transform="translate(-1.42 -8.79)" fill="#f3fcff"/><path d="M138.18,192.51a2.93,2.93,0,0,1,3.7,1.34c1.42,2.36,1.5,7.09,0,13.54s-2.75,8.11-2.75,8.11-6.15-8.7-10.47-9.05C128.66,206.45,137.18,204.78,138.18,192.51Z" transform="translate(-1.42 -8.79)" fill="#f3fcff"/><path d="M97.49,203.9a31.73,31.73,0,0,0-8.38,8.38c-3.67,5.41-9.72,50.8-6.92,63.1,1.18,5.2,44-14.22,44-14.22s-1-8.7-5.53-11.66c0,0-21,4.5-22.57,2.93S97.49,203.9,97.49,203.9Z" transform="translate(-1.42 -8.79)" fill="#68e1fd"/><path d="M145.44,150.75a27.21,27.21,0,0,1,.28,3.56c.06,3.87-.62,8.07,1.3,11.63.43.8,1,1.53,1.33,2.36a3.06,3.06,0,0,1,0,2.61c-.52.93-1.66,1.33-2.39,2.11a6.19,6.19,0,0,0-1.2,3.59c-.27,2.44-.35,4.81-.45,7.23a8.43,8.43,0,0,1-.68,3.4c-1.59,3.2-5.88,2.19-8.6,1.34-3.22-1-18.88-5.39-20-15.1-1.39-12.12-8.83-27.47,5.84-32.59,4.82-1.69,10.39-3.4,15.55-2.48,4.16.74,6.8,3.65,8,7.61A33.89,33.89,0,0,1,145.44,150.75Z" transform="translate(-1.42 -8.79)" fill="#f7ad7e"/><path d="M137.3,133.91s8.06.58,10.81,3.63c3.41,3.78,4,8,.45,11.34s-12.91.15-19.42,4.3.42,14.37-2.83,16.6-1.31-4.45-5.61-6.16-6,5.56-1.54,10.9.28,8.74-2.65,9.63-10-23.12-9.44-32S112,143.4,112,143.4,112.1,129.62,137.3,133.91Z" transform="translate(-1.42 -8.79)" fill="#3f3d56"/><path d="M138.32,189.33s-11.43-4.22-16.6-6.59c0,0,10.76,10.23,16.32,10.15Z" transform="translate(-1.42 -8.79)" fill="#ad7862"/><path d="M161.28,204.94s13.17,58.28,14,65.78-8.78,11.25-13.08,10c-9.53-2.69-8-19-8-19Z" transform="translate(-1.42 -8.79)" fill="#68e1fd"/><path d="M175,268.59l13.38,43.2-9.13,6.47s-19.33-27.59-20.87-35.8-2.08-19.46,6-19.24" transform="translate(-1.42 -8.79)" fill="#68e1fd"/><path d="M192.12,322.27c-.72-1.89-1.73-3.72-2.28-5.66-.34-1.2-.28-2.41-1.11-3.42-2.66-3.23-7.39-1.21-8.57,2.22a10.1,10.1,0,0,0,.49,6.88c.86,2.18,2.14,4.17,3.17,6.28a13.25,13.25,0,0,1,1.65,6.76,30.63,30.63,0,0,0-.41,3.55,1.76,1.76,0,0,0,.31,1.08c.62.76,1.85.32,2.63-.27C193.18,335.81,194.3,328,192.12,322.27Z" transform="translate(-1.42 -8.79)" fill="#f7ad7e"/><polygon points="177.71 310.95 175.06 306.98 185.96 299.92 189 304.23 177.71 310.95" fill="#f3fcff"/><path d="M122.58,247l5.12,14.75-4.35,2.4s-6.74-13.59-7.06-14.26S122.58,247,122.58,247Z" transform="translate(-1.42 -8.79)" fill="#f3fcff"/><polygon points="151.45 218.7 146.12 269.9 143.84 295.03 155.51 292.12 155.91 270.44 151.45 218.7" fill="url(#linear-gradient-3)"/><path d="M120.54,208.05s6,16.11,6.69,17.44,5.75-16.8,5.75-16.8,2-2.95-6.16-2.61A11,11,0,0,0,120.54,208.05Z" transform="translate(-1.42 -8.79)" fill="#f3fcff"/><path d="M156.92,300.9s-17.43,4.75-25.72,4.45-35.47-5.76-35.47-5.76-3,11.67-1.43,12.85,9.71.44,21.22.88,18.53,5.72,27.72,5.52,14.7-12.68,14.7-12.68Z" transform="translate(-1.42 -8.79)" fill="#f3fcff"/><path d="M233.24,197.8s1.21-9.9.27-12.21c-.84-2.08-1.84-7.43-3.21-7.43-2.46,0-.11,11.16-5.88,6.17-.92-.79-5.89-4.34-9.9-3.88a5.68,5.68,0,0,0-4.82,7c.81,2.28,5.94,6.87,9,9s6.21,5.13,7.33,7.86" transform="translate(-1.42 -8.79)" fill="#f6c8c9"/><path d="M288,135.47s-6.56,5.72-6.51,14-.44,30.6-.78,37.74.9,17.26,3.64,18.83,19.67,4.4,29.7,2.47,11.42-8.39,11.42-16,.67-36.06.67-41.43-1.24-15.19-10.8-18.61C309.57,130.43,295.3,129.82,288,135.47Z" transform="translate(-1.42 -8.79)" fill="#ff979a"/><path d="M284.73,190.51a30,30,0,0,0-1,6.84,8,8,0,0,0,2.7,6.13c1.82,1.41,4.28,1.59,6.59,1.67q7.16.27,14.33.06a18.88,18.88,0,0,0,4.56-.52c4.73-1.34,7.81-6.12,8.8-10.94s.35-9.8.11-14.72c-.2-4.29-.1-8.63-1.06-12.82a8.7,8.7,0,0,0-1.77-3.93c-1.59-1.77-4.16-2.22-6.53-2.52-6.57-.82-13.4-1.24-19.68.86a11.18,11.18,0,0,0-4.46,2.5c-3,3-1,8.52-1,12.32A74.79,74.79,0,0,1,284.73,190.51Z" transform="translate(-1.42 -8.79)" fill="url(#linear-gradient-4)"/><path d="M312.86,176.85l.87,18.28a9.53,9.53,0,0,1-8.71,4.09c-8.82-1-8.44-3.59-8.44-3.59s0-13.2-.35-16.15" transform="translate(-1.42 -8.79)" fill="#f6c8c9"/><path d="M310.76,182.81l2-3.69L296.23,181c.13,1.12.2,9,.25,11.84C301.36,194.26,307,187.56,310.76,182.81Z" transform="translate(-1.42 -8.79)" fill="url(#linear-gradient-5)"/><path d="M325.28,198.63s-2.38.11-11.89-1.64c-8.93-1.63-12.25-.82-18.7.41-11.77,2.24-13.11,3-14.87,4.5-4.25,3.68-11.47,102.36-11.47,102.36s-7.23,11.85,30.16,15.66c13.84,1.42,27.2-8.17,27.2-8.17Z" transform="translate(-1.42 -8.79)" fill="#68e1fd"/><path d="M317.09,197.48s-7.56,47.78-8.69,87.57a311.27,311.27,0,0,0,1.13,39.13l22.62-7.86-9.75-76.43,2.88-41.26Z" transform="translate(-1.42 -8.79)" fill="#68e1fd"/><path d="M290.9,198.35,285.24,325.9l-20.49-9.58s10.36-80.7,10.07-85,5-29.41,5-29.41A21.44,21.44,0,0,1,290.9,198.35Z" transform="translate(-1.42 -8.79)" fill="#68e1fd"/><path d="M317.09,197.48s-7.56,47.78-8.69,87.57a311.27,311.27,0,0,0,1.13,39.13l22.62-7.86-9.75-76.43,2.88-41.26Z" transform="translate(-1.42 -8.79)" fill="url(#linear-gradient-6)"/><path d="M327,277.52l-17.45-15.14s3.14,8.2,8,13.48A90.72,90.72,0,0,0,328,285.32Z" transform="translate(-1.42 -8.79)" fill="url(#linear-gradient-7)"/><path d="M290.9,198.35,285.24,325.9l-20.49-9.58s10.36-80.7,10.07-85,5-29.41,5-29.41A21.44,21.44,0,0,1,290.9,198.35Z" transform="translate(-1.42 -8.79)" fill="url(#linear-gradient-8)"/><path d="M319.75,147.26s-.73,23.4-7.54,31.41c-7.18,8.46-17.35,10.32-21.4,1.87-7.28-15.19-6.87-19.06-7.12-24.9C283,140.49,306.28,127.44,319.75,147.26Z" transform="translate(-1.42 -8.79)" fill="#f6c8c9"/><path d="M300.36,248.31s-9.07-5.84-12.2-11-3.81-14.09-1.71-16.71,4.61-2.86,6-1.09,1,13.31,3.67,14.21-.32-6.91,1.81-6.39,3.79,2.91,4.29,7.56,6.16,6.19,6.16,6.19S304.88,250,300.36,248.31Z" transform="translate(-1.42 -8.79)" fill="#f6c8c9"/><path d="M323.58,198.63s13.17-3.68,12.33,24.11-5.53,53.55-8.93,54.78-31.44-30.25-31.44-30.25,5.95-7.77,8.92-9l13.17,10.22S318.91,215,323.58,198.63Z" transform="translate(-1.42 -8.79)" fill="#68e1fd"/><path d="M317,193.2l.14,4.28a1.8,1.8,0,0,1-.88,1.66l-11.47,6.45a1.47,1.47,0,0,1-1.41,0l-11.48-5.73a1.81,1.81,0,0,1-1-1.54l-.11-2.13a1.75,1.75,0,0,1,1.44-1.88l22.91-2.86A1.69,1.69,0,0,1,317,193.2Z" transform="translate(-1.42 -8.79)" fill="#68e1fd"/><path d="M294.5,150.27c-2.54.07-7-6.54-8.33-1.68-3.35,12.1-1.84,22.7-3.13,22.1s-5.1-29.05,8.61-31c8.33-1.15,4.2-7.58,15.87-3.62s16.16,10.85,14.57,21.1-4.69,15.22-6.29,9.53S307.43,148,304.73,146C298.67,141.41,297.05,150.19,294.5,150.27Z" transform="translate(-1.42 -8.79)" fill="#ff979a"/><path d="M317.05,162.12s.37-3.52,3.84-2,.21,7.67-1.14,9.34-3.95,1.16-3.95,1.16" transform="translate(-1.42 -8.79)" fill="#f6c8c9"/><path d="M281.67,200.63s-7.08,5.11-10,8.57-15.84,17.4-17,17.72-20.54-30.14-20.54-30.14-8.51,1.43-10.44,6.78c0,0,10.86,34,22.58,43.76s28.47-16,28.47-16" transform="translate(-1.42 -8.79)" fill="#68e1fd"/><path d="M291.41,198.42s1,16.82,10.82,15.53,15.38-16.4,15.38-16.4-10.22,15.53-15.11,13.81S291.41,198.42,291.41,198.42Z" transform="translate(-1.42 -8.79)" fill="url(#linear-gradient-9)"/><path d="M302.67,147.46c.3,1.38.94,3.06,2.35,3.16a1.87,1.87,0,0,1,.75.1,1.31,1.31,0,0,1,.53.76c1.69,4.49,5.21,8,8.63,11.35a41.67,41.67,0,0,0-2.55-17,12,12,0,0,0-3.2-5.17,11.53,11.53,0,0,0-6.45-2.2,32.43,32.43,0,0,0-12,1.17,10.22,10.22,0,0,0-5,2.73,9.29,9.29,0,0,0-2,5.3c-.21,2.13-.06,4.28-.06,6.43s-.7,4.25-.7,6.25c3.21.52,8.39-2.77,11-4.48A32.39,32.39,0,0,0,302.67,147.46Z" transform="translate(-1.42 -8.79)" fill="#ff979a"/><path d="M297.05,131.81l6.74-.52a3.77,3.77,0,0,1,3.94-2.28c2.91.34-1.2-2.85-5.2-1.48A9.87,9.87,0,0,0,297.05,131.81Z" transform="translate(-1.42 -8.79)" fill="#68e1fd"/><path d="M297.05,131.81l6.74-.52a3.77,3.77,0,0,1,3.94-2.28c2.91.34-1.2-2.85-5.2-1.48A9.87,9.87,0,0,0,297.05,131.81Z" transform="translate(-1.42 -8.79)" fill="url(#linear-gradient-10)"/><ellipse cx="320.13" cy="155.65" rx="7.94" ry="9.02" fill="#68e1fd"/><ellipse cx="322.87" cy="155.5" rx="7.94" ry="9.02" fill="#68e1fd"/><ellipse cx="322.87" cy="155.5" rx="7.94" ry="9.02" fill="url(#linear-gradient-11)"/><path d="M297.05,131.81s4.45-6.63,10.16-3.08,12.22,27.64,12.22,27.64l4.86-1.11s-3.1-21.2-11.44-25.89S298.53,127.81,297.05,131.81Z" transform="translate(-1.42 -8.79)" fill="#68e1fd"/><path d="M130.6,133.18l-7.12.28A3.79,3.79,0,0,0,119,133c-2.58,1.39.12-2.91,4.3-3.22S130.6,133.18,130.6,133.18Z" transform="translate(-1.42 -8.79)" fill="#68e1fd"/><path d="M130.6,133.18l-7.12.28A3.79,3.79,0,0,0,119,133c-2.58,1.39.12-2.91,4.3-3.22S130.6,133.18,130.6,133.18Z" transform="translate(-1.42 -8.79)" fill="url(#linear-gradient-12)"/><ellipse cx="118.53" cy="168.7" rx="7.94" ry="8.4" transform="translate(-55.88 47.74) rotate(-21.95)" fill="#68e1fd"/><ellipse cx="115.93" cy="169.6" rx="7.94" ry="8.4" transform="translate(-56.4 46.83) rotate(-21.95)" fill="#68e1fd"/><ellipse cx="115.93" cy="169.6" rx="7.94" ry="8.4" transform="translate(-56.4 46.83) rotate(-21.95)" fill="url(#linear-gradient-13)"/><path d="M130.6,133.18s-7.13-5.85-11.19-.66S117.68,161,117.68,161l-4.88.86s-4.5-19.46,1.6-26.62S126.75,127.84,130.6,133.18Z" transform="translate(-1.42 -8.79)" fill="#68e1fd"/><rect x="39.12" y="288.95" width="322.55" height="41.58" fill="#d1a67c"/><rect x="39.12" y="288.95" width="322.1" height="22.39" fill="url(#linear-gradient-14)"/><rect x="31.12" y="284.15" width="345.4" height="7.54" fill="#b88e60"/><rect x="165.59" y="153.26" width="16.16" height="30.74" rx="8.08" transform="translate(347.77 326.56) rotate(179.37)" fill="#68e1fd"/><path d="M184.12,152.64a11.26,11.26,0,0,1,2.55,6.61l.36,7.08a1.77,1.77,0,1,1-3.54.18l-.35-7.09a7.73,7.73,0,0,0-7.73-7.34h-4.08a7.73,7.73,0,0,0-7.72,7.88l.11,6a1.77,1.77,0,1,1-3.53.07l-.12-6a11.27,11.27,0,0,1,11.26-11.49h4.08A11.28,11.28,0,0,1,184.12,152.64Z" transform="translate(-1.42 -8.79)" fill="#68e1fd"/><path d="M210,9.41v94l-22.75,7.64-10.57,30.61a2.37,2.37,0,0,1-2.23,1.59,2.27,2.27,0,0,1-.77-.13,2.37,2.37,0,0,1-1.46-3l11.33-32.8,21.74-7.3V9.86Q207.68,9.59,210,9.41Z" transform="translate(-1.42 -8.79)" fill="#68e1fd"/><path d="M210,9.41v94l-22.75,7.64-10.57,30.61a2.37,2.37,0,0,1-2.23,1.59,2.27,2.27,0,0,1-.77-.13,2.37,2.37,0,0,1-1.46-3l11.33-32.8,21.74-7.3V9.86Q207.68,9.59,210,9.41Z" transform="translate(-1.42 -8.79)" fill="url(#linear-gradient-15)"/><circle cx="205.54" cy="93.16" r="4.09" fill="#fff"/><path d="M207,107.7a5.75,5.75,0,1,1,5.75-5.75A5.76,5.76,0,0,1,207,107.7Zm0-8.18a2.43,2.43,0,1,0,2.43,2.43A2.43,2.43,0,0,0,207,99.52Z" transform="translate(-1.42 -8.79)" fill="#68e1fd"/><circle cx="183.8" cy="99.97" r="4.09" fill="#fff"/><path d="M185.21,114.51a5.76,5.76,0,1,1,5.76-5.75A5.76,5.76,0,0,1,185.21,114.51Zm0-8.19a2.44,2.44,0,1,0,2.43,2.44A2.43,2.43,0,0,0,185.21,106.32Z" transform="translate(-1.42 -8.79)" fill="#68e1fd"/><rect x="172.1" y="139.48" width="3.71" height="11.51" rx="1.85" transform="translate(348.31 279.46) rotate(179.28)" fill="#68e1fd"/><rect x="249.59" y="140.27" width="3.71" height="11.51" rx="1.85" transform="translate(2.04 -14.58) rotate(1.33)" fill="#68e1fd"/><rect x="243.4" y="154.06" width="16.16" height="30.74" rx="8.08" transform="translate(2.29 -14.16) rotate(1.23)" fill="#68e1fd"/><rect x="165.59" y="153.26" width="16.16" height="30.74" rx="8.08" transform="translate(347.77 326.56) rotate(179.37)" fill="#68e1fd"/><rect x="165.59" y="153.26" width="16.16" height="30.74" rx="8.08" transform="translate(347.77 326.56) rotate(179.37)" fill="url(#linear-gradient-16)"/><rect x="243.4" y="154.06" width="16.16" height="30.74" rx="8.08" transform="translate(2.29 -14.16) rotate(1.23)" fill="url(#linear-gradient-17)"/><path d="M241.21,153.33a11.22,11.22,0,0,0-2.63,6.58l-.43,7.08a1.77,1.77,0,0,0,3.53.22l.43-7.09a7.73,7.73,0,0,1,7.8-7.26l4.08,0a7.72,7.72,0,0,1,7.64,8l-.17,6a1.77,1.77,0,1,0,3.53.1l.18-6A11.27,11.27,0,0,0,254,149.37l-4.08-.05A11.21,11.21,0,0,0,241.21,153.33Z" transform="translate(-1.42 -8.79)" fill="#68e1fd"/><path d="M184.12,152.64a11.26,11.26,0,0,1,2.55,6.61l.36,7.08a1.77,1.77,0,1,1-3.54.18l-.35-7.09a7.73,7.73,0,0,0-7.73-7.34h-4.08a7.73,7.73,0,0,0-7.72,7.88l.11,6a1.77,1.77,0,1,1-3.53.07l-.12-6a11.27,11.27,0,0,1,11.26-11.49h4.08A11.28,11.28,0,0,1,184.12,152.64Z" transform="translate(-1.42 -8.79)" fill="#68e1fd"/><path d="M241.21,153.33a11.22,11.22,0,0,0-2.63,6.58l-.43,7.08a1.77,1.77,0,0,0,3.53.22l.43-7.09a7.73,7.73,0,0,1,7.8-7.26l4.08,0a7.72,7.72,0,0,1,7.64,8l-.17,6a1.77,1.77,0,1,0,3.53.1l.18-6A11.27,11.27,0,0,0,254,149.37l-4.08-.05A11.21,11.21,0,0,0,241.21,153.33Z" transform="translate(-1.42 -8.79)" fill="#68e1fd"/><path d="M184.12,152.64a11.26,11.26,0,0,1,2.55,6.61l.36,7.08a1.77,1.77,0,1,1-3.54.18l-.35-7.09a7.73,7.73,0,0,0-7.73-7.34h-4.08a7.73,7.73,0,0,0-7.72,7.88l.11,6a1.77,1.77,0,1,1-3.53.07l-.12-6a11.27,11.27,0,0,1,11.26-11.49h4.08A11.28,11.28,0,0,1,184.12,152.64Z" transform="translate(-1.42 -8.79)" fill="url(#linear-gradient-18)"/><path d="M241.21,153.33a11.22,11.22,0,0,0-2.63,6.58l-.43,7.08a1.77,1.77,0,0,0,3.53.22l.43-7.09a7.73,7.73,0,0,1,7.8-7.26l4.08,0a7.72,7.72,0,0,1,7.64,8l-.17,6a1.77,1.77,0,1,0,3.53.1l.18-6A11.27,11.27,0,0,0,254,149.37l-4.08-.05A11.21,11.21,0,0,0,241.21,153.33Z" transform="translate(-1.42 -8.79)" fill="url(#linear-gradient-19)"/><path d="M251.85,144.1a2.36,2.36,0,0,1-3-1.46L238.28,112l-22.75-7.65V9.06c1.57-.08,3.14-.13,4.71-.18V101L242,108.3l11.33,32.8A2.37,2.37,0,0,1,251.85,144.1Z" transform="translate(-1.42 -8.79)" fill="#68e1fd"/><path d="M251.85,144.1a2.36,2.36,0,0,1-3-1.46L238.28,112l-22.75-7.65V9.06c1.57-.08,3.14-.13,4.71-.18V101L242,108.3l11.33,32.8A2.37,2.37,0,0,1,251.85,144.1Z" transform="translate(-1.42 -8.79)" fill="url(#linear-gradient-20)"/><line x1="185.87" y1="102.27" x2="175.3" y2="132.89" fill="#68e1fd"/><line x1="240.56" y1="99.51" x2="251.89" y2="132.31" fill="#68e1fd"/><circle cx="217.19" cy="94.13" r="4.09" fill="#fff"/><path d="M212.85,102.92a5.76,5.76,0,1,1,5.75,5.75A5.77,5.77,0,0,1,212.85,102.92Zm3.32,0a2.43,2.43,0,1,0,2.43-2.43A2.43,2.43,0,0,0,216.17,102.92Z" transform="translate(-1.42 -8.79)" fill="#68e1fd"/><circle cx="238.93" cy="100.94" r="4.09" fill="#fff"/><path d="M234.59,109.73a5.76,5.76,0,1,1,5.76,5.75A5.76,5.76,0,0,1,234.59,109.73Zm3.32,0a2.44,2.44,0,1,0,2.44-2.44A2.43,2.43,0,0,0,237.91,109.73Z" transform="translate(-1.42 -8.79)" fill="#68e1fd"/></svg>