<svg id="Layer_1" data-name="Layer 1" xmlns="http://www.w3.org/2000/svg" xmlns:xlink="http://www.w3.org/1999/xlink" viewBox="0 0 413.38 345.73"><defs><linearGradient id="linear-gradient" x1="209.58" y1="166.04" x2="188.67" y2="168.63" gradientUnits="userSpaceOnUse"><stop offset="0.01"/><stop offset="0.83" stop-opacity="0.07"/><stop offset="1" stop-opacity="0"/></linearGradient><linearGradient id="linear-gradient-2" x1="238.99" y1="180.37" x2="207.86" y2="184.96" xlink:href="#linear-gradient"/><linearGradient id="linear-gradient-3" x1="212.34" y1="137.4" x2="210.77" y2="162.83" xlink:href="#linear-gradient"/><linearGradient id="linear-gradient-4" x1="242.33" y1="176.91" x2="214.75" y2="179.85" xlink:href="#linear-gradient"/><linearGradient id="linear-gradient-5" x1="241.53" y1="162.98" x2="225.59" y2="166.89" xlink:href="#linear-gradient"/><linearGradient id="linear-gradient-6" x1="175.03" y1="93.11" x2="210.24" y2="343.08" xlink:href="#linear-gradient"/><linearGradient id="linear-gradient-7" x1="197.51" y1="144.49" x2="196.92" y2="268.89" xlink:href="#linear-gradient"/><linearGradient id="linear-gradient-8" x1="199.37" y1="149.27" x2="197.02" y2="209.51" xlink:href="#linear-gradient"/><linearGradient id="linear-gradient-9" x1="306.97" y1="207.22" x2="369.76" y2="194.02" xlink:href="#linear-gradient"/><linearGradient id="linear-gradient-10" x1="318.5" y1="216.07" x2="285.05" y2="226.63" xlink:href="#linear-gradient"/><linearGradient id="linear-gradient-11" x1="318.3" y1="293.81" x2="321.82" y2="158.85" xlink:href="#linear-gradient"/><linearGradient id="linear-gradient-12" x1="286.07" y1="260.37" x2="360.39" y2="175.09" xlink:href="#linear-gradient"/><linearGradient id="linear-gradient-13" x1="323.46" y1="284.27" x2="326.23" y2="178.15" xlink:href="#linear-gradient"/><linearGradient id="linear-gradient-14" x1="294.21" y1="310.77" x2="326.14" y2="267.14" xlink:href="#linear-gradient"/></defs><title>Receptionist</title><path d="M407.08,256.26c-2.54,16.7-7.11,29.8-15.45,40.87-5.92,7.87-13.76,14.73-24.09,21.12-.8.49-1.59,1-2.39,1.42a126,126,0,0,1-28.8,12.14,190.94,190.94,0,0,1-44.93,6.86c-37.48,1.56-75.14-4.39-112.42-.34-23.75,2.57-47,9.16-70.88,10.15-37.65,1.54-68.37-16-86.63-48.32-.27-.5-.56-1-.83-1.51s-.55-1-.82-1.52a190.71,190.71,0,0,1-13.4-33.34C-.18,242.2-4.15,218.73,2.7,197.22c7-22,24.19-38.89,39.56-56.12A452.41,452.41,0,0,0,92,73.7c9.09-15.08,17.44-30.85,29.49-43.66,12.81-13.63,29.46-20.14,47-25.38,19.62-5.84,37.88,3.67,55.86,10.7,41,16,88.27,15.9,125.25,39.71,31.06,20,50.44,54.83,58.17,91S412.67,219.73,407.08,256.26Z" transform="translate(0.88 -2.84)" fill="#68e1fd" opacity="0.18" style="isolation:isolate"/><path d="M391.63,297.13c-5.92,7.87-13.76,14.73-24.09,21.12-.8.49-1.59,1-2.39,1.42-3.89,1.81-7.86,3.47-11.77,5.09l-17,7.05a190.94,190.94,0,0,1-44.93,6.86c-37.48,1.56-75.14-4.39-112.42-.34-23.75,2.57-47,9.16-70.88,10.15-37.65,1.54-68.37-16-86.63-48.32-.27-.5-.56-1-.83-1.51s-.55-1-.82-1.52Z" transform="translate(0.88 -2.84)" fill="#68e1fd" opacity="0.58" style="isolation:isolate"/><path d="M229.83,137.89c-.76,3.29-1.5,7-.66,10.19,1,3.58-.9,2.18-3.16,5.58a14.38,14.38,0,0,1-9.08,5.76,24.05,24.05,0,0,1-10.92-.6c-2.91-.77-8.61,2-9.84-.76a11.83,11.83,0,0,1-.76-4.23c-.17-3,2.28-10.17,3-13.08a11.55,11.55,0,0,0,.5-2.71c0-2.08-1.59-3.78-2.47-5.67a9.11,9.11,0,0,1-.64-5.75c.5-2.26,1.86-4.27,2.25-6.55a20,20,0,0,0,.14-3.37,11.72,11.72,0,0,1,1.19-6c7.17-12.29,23.1-4.27,26.12-1.69s4.38,6.94,4.39,11,1.26,12.35.33,16.32C230.08,136.84,230,137.36,229.83,137.89Z" transform="translate(0.88 -2.84)" fill="#3f3d56"/><path d="M240.63,211.76s1.13,5,.46,7.85-3.43,6.09-5,6.28-2.54-.58-2.43-1.66,4.14-4.87,3.52-6.08-2.21,2.47-2.76,1.57-.32-2.26,1.08-4,0-4.18,0-4.18S239.64,209.67,240.63,211.76Z" transform="translate(0.88 -2.84)" fill="#f6c8c9"/><path d="M174.5,166s-2.35-4.14-3.37-4.76-2.81-2.33-3.34-1.94c-.94.7,3.13,4.31-.5,4-.58,0-3.49,0-4.9,1.32a2.71,2.71,0,0,0,.13,4c.95.64,4.23.94,6,.89a10.21,10.21,0,0,1,5,.93" transform="translate(0.88 -2.84)" fill="#f6c8c9"/><path d="M199.56,148.37a46.88,46.88,0,0,0-1.84,8.13c-.17,2.85-1.5,14.84-2,15.42s-21.94-6.72-21.94-6.72-1.3,1.83-.26,5.28c0,0,16,14.44,25.62,15s8.42-22.32,8.42-22.32" transform="translate(0.88 -2.84)" fill="#f6c8c9"/><path d="M199.14,148.46l-7.67,22.95.66,6.76a9,9,0,0,0,7.49,8h0Z" transform="translate(0.88 -2.84)" fill="#68e1fd"/><path d="M199.14,148.46l-7.67,22.95.66,6.76a9,9,0,0,0,7.49,8h0Z" transform="translate(0.88 -2.84)" fill="url(#linear-gradient)"/><path d="M228.37,216.44s1.68,31.88,3.92,57.69c0,0-30.83,4.44-43.42-.5,0,0,2.71-51.42,3.27-58.8Z" transform="translate(0.88 -2.84)" fill="#68e1fd"/><path d="M228,149.22a3.13,3.13,0,0,0-2.72-3.09c-1.14-.15-2.7-.39-4.84-.78-5.66-1-7.76-.52-11.85.26-7.46,1.42-8.31,1.88-9.43,2.85s-6.35,18-3.71,26c.55,1.68,2.13,5.68,2.42,7.78,1.73,12.44-.51,30.36-.51,30.36s-10.05,8.24,13.65,10.66c8.78.9,17.24-5.18,17.24-5.18Z" transform="translate(0.88 -2.84)" fill="#68e1fd"/><path d="M228,149.29a3.21,3.21,0,0,0-2.77-3.16c-1.13-.16-2.69-.4-4.79-.78-5.66-1-7.76-.52-11.85.26-7.46,1.42-8.31,1.88-9.43,2.85-2.7,2.33-.23,60.45-.23,60.45s-11.62,12,12.08,14.38c8.78.9,17.24-5.18,17.24-5.18Z" transform="translate(0.88 -2.84)" fill="url(#linear-gradient-2)"/><path d="M207,145.93a93.34,93.34,0,0,0,9.89,8.45,1.17,1.17,0,0,1,.49,1.27l-.54.7s-7.48-6-11.33-9.7Z" transform="translate(0.88 -2.84)" fill="url(#linear-gradient-3)"/><polygon points="228.76 155.02 228.76 201.69 217.39 195.7 224.28 167.72 228.76 155.02" fill="url(#linear-gradient-4)"/><path d="M236.1,191.63c-.49,0-1,0-1.48,0l-42.8-.28a5.77,5.77,0,0,1-2.68-.45,2,2,0,0,1-1.08-2.26,2.8,2.8,0,0,1,2-1.38c6.83-2,14.12-1.4,21.24-1.22,5.93.15,12.15-.06,17.69-2.42a21,21,0,0,1,8-1.45c1.58,0,2.45-.33,3.19.91.55.91.34,3.31.18,4.32a4.91,4.91,0,0,1-2.41,3.72A5,5,0,0,1,236.1,191.63Z" transform="translate(0.88 -2.84)" fill="#f6c8c9"/><path d="M226.94,147s3.66,3.59,8.37,18.38c1.74,5.5,5.06,17.79,5.06,17.79s-6.5.54-11.4.54c-2.2-12.74-7.94-15.84-8.92-21.72S224,145.82,226.94,147Z" transform="translate(0.88 -2.84)" fill="#68e1fd"/><path d="M226.94,147s3.66,3.59,8.37,18.38c1.74,5.5,5.06,17.79,5.06,17.79s-7.2.69-12.1.69c-2.2-12.74-7.24-16-8.22-21.87S224,145.82,226.94,147Z" transform="translate(0.88 -2.84)" fill="url(#linear-gradient-5)"/><path d="M218,130.41l.19,15.08a6,6,0,0,1-5.52,2.59c-5.59-.62-5.35-2.28-5.35-2.28s0-8.37-.22-10.24" transform="translate(0.88 -2.84)" fill="#f6c8c9"/><path d="M218.1,135.32l-.07-4.55-11,5.73c.08.71.23,6.87.27,8.65C210.41,146.08,216.78,140.31,218.1,135.32Z" transform="translate(0.88 -2.84)" fill="#dcb5b0"/><path d="M220.5,115.43s-.47,14.84-4.78,19.92c-4.56,5.36-8.7,4.52-10.75,4-4.92-1.17-5.61-14.59-5.77-18.29C198.79,111.48,212,102.86,220.5,115.43Z" transform="translate(0.88 -2.84)" fill="#f6c8c9"/><path d="M218.63,124.49a1.57,1.57,0,0,1,2.44-1.27c2.2,1,.14,4.86-.72,5.91a2.8,2.8,0,0,1-2.5.74" transform="translate(0.88 -2.84)" fill="#f6c8c9"/><rect x="95.83" y="193.06" width="202.44" height="112.66" fill="#68e1fd"/><rect x="95.83" y="193.06" width="202.44" height="112.66" fill="url(#linear-gradient-6)"/><polygon points="96.12 253.79 298.56 229.74 298.56 193.06 95.83 193.06 96.12 253.79" fill="url(#linear-gradient-7)"/><rect x="90.55" y="186.61" width="214.47" height="7.04" rx="3.52" fill="#68e1fd"/><rect x="90.55" y="186.61" width="214.47" height="7.04" rx="3.52" fill="url(#linear-gradient-8)"/><path d="M203.7,112.55a22.91,22.91,0,0,0,1.85,5.49,8.54,8.54,0,0,0,4.07,4,10.58,10.58,0,0,0,6.63,0,5.59,5.59,0,0,1,3.12-.24c.95.33,1.82,1.23,2.78.93s1.15-1.29,1.23-2.17a10.2,10.2,0,0,0-1-5.92,10.47,10.47,0,0,0-2.3-2.75c-4.3-3.81-11-5.11-16-2.25-.64.37-2.68,1.57-2.68,2.43C201.46,113.83,203.64,112.3,203.7,112.55Z" transform="translate(0.88 -2.84)" fill="#3f3d56"/><path d="M341.19,159.77c2.54-4.89,7.24-9.44,12.73-9a4.65,4.65,0,0,1,2.64.94A5,5,0,0,1,358,154.6c2.35,10.61-9.37,20.16-8.16,31,.5,4.38,3.07,8.2,5.05,12.14s3.37,8.7,1.47,12.68c-1.3,2.72-3.9,4.53-6.13,6.54s-4.33,4.71-4,7.71c.14,1.5.88,2.91.88,4.42,0,2.93-2.67,5.16-5.33,6.4s-5.66,2.06-7.66,4.22c-2.18,2.36-2.66,5.81-4.27,8.59a3.08,3.08,0,0,1-1.1,1.24,2.48,2.48,0,0,1-3.1-1.09,7.18,7.18,0,0,1-.8-3.5l-1.46-26.52c-.31-5.46-.61-11,.18-16.38,1.18-8,4.69-15.44,8.5-22.52C335.51,173.08,337.85,166.21,341.19,159.77Z" transform="translate(0.88 -2.84)" fill="#68e1fd"/><path d="M354.93,197.71c2,3.94,3.37,8.71,1.47,12.68-1.31,2.72-3.9,4.53-6.13,6.54a17.08,17.08,0,0,0-2.27,2.45,8.84,8.84,0,0,0-1.66,3.42,5.6,5.6,0,0,0-.12,1.83c.14,1.5.87,2.92.88,4.43,0,2.94-2.66,5.16-5.33,6.4-2.36,1.09-5,1.87-6.94,3.53q-.37.33-.72.69c-2.18,2.36-2.66,5.8-4.27,8.59a3.22,3.22,0,0,1-1.1,1.24,2.48,2.48,0,0,1-3.1-1.09,4.74,4.74,0,0,1-.67-2,14.76,14.76,0,0,1-.12-1.48l-1.47-26.52c-.31-5.46-.61-11,.18-16.38,1.18-8,4.69-15.44,8.51-22.52,2.74-5.09,4.77-10.47,7.17-15.69.61-1.36,1.27-2.7,1.95-4a18.54,18.54,0,0,1,7.13-7.74,10,10,0,0,1,5.6-1.24,4.76,4.76,0,0,1,2.64.95A5,5,0,0,1,358,154.6c2.35,10.62-9.37,20.16-8.16,31C350.37,190,353,193.77,354.93,197.71Z" transform="translate(0.88 -2.84)" fill="url(#linear-gradient-9)"/><path d="M296.77,234.28c-5.46-3.64-11.29-8.18-12.13-14.68a5.72,5.72,0,0,1,1-4.48c1-1.19,3.1-1.54,4.15-.36.79.89,1.41,2.63,2.49,2.13.74-.34.64-1.41.39-2.18-1.86-5.74-5.43-11.34-4.52-17.3.28-1.81,1.74-3.95,3.46-3.31a2.86,2.86,0,0,1,1.35,1.27c1.88,2.95,2.05,7.34,5.2,8.85a6.46,6.46,0,0,1,2-4.11c1.78,2.62,1.78,6,2.52,9.08,1.48,6.12,5.92,11,9.91,15.88s7.83,10.51,7.71,16.8c-1.43,1.16-3.94-.72-5.29.53-1.08,1-.2,2.78-.36,4.24-.19,1.7-2.46,2.78-4,2.13s-1.9-3.36-2.74-4.7C305.23,239.86,300.82,237,296.77,234.28Z" transform="translate(0.88 -2.84)" fill="#68e1fd"/><path d="M296.77,234.28c-5.46-3.64-11.29-8.18-12.13-14.68a5.72,5.72,0,0,1,1-4.48c1-1.19,3.1-1.54,4.15-.36.79.89,1.41,2.63,2.49,2.13.74-.34.64-1.41.39-2.18-1.86-5.74-5.43-11.34-4.52-17.3.28-1.81,1.74-3.95,3.46-3.31a2.86,2.86,0,0,1,1.35,1.27c1.88,2.95,2.05,7.34,5.2,8.85a6.46,6.46,0,0,1,2-4.11c1.78,2.62,1.78,6,2.52,9.08,1.48,6.12,5.92,11,9.91,15.88s7.83,10.51,7.71,16.8c-1.43,1.16-3.94-.72-5.29.53-1.08,1-.2,2.78-.36,4.24-.19,1.7-2.46,2.78-4,2.13s-1.9-3.36-2.74-4.7C305.23,239.86,300.82,237,296.77,234.28Z" transform="translate(0.88 -2.84)" fill="url(#linear-gradient-10)"/><path d="M298.85,224.83c-4-8.58,2.41-18,7.53-26a11.27,11.27,0,0,0,2.18-5.3,12.45,12.45,0,0,0-1.24-5.07c-3.19-8-5.67-16.94-3.2-25.21,1.38-4.62,4.2-8.66,6.32-13a45.89,45.89,0,0,0,4.65-21.66c-.13-3.85-.74-7.75,0-11.52s3.37-7.53,7.17-8.15c4.19-.68,8,2.64,10.12,6.35,6.22,11.14,1.83,25.09,3.92,37.68,1.74,10.44,8,20.64,5.45,30.9C340,191,334.1,197,333.86,204.32c4.44-.32,8.59,3.53,9.11,8s-2.24,8.89-6.2,10.91c-3.36,1.71-8.17,2.72-8.58,6.47-.21,1.92,1,3.7,1.31,5.61,1.1,6.66-8,18.4-13.11,11.37-2.57-3.51-3-7.3-6.45-10.67C306.15,232.25,301.18,229.87,298.85,224.83Z" transform="translate(0.88 -2.84)" fill="#68e1fd"/><path d="M336.77,223.18c-3.36,1.71-8.16,2.72-8.58,6.46-.21,1.93,1,3.71,1.3,5.62.84,5-4.13,13-8.83,13.51a4.5,4.5,0,0,1-4.27-2.13c-2.57-3.52-3-7.32-6.45-10.68-3.79-3.7-8.76-6.09-11.09-11.13-4-8.58,2.4-18.05,7.52-26a11.15,11.15,0,0,0,2.19-5.3,12.45,12.45,0,0,0-1.24-5.07c-3.19-8-5.67-16.94-3.2-25.21,1.39-4.62,4.2-8.65,6.32-13a46,46,0,0,0,4.65-21.66c-.13-3.85-.74-7.74,0-11.51s3.37-7.54,7.17-8.15c4.19-.69,8,2.63,10.12,6.34,4,7.13,3.62,15.41,3.38,23.75h0a73.21,73.21,0,0,0,.54,13.92c1.74,10.44,8,20.63,5.46,30.91C340,191,334.1,197,333.86,204.31c4.44-.31,8.6,3.54,9.12,8S340.74,221.16,336.77,223.18Z" transform="translate(0.88 -2.84)" fill="url(#linear-gradient-11)"/><path d="M348.34,217a9.23,9.23,0,0,1-.34,2.41,10.53,10.53,0,0,1-1.66,3.42,11.79,11.79,0,0,1-5.53,4.21c-3.54,1.27-6.74,3.68-7.63,7.33-.22.92.68,2.77,1.65,4.65q-.37.33-.72.69c-2.18,2.36-2.66,5.8-4.27,8.59a3.22,3.22,0,0,1-1.1,1.24,2.48,2.48,0,0,1-3.1-1.09,4.74,4.74,0,0,1-.67-2c2.94-2.86,5.1-7.69,4.52-11.14-.31-1.91-1.51-3.69-1.3-5.62.42-3.74,5.22-4.75,8.58-6.46,4-2,6.73-6.48,6.21-10.91s-4.68-8.27-9.12-8c.24-7.35,6.15-13.29,7.93-20.43,1.67-6.69-.42-13.35-2.55-20.07.61-1.36,1.27-2.7,1.95-4a18.54,18.54,0,0,1,7.13-7.74c-1.48,3.78-2.47,7.55-2.08,11.25,2.93,28.22-5.14,32.53-6.31,39.8C344.38,203.33,348.38,212.51,348.34,217Z" transform="translate(0.88 -2.84)" fill="url(#linear-gradient-12)"/><path d="M336.77,223.18c-3.36,1.71-8.16,2.72-8.58,6.46-.21,1.93,1,3.71,1.3,5.62.84,5-4.13,13-8.83,13.51a19.42,19.42,0,0,0-3.17-6.65c-3.28-4.15-7.92-7.15-9.6-12.45-2.85-9,4.66-17.58,10.74-24.83a11.2,11.2,0,0,0,2.84-5,12.45,12.45,0,0,0-.59-5.19c-2.16-8.36-3.5-17.51,0-25.41,1.94-4.41,5.25-8.06,7.9-12.08a46.08,46.08,0,0,0,7-18.13,73.21,73.21,0,0,0,.54,13.92c1.74,10.44,8,20.63,5.46,30.91C340,191,334.1,197,333.86,204.31c4.44-.31,8.6,3.54,9.12,8S340.74,221.16,336.77,223.18Z" transform="translate(0.88 -2.84)" fill="url(#linear-gradient-13)"/><path d="M323.27,310.62H316.4a10.23,10.23,0,0,1-10.22-9.75l-2.28-48.12a5.8,5.8,0,0,1,5.8-6.09h21.15a5.81,5.81,0,0,1,5.8,6.19l-3.17,48.21A10.24,10.24,0,0,1,323.27,310.62Z" transform="translate(0.88 -2.84)" fill="#68e1fd"/><path d="M323.31,310.62h-6.95a10.19,10.19,0,0,1-10.18-9.71l-2.26-47.74a6.22,6.22,0,0,1,6.21-6.51h20.29a6.22,6.22,0,0,1,6.2,6.63l-3.14,47.81A10.19,10.19,0,0,1,323.31,310.62Z" transform="translate(0.88 -2.84)" fill="url(#linear-gradient-14)"/><rect x="125.46" y="176.83" width="25.82" height="9.98" rx="4.22" fill="#68e1fd"/></svg>