<svg id="Layer_1" data-name="Layer 1" xmlns="http://www.w3.org/2000/svg" xmlns:xlink="http://www.w3.org/1999/xlink" viewBox="0 0 297.64 348.59"><defs><linearGradient id="linear-gradient" x1="188.29" y1="155.95" x2="260.59" y2="354.48" gradientUnits="userSpaceOnUse"><stop offset="0.01"/><stop offset="0.83" stop-opacity="0.07"/><stop offset="1" stop-opacity="0"/></linearGradient><linearGradient id="linear-gradient-2" x1="139.42" y1="283.14" x2="152.06" y2="282.95" xlink:href="#linear-gradient"/><linearGradient id="linear-gradient-3" x1="222.66" y1="24.77" x2="220.15" y2="43.47" xlink:href="#linear-gradient"/><linearGradient id="linear-gradient-4" x1="223.44" y1="32.69" x2="219.68" y2="5.04" xlink:href="#linear-gradient"/><linearGradient id="linear-gradient-5" x1="143.56" y1="17.32" x2="144.55" y2="35.49" xlink:href="#linear-gradient"/><linearGradient id="linear-gradient-6" x1="128.5" y1="24.3" x2="159.61" y2="24.3" xlink:href="#linear-gradient"/><linearGradient id="linear-gradient-7" x1="222.04" y1="41.47" x2="226.78" y2="200.3" xlink:href="#linear-gradient"/><linearGradient id="linear-gradient-8" x1="221.27" y1="86.37" x2="224.43" y2="321.85" gradientUnits="userSpaceOnUse"><stop offset="0.02" stop-color="#fff" stop-opacity="0"/><stop offset="0.39" stop-color="#fff" stop-opacity="0.39"/><stop offset="1" stop-color="#fff"/></linearGradient><linearGradient id="linear-gradient-9" x1="222.3" y1="111.11" x2="224.43" y2="269.83" xlink:href="#linear-gradient"/><linearGradient id="linear-gradient-10" x1="181.85" y1="56.99" x2="177.7" y2="186.18" xlink:href="#linear-gradient"/><linearGradient id="linear-gradient-11" x1="268.03" y1="59.75" x2="263.88" y2="188.95" xlink:href="#linear-gradient"/><linearGradient id="linear-gradient-12" x1="180.63" y1="101.47" x2="182.21" y2="178.11" xlink:href="#linear-gradient"/><linearGradient id="linear-gradient-13" x1="262.99" y1="99.77" x2="264.57" y2="176.42" xlink:href="#linear-gradient"/><linearGradient id="linear-gradient-14" x1="165.63" y1="406.01" x2="267.57" y2="270.89" xlink:href="#linear-gradient"/></defs><title>Sailor</title><path d="M367,222.27c-9.52,38.65-23.79,79.89-54.36,104a94.09,94.09,0,0,1-11.4,7.71c-16.56,9.49-35.74,13.48-54.77,15-37.13,3-75.92-3.28-107.73-22.32q-5.27-3.15-10.26-6.77A126.24,126.24,0,0,1,86.6,267.34c-7.29-17.26-10.37-36-7.74-54.65,6.38-45.3,42.78-79.89,61.55-121.6,6.9-15.34,11.41-31.67,18.45-46.94s17.16-29.9,32-37.88C211.82-5,235.29,4.78,256,11.83,280.16,20,303.93,31,322.26,49.21c11.95,11.85,21.08,26.23,29.35,40.88a259.65,259.65,0,0,1,13.76,27.52,131.17,131.17,0,0,1,8.85,30.12C378.11,172.57,373,197.87,367,222.27Z" transform="translate(-77.93 -1.11)" fill="#68e1fd" opacity="0.25" style="isolation:isolate"/><path d="M367,222.27c-9.52,38.65-23.79,79.89-54.36,104a94.09,94.09,0,0,1-11.4,7.71c-16.56,9.49-35.74,13.48-54.77,15-37.13,3-75.92-3.28-107.73-22.32q-5.27-3.15-10.26-6.77A126.24,126.24,0,0,1,86.6,267.34c-.74-13,3.38-22.74,9.67-34.31,13.17-24.2,32.33-46.43,58.55-56.66,22.55-8.8,48.8-8.26,68.89-21.77,18.28-12.28,29-34.71,49.18-43.45,15.4-6.67,33.05-3.9,49.58-1l42.9,7.48a131.17,131.17,0,0,1,8.85,30.12C378.11,172.57,373,197.87,367,222.27Z" transform="translate(-77.93 -1.11)" fill="#68e1fd" opacity="0.25" style="isolation:isolate"/><path d="M200.21,168.44s-4.38,13.77-5.53,34.37c-2.4,42.88-2.51,111.45-2,119.72.79,12.25.79,19,.79,19l16.2-1.18L224.31,217l19,122.87,15.81-.39s-1.19-132.76-2.37-138.68-2.37-34.77-2.37-34.77Z" transform="translate(-77.93 -1.11)" fill="#3f3d56"/><path d="M200.21,168.44s-4.38,13.77-5.53,34.37c-2.4,42.88-2.51,111.45-2,119.72.79,12.25.79,19,.79,19l16.2-1.18L224.31,217l19,122.87,15.81-.39s-1.19-132.76-2.37-138.68-2.37-34.77-2.37-34.77Z" transform="translate(-77.93 -1.11)" fill="url(#linear-gradient)"/><rect x="141.36" y="220.04" width="8.9" height="126" fill="#68e1fd"/><rect x="141.36" y="220.04" width="8.9" height="126" fill="url(#linear-gradient-2)"/><path d="M213.77,69.37a8.54,8.54,0,0,0,5.79,4.84,14.32,14.32,0,0,0,7.73-.34,6.33,6.33,0,0,0,2.65-1.33,5.88,5.88,0,0,0,1.51-3.26,14.32,14.32,0,0,0-.68-7.72,61.64,61.64,0,0,1-14.49.5,5.94,5.94,0,0,1-2.9-.92C212.46,62.93,213,67.51,213.77,69.37Z" transform="translate(-77.93 -1.11)" fill="#f6c8c9"/><path d="M207.85,34s-1.58,26.07,9.48,28.44,15.93-3.68,17-10S236,30,236,30,210.22,19.23,207.85,34Z" transform="translate(-77.93 -1.11)" fill="#f6c8c9"/><path d="M234.75,39.11l.92-2a1.17,1.17,0,0,1,.35-.52c.17-.12.38-.15.55-.25.55-.34.39-1.15.4-1.79,0-1.32,1-2.54.76-3.84a1.19,1.19,0,0,0-.76-1,1.59,1.59,0,0,0-1.09.24c-1.52.75-2.81,1.48-1.92,3.2A9.37,9.37,0,0,1,234.75,39.11Z" transform="translate(-77.93 -1.11)" fill="#6d482e"/><path d="M206.25,36c.34.4.75.73,1.05,1.15,1.22,1.7.33,4.21,1.35,6a23.35,23.35,0,0,0,.64-4.4c.1-1.8,0-3.73,1-5.25a2.78,2.78,0,0,0,.6-1.23,1.94,1.94,0,0,0-.75-1.43c-1.09-1.05-3.39-2-4.29-.29A5.11,5.11,0,0,0,206.25,36Z" transform="translate(-77.93 -1.11)" fill="#6d482e"/><rect x="128.5" y="24.3" width="31.11" height="4.35" fill="#68e1fd"/><path d="M206.43,29.76a19.39,19.39,0,0,0,16.5,6.13c10.66-1.09,14.62-6.13,14.62-6.13Z" transform="translate(-77.93 -1.11)" fill="#3f3d56"/><path d="M206.43,29.76a19.39,19.39,0,0,0,16.5,6.13c10.66-1.09,14.62-6.13,14.62-6.13Z" transform="translate(-77.93 -1.11)" fill="url(#linear-gradient-3)"/><path d="M206.43,25.42s-4.11-1.06-3.19-4.48S214.56,10.8,221.15,10.4s19.36,7.38,19.62,10.8-3.22,4.22-3.22,4.22Z" transform="translate(-77.93 -1.11)" fill="#68e1fd"/><path d="M206.43,25.42s-4.11-1.06-3.19-4.48S214.56,10.8,221.15,10.4s19.36,7.38,19.62,10.8-3.22,4.22-3.22,4.22Z" transform="translate(-77.93 -1.11)" fill="url(#linear-gradient-4)"/><rect x="128.5" y="24.3" width="31.11" height="4.35" fill="url(#linear-gradient-5)"/><line x1="159.61" y1="24.3" x2="128.5" y2="24.3" fill="url(#linear-gradient-6)"/><path d="M204.82,36a2.28,2.28,0,0,0-1.13,2.1c0,1.8,1,3.42,1.46,5.17a2.66,2.66,0,0,0,.79,1.63,2.14,2.14,0,0,0,1.17.26,1.12,1.12,0,0,0,1.44-1.4c-.09-1.72.18-4-.39-5.62C207.75,36.92,206.18,35.39,204.82,36Z" transform="translate(-77.93 -1.11)" fill="#f6c8c9"/><path d="M238.38,36a2.28,2.28,0,0,1,1.13,2.1c0,1.8-1,3.42-1.46,5.17a2.61,2.61,0,0,1-.79,1.63,2.14,2.14,0,0,1-1.17.26,1.12,1.12,0,0,1-1.44-1.4c.09-1.72-.18-4,.39-5.62C235.45,36.92,237,35.39,238.38,36Z" transform="translate(-77.93 -1.11)" fill="#f6c8c9"/><path d="M209.21,55.51a14.3,14.3,0,0,0,.62,3,14.38,14.38,0,0,0,3.29,4.66,17.08,17.08,0,0,0,2.94,2.7c3.28,2.17,7.74,1.79,11.27.06a10.47,10.47,0,0,0,1.84-1.11,15.83,15.83,0,0,0,3.29-3.9,14.25,14.25,0,0,0,2.38-4.73,20,20,0,0,0,.08-4.77c-.06-1.48,0-3,.08-4.45l.47-9.58c-.35-.25-.75.23-.9.64a60.53,60.53,0,0,0-2.79,10.51A7,7,0,0,1,231,51.2a2.16,2.16,0,0,1-2.37,1,3.48,3.48,0,0,1-1-.68,9.3,9.3,0,0,0-5.36-2.13,6.77,6.77,0,0,0-5.27,2.1,14.35,14.35,0,0,1-1.84,2.11,1.89,1.89,0,0,1-2.53,0,2.57,2.57,0,0,1-.38-.78c-1.27-3.74-2.32-7.46-3.25-11.29a8.67,8.67,0,0,0-.84,5.64C208.5,49.94,208.85,52.72,209.21,55.51Z" transform="translate(-77.93 -1.11)" fill="#6d482e"/><path d="M224.46,56.09a3.09,3.09,0,0,1,1.57.25,2.18,2.18,0,0,1,1,1.82,4.36,4.36,0,0,1-2.77,4,7,7,0,0,1-5.11-.1,3.76,3.76,0,0,1-1.53-.93,3.6,3.6,0,0,1-.72-1.45c-.44-1.54-.75-3.14,1.1-3.42A56,56,0,0,1,224.46,56.09Z" transform="translate(-77.93 -1.11)" fill="#f6c8c9"/><path d="M210,68.22s-.26-3.43.4-4,1.05.13,3.29,1.31,8.43,5.4,13.44,1.58,6-3.68,6.18-3.16.66,5.67.66,5.67,22.39,5.26,24.76,6.58,4.74,2.64,5.8,6.06-9.48,21.34-9,29.76,0,51.63-1.18,54-52.55,2.37-54.13,2.37-6.32-57.68-6.32-57.68-10.28-20.15-11.46-23.31S181.77,81.39,210,68.22Z" transform="translate(-77.93 -1.11)" fill="#68e1fd"/><path d="M210,68.22s-.26-3.43.4-4,1.05.13,3.29,1.31,8.43,5.4,13.44,1.58,6-3.68,6.18-3.16.66,5.67.66,5.67,22.39,5.26,24.76,6.58,4.74,2.64,5.8,6.06-9.48,21.34-9,29.76,0,51.63-1.18,54-52.55,2.37-54.13,2.37-6.32-57.68-6.32-57.68-10.28-20.15-11.46-23.31S181.77,81.39,210,68.22Z" transform="translate(-77.93 -1.11)" fill="url(#linear-gradient-7)"/><path d="M279.87,172.41a57.73,57.73,0,0,0-2.53-5.74,61,61,0,0,0-32.64-29.38,58.57,58.57,0,0,0-5.93-1.91,60.61,60.61,0,0,0-69.69,31.43,55.2,55.2,0,0,0-2.51,5.73,60.48,60.48,0,0,0-1,39.86,57,57,0,0,0,2.21,5.84,60.88,60.88,0,0,0,28.76,30.07,58.17,58.17,0,0,0,5.73,2.47,60.6,60.6,0,0,0,41.89.05,56.06,56.06,0,0,0,5.73-2.45,60.93,60.93,0,0,0,29.07-30.54A59.59,59.59,0,0,0,281.1,212a60.72,60.72,0,0,0-1.23-39.57Zm-8.69,42.13A52.13,52.13,0,0,1,241,243a52.07,52.07,0,0,1-35.59,0,51,51,0,0,1-5.72-2.49,52.51,52.51,0,0,1-24.22-25.56,49.49,49.49,0,0,1-2.17-5.86,52.14,52.14,0,0,1,1.28-34,48.36,48.36,0,0,1,2.62-5.71,52.13,52.13,0,0,1,46-27.64A51.92,51.92,0,0,1,236,143.36a50,50,0,0,1,5.94,1.88,52.48,52.48,0,0,1,27.3,24.06,48.28,48.28,0,0,1,2.63,5.7,52.09,52.09,0,0,1-.66,39.54Z" transform="translate(-77.93 -1.11)" fill="#68e1fd"/><path d="M251,181.74a29.67,29.67,0,0,0-3.15-5.54,31,31,0,0,0-13.08-10.51,30,30,0,0,0-5.95-1.84,30.31,30.31,0,0,0-6.06-.6,30.77,30.77,0,0,0-7.48.92,30.33,30.33,0,0,0-5.86,2.12,31,31,0,0,0-11.65,9.76,30.76,30.76,0,0,0-5.84,18,30.8,30.8,0,0,0,.75,6.77,30,30,0,0,0,2,5.93A30.9,30.9,0,0,0,207.69,221a29.74,29.74,0,0,0,5.72,2.49,30.77,30.77,0,0,0,19.7-.37,30.79,30.79,0,0,0,20.44-29A30.45,30.45,0,0,0,251,181.74Zm-3.76,22.59a26.63,26.63,0,0,1-10.06,12,26,26,0,0,1-5.6,2.76,26.58,26.58,0,0,1-16.5.38,25.87,25.87,0,0,1-5.72-2.51,26.73,26.73,0,0,1-10.75-11.88,26.2,26.2,0,0,1-1.92-6,27.19,27.19,0,0,1-.48-5,26.48,26.48,0,0,1,2.47-11.19,27.19,27.19,0,0,1,3.41-5.46,26.75,26.75,0,0,1,8.77-7.09,26.26,26.26,0,0,1,5.86-2.12,26.69,26.69,0,0,1,6-.69,27.09,27.09,0,0,1,4.62.4,26.52,26.52,0,0,1,19.86,36.39Z" transform="translate(-77.93 -1.11)" fill="#68e1fd"/><path d="M216.68,168.23a26.26,26.26,0,0,0-5.86,2.12l-1.44-4.06-7.14-20.09-2.82-7.95-8-22.6a3.12,3.12,0,1,1,5.87-2.09l8,22.52,2.82,7.95,7.16,20.14Z" transform="translate(-77.93 -1.11)" fill="#68e1fd"/><path d="M202.05,177.44a27.19,27.19,0,0,0-3.41,5.46l-4.09-1.33-20-6.44-8-2.59L149,166.86a3.12,3.12,0,0,1,1-6.08,2.92,2.92,0,0,1,1,.15l18.2,5.88,8.13,2.61,20.52,6.63Z" transform="translate(-77.93 -1.11)" fill="#68e1fd"/><path d="M198.57,205.11l-3.94,1.68-19.15,8.15-7.74,3.3-14.65,6.23a3.13,3.13,0,0,1-4.09-1.65,3.33,3.33,0,0,1-.25-1.22,3.12,3.12,0,0,1,1.9-2.87l14.88-6.33,7.78-3.32,19.33-8.22,4-1.72A26.2,26.2,0,0,0,198.57,205.11Z" transform="translate(-77.93 -1.11)" fill="#68e1fd"/><path d="M215,219.5l-1.63,4-8,19.51-3.19,7.79-7.18,17.54a3.12,3.12,0,0,1-5.77-2.36l7.22-17.65,3.2-7.81,8-19.51,1.63-4A25.87,25.87,0,0,0,215,219.5Z" transform="translate(-77.93 -1.11)" fill="#68e1fd"/><path d="M252.14,116.12l-7.44,21.17-2.79,8-7.18,20.45-1.42,4.06a26.28,26.28,0,0,0-6-1.81l1.44-4.09L236,143.36l2.8-8,7.49-21.33A3.12,3.12,0,0,1,249.2,112a3.38,3.38,0,0,1,1,.18A3.13,3.13,0,0,1,252.14,116.12Z" transform="translate(-77.93 -1.11)" fill="#68e1fd"/><path d="M297.06,166.86l-17.19,5.55-8,2.59L251,181.74l-4.09,1.32a26.44,26.44,0,0,0-3.36-5.46l4.3-1.4,21.4-6.9,8.13-2.63,17.8-5.74a2.92,2.92,0,0,1,1-.15,3.11,3.11,0,0,1,1,6.08Z" transform="translate(-77.93 -1.11)" fill="#68e1fd"/><path d="M298.85,221.6a3.33,3.33,0,0,1-.25,1.22,3.13,3.13,0,0,1-4.09,1.65l-15.59-6.63-7.74-3.3-20-8.53-4-1.68a26.19,26.19,0,0,0,1.73-6l4,1.72,20.32,8.65,7.8,3.32L297,218.73A3.12,3.12,0,0,1,298.85,221.6Z" transform="translate(-77.93 -1.11)" fill="#68e1fd"/><path d="M256.09,264.65a3.12,3.12,0,0,1-6,1.16l-5.95-15L241,243l-7.9-19.89-1.57-4a26,26,0,0,0,5.6-2.76l1.62,4,8,20.12,3.11,7.85,6,15.12A3.14,3.14,0,0,1,256.09,264.65Z" transform="translate(-77.93 -1.11)" fill="#68e1fd"/><path d="M198.57,205.11l-3.94,1.68A30.9,30.9,0,0,0,207.69,221l1.63-4A26.73,26.73,0,0,1,198.57,205.11Zm48.63-.78a26.63,26.63,0,0,1-10.06,12l1.62,4A31.07,31.07,0,0,0,251.15,206ZM251,181.74l-4.09,1.32a26.43,26.43,0,0,1,2.06,15.23l4,1.72a31.27,31.27,0,0,0,.57-5.92A30.45,30.45,0,0,0,251,181.74Zm-28.24-18.49a30.77,30.77,0,0,0-7.48.92l1.44,4.06a26.69,26.69,0,0,1,6-.69,27.09,27.09,0,0,1,4.62.4l1.44-4.09A30.31,30.31,0,0,0,222.72,163.25Zm-25,12.8,4.32,1.39a26.75,26.75,0,0,1,8.77-7.09l-1.44-4.06A31,31,0,0,0,197.73,176.05Zm37-10.36-1.42,4.06a26.53,26.53,0,0,1,10.2,7.85l4.3-1.4A31,31,0,0,0,234.73,165.69Zm-3.19,53.43a26.58,26.58,0,0,1-16.5.38l-1.63,4a30.77,30.77,0,0,0,19.7-.37Zm-32.9-36.22-4.09-1.33a30.41,30.41,0,0,0-2.66,12.52,30.8,30.8,0,0,0,.75,6.77l4-1.72a27.19,27.19,0,0,1-.48-5A26.48,26.48,0,0,1,198.64,182.9Z" transform="translate(-77.93 -1.11)" fill="url(#linear-gradient-8)"/><path d="M297,218.73,281.1,212a60.72,60.72,0,0,0-1.23-39.57l17.19-5.55a3.11,3.11,0,0,0-1-6.08,2.92,2.92,0,0,0-1,.15l-17.8,5.74a61,61,0,0,0-32.64-29.38l7.44-21.17a3.13,3.13,0,0,0-1.91-4,3.38,3.38,0,0,0-1-.18,3.12,3.12,0,0,0-2.94,2.09l-7.49,21.33a60.75,60.75,0,0,0-33.51.7l-8-22.52a3.12,3.12,0,0,0-5.87,2.09l8,22.6a60.87,60.87,0,0,0-30.34,28.56l-18.2-5.88a2.92,2.92,0,0,0-1-.15,3.12,3.12,0,0,0-1,6.08l17.61,5.68a60.48,60.48,0,0,0-1,39.86l-14.88,6.33a3.12,3.12,0,0,0-1.9,2.87,3.33,3.33,0,0,0,.25,1.22,3.13,3.13,0,0,0,4.09,1.65l14.65-6.23a60.88,60.88,0,0,0,28.76,30.07L189.28,266a3.12,3.12,0,1,0,5.77,2.36l7.18-17.54a60.6,60.6,0,0,0,41.89.05l5.95,15a3.12,3.12,0,0,0,6-1.16,3.14,3.14,0,0,0-.23-1.15l-6-15.12a60.93,60.93,0,0,0,29.07-30.54l15.59,6.63a3.13,3.13,0,0,0,4.09-1.65,3.33,3.33,0,0,0,.25-1.22A3.12,3.12,0,0,0,297,218.73ZM273.3,208.66,253,200l-4-1.72a26.19,26.19,0,0,1-1.73,6l4,1.68,20,8.53a52.52,52.52,0,0,1-24.44,26l-8-20.12-1.62-4a26,26,0,0,1-5.6,2.76l1.57,4L241,243a52.07,52.07,0,0,1-35.59,0l8-19.51,1.63-4a25.87,25.87,0,0,1-5.72-2.51l-1.63,4-8,19.51a52.51,52.51,0,0,1-24.22-25.56l19.15-8.15,3.94-1.68a26.2,26.2,0,0,1-1.92-6l-4,1.72-19.33,8.22a52.14,52.14,0,0,1,1.28-34l20,6.44,4.09,1.33a27.19,27.19,0,0,1,3.41-5.46l-4.32-1.39-20.52-6.63a52.48,52.48,0,0,1,25-23.22l7.14,20.09,1.44,4.06a26.26,26.26,0,0,1,5.86-2.12l-1.44-4.06L208.08,144a52.14,52.14,0,0,1,27.89-.67l-7.19,20.49-1.44,4.09a26.28,26.28,0,0,1,6,1.81l1.42-4.06,7.18-20.45a52.48,52.48,0,0,1,27.3,24.06l-21.4,6.9-4.3,1.4a26.44,26.44,0,0,1,3.36,5.46l4.09-1.32L271.84,175a52.19,52.19,0,0,1,1.46,33.66Z" transform="translate(-77.93 -1.11)" fill="url(#linear-gradient-9)"/><path d="M182.82,83.79S163.07,126.17,165.05,138s16.46.92,18.56-8.3,11.07-23.44,11.07-23.44Z" transform="translate(-77.93 -1.11)" fill="#68e1fd"/><path d="M264.2,80.47s18.7,41.74,16.73,53.6-16.47.92-18.57-8.3-11.07-23.44-11.07-23.44Z" transform="translate(-77.93 -1.11)" fill="#68e1fd"/><path d="M182.82,83.79S163.07,126.17,165.05,138s16.46.92,18.56-8.3,11.07-23.44,11.07-23.44Z" transform="translate(-77.93 -1.11)" fill="url(#linear-gradient-10)"/><path d="M264.2,80.47s18.7,41.74,16.73,53.6-16.47.92-18.57-8.3-11.07-23.44-11.07-23.44Z" transform="translate(-77.93 -1.11)" fill="url(#linear-gradient-11)"/><path d="M166.86,137.57a5,5,0,0,0-.42,3.7c.54,1.36,2,2.1,3.39,2.55,4.64,1.51,9.63,1.28,14.5,1a19.2,19.2,0,0,0,6.54-1.11A9.52,9.52,0,0,0,196,132.11c-2.47-6.57-9-5.22-14.45-4.77A17.7,17.7,0,0,0,166.86,137.57Z" transform="translate(-77.93 -1.11)" fill="#68e1fd"/><path d="M166.86,137.57a5,5,0,0,0-.42,3.7c.54,1.36,2,2.1,3.39,2.55,4.64,1.51,9.63,1.28,14.5,1a19.2,19.2,0,0,0,6.54-1.11A9.52,9.52,0,0,0,196,132.11c-2.47-6.57-9-5.22-14.45-4.77A17.7,17.7,0,0,0,166.86,137.57Z" transform="translate(-77.93 -1.11)" fill="url(#linear-gradient-12)"/><path d="M191.83,121c-.51,1.11-.62,2.37-1.07,3.51-.8,2.07-2.66,3.69-3,5.88a9,9,0,0,0,.55,4.1c.55,1.78,1.32,3.76,3,4.48a6,6,0,0,0,2.54.3c1.46-.06,2.92-.23,4.38-.39a2.27,2.27,0,0,0,1-.28,2.48,2.48,0,0,0,.78-1.18,6.72,6.72,0,0,1,2.13-2.9,20.17,20.17,0,0,1,3-1.39,3.27,3.27,0,0,0,2-2.44c.1-1.54-1.51-2.7-1.74-4.23-.09-.55,0-1.11-.09-1.65-.29-1.39-1.83-2.22-2.23-3.57-.13-.44-.13-.91-.29-1.33a3.89,3.89,0,0,0-1.93-1.75l-.86-.48c-1.69-.93-3.06-1.23-4.71-.18A8.85,8.85,0,0,0,191.83,121Z" transform="translate(-77.93 -1.11)" fill="#f6c8c9"/><path d="M278.22,134.28a5,5,0,0,1,.41,3.7c-.53,1.36-2,2.09-3.39,2.55-4.63,1.51-9.63,1.28-14.5,1a19.49,19.49,0,0,1-6.54-1.11,9.52,9.52,0,0,1-5.12-11.63c2.48-6.57,9-5.22,14.45-4.77A17.7,17.7,0,0,1,278.22,134.28Z" transform="translate(-77.93 -1.11)" fill="#68e1fd"/><path d="M278.22,134.28a5,5,0,0,1,.41,3.7c-.53,1.36-2,2.09-3.39,2.55-4.63,1.51-9.63,1.28-14.5,1a19.49,19.49,0,0,1-6.54-1.11,9.52,9.52,0,0,1-5.12-11.63c2.48-6.57,9-5.22,14.45-4.77A17.7,17.7,0,0,1,278.22,134.28Z" transform="translate(-77.93 -1.11)" fill="url(#linear-gradient-13)"/><path d="M253.24,117.69c.52,1.12.63,2.37,1.07,3.52.81,2.07,2.67,3.69,3.05,5.88a8.9,8.9,0,0,1-.55,4.1c-.54,1.78-1.32,3.75-3,4.47a6,6,0,0,1-2.53.31c-1.47-.06-2.93-.23-4.38-.4a2.34,2.34,0,0,1-1-.27,2.39,2.39,0,0,1-.77-1.18,6.72,6.72,0,0,0-2.14-2.91,21.22,21.22,0,0,0-3-1.39,3.23,3.23,0,0,1-2-2.43c-.11-1.55,1.5-2.71,1.74-4.23.08-.55,0-1.12.09-1.66.28-1.38,1.82-2.21,2.22-3.57.13-.43.14-.9.3-1.32a3.83,3.83,0,0,1,1.93-1.76l.86-.47c1.68-.93,3-1.23,4.7-.18A8.82,8.82,0,0,1,253.24,117.69Z" transform="translate(-77.93 -1.11)" fill="#f6c8c9"/><path d="M231,198.78c0,.07-2.53,6.77-8.11,7.5v-19a6.44,6.44,0,1,0-2.8.06v19.27c-5.05-.51-8.36-7.5-8.39-7.57l-1.27.59-1.28.59c.18.39,4.34,9.22,11.49,9.22.33,0,.66,0,1-.05l1.24-.15v-.09c7.5-.68,10.61-9,10.75-9.38ZM217.71,181a3.64,3.64,0,1,1,3.64,3.63A3.64,3.64,0,0,1,217.71,181Z" transform="translate(-77.93 -1.11)" fill="#68e1fd"/><path d="M312.61,326.23a94.09,94.09,0,0,1-11.4,7.71c-16.56,9.49-35.74,13.48-54.77,15-37.13,3-75.92-3.28-107.73-22.32l88.36-25.47Z" transform="translate(-77.93 -1.11)" fill="#68e1fd"/><path d="M312.61,326.23a94.09,94.09,0,0,1-11.4,7.71c-16.56,9.49-35.74,13.48-54.77,15-37.13,3-75.92-3.28-107.73-22.32l88.36-25.47Z" transform="translate(-77.93 -1.11)" fill="url(#linear-gradient-14)"/></svg>