<svg id="Layer_1" data-name="Layer 1" xmlns="http://www.w3.org/2000/svg" xmlns:xlink="http://www.w3.org/1999/xlink" viewBox="0 0 681.51 520.94"><defs><linearGradient id="linear-gradient" x1="488" y1="269.1" x2="451.71" y2="362.84" gradientUnits="userSpaceOnUse"><stop offset="0" stop-color="#010101" stop-opacity="0"/><stop offset="0.95" stop-color="#010101"/></linearGradient><linearGradient id="linear-gradient-2" x1="475.54" y1="295.98" x2="566.26" y2="121.93" gradientUnits="userSpaceOnUse"><stop offset="0" stop-color="#fff" stop-opacity="0"/><stop offset="0.95" stop-color="#fff"/></linearGradient><linearGradient id="linear-gradient-3" x1="485.73" y1="265.76" x2="502.36" y2="169.38" xlink:href="#linear-gradient-2"/><linearGradient id="linear-gradient-4" x1="492.98" y1="225.57" x2="505.45" y2="200.34" xlink:href="#linear-gradient"/><linearGradient id="linear-gradient-5" x1="482.56" y1="175.24" x2="522.88" y2="175.24" xlink:href="#linear-gradient-2"/><linearGradient id="linear-gradient-6" x1="464.79" y1="205.77" x2="485.73" y2="205.77" xlink:href="#linear-gradient"/><linearGradient id="linear-gradient-7" x1="447.78" y1="205.13" x2="468.73" y2="205.13" gradientTransform="matrix(-0.97, -0.24, -0.24, 0.97, 1017.13, 122.17)" xlink:href="#linear-gradient"/><linearGradient id="linear-gradient-8" x1="521.62" y1="265.18" x2="281.23" y2="322.26" xlink:href="#linear-gradient-2"/><linearGradient id="linear-gradient-9" x1="498.55" y1="123.11" x2="510.21" y2="123.11" xlink:href="#linear-gradient"/></defs><title>SEO</title><path d="M675.72,294.05c-10.91,36.64-31,69.75-50.42,102.65-8.94,15.06-18,30.77-19.93,48.17-1.41,12.92,1.17,26,.24,38.94C603,520.78,571.38,550.9,536,562s-73.7,6.64-110-1-72.2-18.36-109.25-19.61c-26.66-.89-53.16,3.1-79.5,7.21-31.94,5-64.56,10-96.37,4.39S77.64,529,65.28,499.11c-15.39-37.17,2-80.42-7.5-119.53C55,368,50,357.35,44.09,347c-4.43-7.81-9.38-15.42-14.29-23-8.58-13.33-17-26.82-22.19-41.64C-6,243.5,5.63,197.07,36,169.2c55-50.54,139.66-33.46,203-66.49C308.88,66.23,367,26.36,449.8,61.11,472.71,70.74,493.45,85,516.45,94.5c19.29,8,39.91,12.36,59.76,18.88L578,114a224.84,224.84,0,0,1,28.52,11.76c26,13,49,31.49,62.66,56.78C687.4,216.12,686.6,257.4,675.72,294.05Z" transform="translate(-1.97 -47.74)" fill="#f16601" opacity="0.24" style="isolation:isolate"/><path d="M592.36,119.64l-1.14,82.21L571.1,212.9,566,151.67l-204.23,136L255.28,199,44.09,347c-4.43-7.81-9.38-15.42-14.29-23L256.69,164.89,363.61,254,549.27,133.25c.2.06-53.29-18.71-53.29-18.71,1.58-1.13,11.3-12,13-13.23,0,0,68.66,12.56,69,12.68C587.73,117.25,583.14,115.05,592.36,119.64Z" transform="translate(-1.97 -47.74)" fill="#f16601" opacity="0.24" style="isolation:isolate"/><rect x="539.97" y="146.03" width="100.68" height="35.27" rx="9.9" fill="#f16601" opacity="0.24" style="isolation:isolate"/><rect x="438.61" y="421.36" width="144.33" height="50.56" rx="14.19" fill="#f16601" opacity="0.24" style="isolation:isolate"/><rect x="61.58" y="304" width="131.43" height="46.56" rx="12.99" fill="#f16601" opacity="0.24" style="isolation:isolate"/><rect x="103.23" y="415.5" width="102.57" height="39.78" rx="10.61" fill="#f16601" opacity="0.24" style="isolation:isolate"/><g opacity="0.37" style="isolation:isolate"><path d="M410.43,290.55q0-36.75,18.85-57.22t52.51-20.47q34.5,0,53.16,20.11t18.67,56.35q0,26.31-8.16,43.15a61,61,0,0,1-23.57,26.2Q506.49,368,483.48,368q-23.37,0-38.69-8.09T420,334.36Q410.43,316.86,410.43,290.55Zm42.7.21q0,22.73,7.78,32.65t21.16,9.93q13.76,0,21.3-9.73t7.54-34.9q0-21.19-7.87-31T481.69,248A25.1,25.1,0,0,0,461,257.9Q453.14,267.83,453.13,290.76Z" transform="translate(-1.97 -47.74)" fill="#f16601"/></g><g opacity="0.37" style="isolation:isolate"><path d="M132.91,317.17l40.86-2.56q1.33,10,5.41,15.17,6.63,8.45,19,8.44,9.2,0,14.17-4.32t5-10q0-5.4-4.74-9.67t-22-8.06q-28.25-6.35-40.29-16.87a33.94,33.94,0,0,1-12.13-26.83,36.44,36.44,0,0,1,6.21-20.24q6.21-9.53,18.67-15t34.18-5.45q26.64,0,40.62,9.91t16.64,31.52L214,265.6q-1.62-9.39-6.78-13.65t-14.27-4.27q-7.48,0-11.28,3.18a9.73,9.73,0,0,0-3.79,7.73,7.73,7.73,0,0,0,3.13,6q3,2.74,14.41,5.12,28.16,6.06,40.34,12.27t17.72,15.41A39,39,0,0,1,259,317.93a44.07,44.07,0,0,1-7.4,24.65,46.2,46.2,0,0,1-20.66,17.11q-13.27,5.83-33.47,5.83-35.44,0-49.1-13.65T132.91,317.17Z" transform="translate(-1.97 -47.74)" fill="#f16601"/><path d="M280.52,224.17H395.61v29.68H323.56v22.08h66.83v28.35H323.56v27.4h74.13v31.47H280.52Z" transform="translate(-1.97 -47.74)" fill="#f16601"/></g><path d="M134.05,295.06l40.86-2.56q1.32,10,5.4,15.17,6.65,8.44,19,8.44,9.19,0,14.17-4.32t5-10q0-5.4-4.74-9.67t-22-8.06q-28.26-6.35-40.29-16.87a34,34,0,0,1-12.14-26.83,36.44,36.44,0,0,1,6.21-20.24q6.21-9.52,18.68-15t34.17-5.45q26.64,0,40.63,9.91t16.63,31.52l-40.48,2.37q-1.6-9.39-6.78-13.65t-14.26-4.27q-7.5,0-11.28,3.18a9.73,9.73,0,0,0-3.8,7.72,7.73,7.73,0,0,0,3.13,6q3,2.76,14.41,5.13,28.15,6.06,40.34,12.27t17.73,15.41a39.12,39.12,0,0,1,5.54,20.57,44.14,44.14,0,0,1-7.39,24.65,46.29,46.29,0,0,1-20.67,17.11q-13.27,5.84-33.46,5.83-35.46,0-49.11-13.65T134.05,295.06Z" transform="translate(-1.97 -47.74)" fill="#fff"/><path d="M281.65,202.06H396.74v29.67H324.69v22.09h66.84v28.35H324.69v27.4h74.14V341H281.65Z" transform="translate(-1.97 -47.74)" fill="#fff"/><rect x="138.15" y="358.59" width="397.62" height="46.87" rx="14.43" fill="#fff"/><path d="M529.29,405.44a16.2,16.2,0,0,0-6-1.13H154.56a16.48,16.48,0,0,0-16.47,16.43v18a16.48,16.48,0,0,0,16.47,16.44H523.33a16.54,16.54,0,0,0,16.43-16.44v-18A16.43,16.43,0,0,0,529.29,405.44Zm6.45,33.34a12.44,12.44,0,0,1-12.41,12.41H154.56a12.45,12.45,0,0,1-12.45-12.41v-18a12.45,12.45,0,0,1,12.45-12.4H523.33a12.44,12.44,0,0,1,12.41,12.4Z" transform="translate(-1.97 -47.74)" fill="#f16601" opacity="0.24" style="isolation:isolate"/><g opacity="0.56" style="isolation:isolate"><path d="M154.38,434.27a5.38,5.38,0,0,0,2.69.81c1.48,0,2.17-.74,2.17-1.67s-.58-1.5-2.08-2.06c-2-.72-3-1.83-3-3.17,0-1.81,1.46-3.29,3.87-3.29a5.62,5.62,0,0,1,2.76.69l-.51,1.49a4.34,4.34,0,0,0-2.29-.65c-1.21,0-1.88.69-1.88,1.53s.67,1.34,2.13,1.9c1.95.73,2.94,1.71,2.94,3.38,0,2-1.53,3.36-4.19,3.36a6.43,6.43,0,0,1-3.15-.77Z" transform="translate(-1.97 -47.74)" fill="#f16601"/><path d="M165,431.12A3.59,3.59,0,0,0,168.8,435a7.29,7.29,0,0,0,3.11-.58l.35,1.46a9,9,0,0,1-3.73.7c-3.46,0-5.52-2.27-5.52-5.66s2-6,5.26-6c3.66,0,4.63,3.22,4.63,5.28a9.05,9.05,0,0,1-.06.95Zm6-1.46c0-1.3-.54-3.31-2.83-3.31-2.06,0-3,1.89-3.13,3.31Z" transform="translate(-1.97 -47.74)" fill="#f16601"/><path d="M181.63,436.35l-.16-1.41h-.07a4.19,4.19,0,0,1-3.43,1.67,3.2,3.2,0,0,1-3.43-3.22c0-2.71,2.41-4.19,6.74-4.17V429a2.31,2.31,0,0,0-2.54-2.6,5.55,5.55,0,0,0-2.92.84l-.47-1.35a7,7,0,0,1,3.69-1c3.43,0,4.26,2.34,4.26,4.58v4.2a15.62,15.62,0,0,0,.18,2.68Zm-.3-5.72c-2.22-.05-4.75.35-4.75,2.53a1.8,1.8,0,0,0,1.92,1.94,2.78,2.78,0,0,0,2.71-1.87,2.13,2.13,0,0,0,.12-.65Z" transform="translate(-1.97 -47.74)" fill="#f16601"/><path d="M186.58,428.64c0-1.32,0-2.46-.09-3.5h1.78l.07,2.2h.09a3.37,3.37,0,0,1,3.11-2.45,2.1,2.1,0,0,1,.58.07v1.92a2.91,2.91,0,0,0-.7-.07,2.86,2.86,0,0,0-2.73,2.62,5.29,5.29,0,0,0-.09.95v6h-2Z" transform="translate(-1.97 -47.74)" fill="#f16601"/><path d="M201.91,435.94a7.45,7.45,0,0,1-3.22.65c-3.38,0-5.58-2.3-5.58-5.73a5.69,5.69,0,0,1,6-5.95,6.83,6.83,0,0,1,2.83.58l-.47,1.58a4.67,4.67,0,0,0-2.36-.54c-2.57,0-4,1.9-4,4.24a3.85,3.85,0,0,0,3.89,4.2,5.84,5.84,0,0,0,2.5-.56Z" transform="translate(-1.97 -47.74)" fill="#f16601"/><path d="M204.29,419.91h2v7h0a3.88,3.88,0,0,1,1.46-1.44,4.29,4.29,0,0,1,2.09-.57c1.51,0,3.91.92,3.91,4.79v6.67h-2v-6.44c0-1.8-.67-3.33-2.59-3.33a2.93,2.93,0,0,0-2.73,2,2.37,2.37,0,0,0-.14,1v6.76h-2Z" transform="translate(-1.97 -47.74)" fill="#f16601"/></g><path d="M539.76,420.74v18a16.23,16.23,0,0,1-6.56,13.09h-48V405.44h44.1A16.43,16.43,0,0,1,539.76,420.74Z" transform="translate(-1.97 -47.74)" fill="#f16601"/><path d="M506.38,437.84a14.13,14.13,0,1,1,14.12-14.12A14.15,14.15,0,0,1,506.38,437.84Zm0-24.32a10.2,10.2,0,1,0,10.19,10.2A10.2,10.2,0,0,0,506.38,413.52Z" transform="translate(-1.97 -47.74)" fill="#fff"/><rect x="515.59" y="430.72" width="4.24" height="15.11" transform="translate(-162.19 367.88) rotate(-38.34)" fill="#fff"/><path d="M535.82,218.13q-18.26-18.9-51.91-18.93-32.87,0-51.31,19.25c-12.24,12.89-18.41,30.81-18.41,53.89q0,24.77,9.31,41.24t24.28,24.08q14.93,7.62,37.78,7.61,22.47,0,37.49-8.82a58.46,58.46,0,0,0,23-24.64q7.9-15.9,7.93-40.64Q554,237.11,535.82,218.13Zm-79.9,54.41q0-21.63,7.61-30.93a24.49,24.49,0,0,1,19-9.26,6.51,6.51,0,0,1,1.25-.08q13.15,0,20.86,9.18a31.51,31.51,0,0,1,6.12,13.45,70.66,70.66,0,0,1,1.57,15.71c0,3.54-.12,6.8-.36,9.86q-1.28,15.9-7,23-7.37,9.12-20.82,9.14-13,0-20.66-9.34c-5-6.2-7.53-16.27-7.57-30.33Z" transform="translate(-1.97 -47.74)" fill="#fff"/><path d="M512,280.47q-1.28,15.9-7,23-7.37,9.12-20.82,9.14-13,0-20.66-9.34c-5-6.2-7.53-16.27-7.57-30.33a79.16,79.16,0,0,1,2.17-7.73,27.88,27.88,0,0,0,9.18-8.5c3.51-5.19,5.32-11.55,9.71-16,1.49-1.49,3.22-2.78,4.31-4.56a9.14,9.14,0,0,0,1.25-3.78c.36-2.66-.08-5.56-.12-8.3a26.72,26.72,0,0,1,3.94-14.21c8.34.12,16.55,3.9,24.73,5.39,3.58,6-2.66,13.74-.93,20.54.61,2.42,2.22,4.47,2.9,6.89,1.13,4.11-.6,8.13-2.29,12.24a41.35,41.35,0,0,0-1.94,5.68C507.26,267.22,509.36,274,512,280.47Z" transform="translate(-1.97 -47.74)" fill="#f16601"/><path d="M512,280.47q-1.28,15.9-7,23-7.37,9.12-20.82,9.14-13,0-20.66-9.34c-5-6.2-7.53-16.27-7.57-30.33a79.16,79.16,0,0,1,2.17-7.73,27.88,27.88,0,0,0,9.18-8.5c3.51-5.19,5.32-11.55,9.71-16,1.49-1.49,3.22-2.78,4.31-4.56a9.14,9.14,0,0,0,1.25-3.78c.36-2.66-.08-5.56-.12-8.3a26.72,26.72,0,0,1,3.94-14.21c8.34.12,16.55,3.9,24.73,5.39,3.58,6-2.66,13.74-.93,20.54.61,2.42,2.22,4.47,2.9,6.89,1.13,4.11-.6,8.13-2.29,12.24a41.35,41.35,0,0,0-1.94,5.68C507.26,267.22,509.36,274,512,280.47Z" transform="translate(-1.97 -47.74)" fill="url(#linear-gradient)"/><path d="M506.89,283.07q-1,15.89-5.25,23c-3.68,6.08-8.87,9.15-15.6,9.15q-9.78,0-15.48-9.35c-3.74-6.2-5.64-16.27-5.67-30.32q.67-4,1.63-7.73a25.16,25.16,0,0,0,6.88-8.5c2.62-5.2,4-11.56,7.27-16a26.11,26.11,0,0,0,3.23-4.55,11.46,11.46,0,0,0,.93-3.79,76.65,76.65,0,0,0-.09-8.29,33.79,33.79,0,0,1,3-14.22c6.24.12,12.4,3.91,18.52,5.4,2.69,6-2,13.73-.69,20.54.45,2.41,1.66,4.47,2.17,6.88.85,4.11-.45,8.14-1.72,12.25a53.49,53.49,0,0,0-1.45,5.67C503.36,269.82,504.93,276.62,506.89,283.07Z" transform="translate(-1.97 -47.74)" fill="url(#linear-gradient-2)"/><path d="M486.64,243.89l1.3-1.45a31.82,31.82,0,0,1-7,20.75c-2.17,2.68-4.87,5.16-5.71,8.51A39.79,39.79,0,0,0,492.39,246c.7-3.71,1-7.77,3.36-10.7l.49,5.11a104.84,104.84,0,0,0,5.37-12.24c.3-.81.54-1.85-.11-2.42a2.24,2.24,0,0,0-1.27-.41c-4-.39-8.44-1.72-10.5,2.34C487.38,232.34,486.84,238.79,486.64,243.89Z" transform="translate(-1.97 -47.74)" fill="url(#linear-gradient-3)"/><path d="M484.78,212.48s-.57,8.22,1,10.63,12.19,7.09,16.3,5a27.8,27.8,0,0,0,6.95-5.24l2.07-7.6Z" transform="translate(-1.97 -47.74)" fill="#f16601"/><path d="M484.78,212.48s-.57,8.22,1,10.63,12.19,7.09,16.3,5a27.8,27.8,0,0,0,6.95-5.24l2.07-7.6Z" transform="translate(-1.97 -47.74)" fill="url(#linear-gradient-4)"/><path d="M482.56,199.2s4.53-62,28.72-68.79,3,82.4,3,82.4S482.56,237,482.56,199.2Z" transform="translate(-1.97 -47.74)" fill="#f16601"/><path d="M482.56,199.2s4.53-62,28.72-68.79,3,82.4,3,82.4S482.56,237,482.56,199.2Z" transform="translate(-1.97 -47.74)" fill="url(#linear-gradient-5)"/><path d="M479.7,188.26c-5.55,5.27-11.31,10.86-13.62,18.16-1.73,5.43-1.36,11.27-1,17,.11,1.53.43,3.37,1.86,3.92,1.62.62,3.2-.94,4.19-2.36,3.36-4.82,6.19-10.19,10.84-13.77a8.74,8.74,0,0,0,2.14-2,7.17,7.17,0,0,0,.81-3.73c.26-7.1.74-14.33.78-21.37C483.32,184.73,481.54,186.5,479.7,188.26Z" transform="translate(-1.97 -47.74)" fill="#f16601"/><path d="M479.7,188.26c-5.55,5.27-11.31,10.86-13.62,18.16-1.73,5.43-1.36,11.27-1,17,.11,1.53.43,3.37,1.86,3.92,1.62.62,3.2-.94,4.19-2.36,3.36-4.82,6.19-10.19,10.84-13.77a8.74,8.74,0,0,0,2.14-2,7.17,7.17,0,0,0,.81-3.73c.26-7.1.74-14.33.78-21.37C483.32,184.73,481.54,186.5,479.7,188.26Z" transform="translate(-1.97 -47.74)" fill="url(#linear-gradient-6)"/><path d="M523.2,194.7c4.15,6.44,8.42,13.24,8.94,20.87.39,5.69-1.36,11.28-3.08,16.71-.46,1.46-1.21,3.17-2.73,3.37-1.73.22-2.89-1.67-3.52-3.29-2.12-5.47-3.6-11.36-7.27-15.94a8.81,8.81,0,0,1-1.61-2.42,7.3,7.3,0,0,1,.09-3.82c1.43-7,2.67-14.09,4.31-21C520.52,190.42,521.83,192.56,523.2,194.7Z" transform="translate(-1.97 -47.74)" fill="#f16601"/><path d="M523.17,194.88c4.14,6.43,8.41,13.23,8.93,20.87.39,5.68-1.35,11.27-3.08,16.71-.46,1.46-1.21,3.17-2.73,3.36-1.72.22-2.89-1.67-3.52-3.29-2.12-5.47-3.6-11.35-7.26-15.93a8.59,8.59,0,0,1-1.61-2.42,7.19,7.19,0,0,1,.08-3.82c1.43-7,2.68-14.1,4.31-21C520.49,190.6,521.79,192.74,523.17,194.88Z" transform="translate(-1.97 -47.74)" fill="url(#linear-gradient-7)"/><path d="M495.72,248.4a33,33,0,0,0-2.42,7.78c-.36,2.66-.06,5.37-.3,8-.47,5.42-3.08,10.39-4.53,15.64-2.06,7.48-1.71,15.38-1.34,23.12L496,274.4a44.59,44.59,0,0,0,2-8,62.5,62.5,0,0,0-.05-9.28,93.07,93.07,0,0,1,1.1-16.17C497.52,243.08,496.71,245.94,495.72,248.4Z" transform="translate(-1.97 -47.74)" fill="url(#linear-gradient-8)"/><circle cx="504.43" cy="123.13" r="7.16" fill="#f16601"/><circle cx="504.38" cy="123.11" r="5.83" fill="url(#linear-gradient-9)"/><rect x="444.05" y="428.95" width="138.72" height="48.59" rx="13.64" fill="#fff"/><rect x="458.41" y="442.27" width="112.33" height="4.18" rx="2.09" fill="#f16601" opacity="0.24" style="isolation:isolate"/><rect x="458.41" y="453.83" width="79.06" height="3.95" rx="1.7" fill="#f16601" opacity="0.24" style="isolation:isolate"/><rect x="49.14" y="293.47" width="138.72" height="48.59" rx="13.64" fill="#fff"/><rect x="63.51" y="306.79" width="112.33" height="4.18" rx="2.09" fill="#f16601" opacity="0.24" style="isolation:isolate"/><rect x="63.51" y="318.35" width="79.06" height="3.95" rx="1.7" fill="#f16601" opacity="0.24" style="isolation:isolate"/><rect x="100.83" y="420.54" width="100.68" height="35.27" rx="9.9" fill="#fff"/><rect x="111.26" y="430.21" width="81.53" height="3.03" rx="1.52" fill="#f16601" opacity="0.24" style="isolation:isolate"/><rect x="111.26" y="438.6" width="57.39" height="2.87" rx="1.24" fill="#f16601" opacity="0.24" style="isolation:isolate"/><rect x="543.28" y="135.07" width="100.68" height="35.27" rx="9.9" fill="#fff"/><rect x="553.71" y="144.74" width="81.53" height="3.03" rx="1.52" fill="#f16601" opacity="0.24" style="isolation:isolate"/><rect x="553.71" y="153.13" width="57.39" height="2.87" rx="1.24" fill="#f16601" opacity="0.24" style="isolation:isolate"/><rect x="216.01" y="365.39" width="1.51" height="29.48" fill="#f16601" opacity="0.24" style="isolation:isolate"/></svg>