<svg id="Layer_1" data-name="Layer 1" xmlns="http://www.w3.org/2000/svg" xmlns:xlink="http://www.w3.org/1999/xlink" viewBox="0 0 405.5 316.57"><defs><linearGradient id="linear-gradient" x1="94.42" y1="122.27" x2="97.41" y2="185.16" gradientUnits="userSpaceOnUse"><stop offset="0.01"/><stop offset="0.83" stop-opacity="0.07"/><stop offset="1" stop-opacity="0"/></linearGradient><linearGradient id="linear-gradient-2" x1="333.35" y1="110.9" x2="336.34" y2="173.79" xlink:href="#linear-gradient"/><linearGradient id="linear-gradient-3" x1="210.37" y1="22.47" x2="211.65" y2="89.85" xlink:href="#linear-gradient"/><linearGradient id="linear-gradient-4" x1="216.41" y1="151.29" x2="215.77" y2="244.34" xlink:href="#linear-gradient"/><linearGradient id="linear-gradient-5" x1="221.28" y1="49.89" x2="196.47" y2="410.97" xlink:href="#linear-gradient"/><linearGradient id="linear-gradient-6" x1="213.02" y1="250.75" x2="217.3" y2="146.37" xlink:href="#linear-gradient"/><linearGradient id="linear-gradient-7" x1="213.24" y1="176.37" x2="218.38" y2="297.01" xlink:href="#linear-gradient"/><linearGradient id="linear-gradient-8" x1="211.92" y1="150.28" x2="214.91" y2="224.3" xlink:href="#linear-gradient"/><linearGradient id="linear-gradient-9" x1="214.53" y1="81.42" x2="214.53" y2="202.07" xlink:href="#linear-gradient"/><linearGradient id="linear-gradient-10" x1="168.08" y1="155.88" x2="167.37" y2="137.91" xlink:href="#linear-gradient"/><linearGradient id="linear-gradient-11" x1="169.6" y1="127.89" x2="168.53" y2="141.59" xlink:href="#linear-gradient"/><linearGradient id="linear-gradient-12" x1="187.67" y1="115.32" x2="173.81" y2="117.13" xlink:href="#linear-gradient"/><linearGradient id="linear-gradient-13" x1="171" y1="120.06" x2="172.43" y2="107.36" xlink:href="#linear-gradient"/><linearGradient id="linear-gradient-14" x1="169.02" y1="121.72" x2="165.86" y2="193.39" xlink:href="#linear-gradient"/><linearGradient id="linear-gradient-15" x1="201.59" y1="41.19" x2="181.55" y2="332.77" gradientUnits="userSpaceOnUse"><stop offset="0.02" stop-color="#fff" stop-opacity="0"/><stop offset="0.39" stop-color="#fff" stop-opacity="0.39"/><stop offset="1" stop-color="#fff"/></linearGradient></defs><title>Taxi driver</title><path d="M407.47,266.18c-1.08,9.43-3,19.16-8.82,26.66-5.21,6.78-13,11-20.74,14.68-50.68,23.91-108,30-164,30.36-43.14.3-87.36-2.78-126.86-20.13-38.15-16.75-71.49-49-80.89-89.38-.34-1.42-.63-2.85-.91-4.3C2.81,211,2.9,197.48,3.83,184.16,5.62,158.54,11,131.93,27.37,112.1,41.82,94.57,63,84.4,82.26,72.29c16.63-10.46,32.17-22.7,49.58-31.79,23-12,48.71-17.88,74.55-18.49,44.72-1,82.26,19,125.1,26.29,44.87,7.61,46,40.5,50.34,79.67,2.16,19.34,11.11,37.16,17.2,55.65a193.9,193.9,0,0,1,8.44,82.56Z" transform="translate(-3.23 -21.97)" fill="#68e1fd" opacity="0.18" style="isolation:isolate"/><path d="M405.55,266.83c-1.09,9.42-3,19.15-8.82,26.66-5.21,6.77-13,11-20.74,14.67-50.68,23.91-107.95,30-164,30.36-43.14.31-87.35-2.78-126.85-20.13C47,301.64,13.65,269.41,4.25,229H406.16A193.43,193.43,0,0,1,405.55,266.83Z" transform="translate(-3.23 -21.97)" fill="#68e1fd" opacity="0.37"/><path d="M66.77,274c-3,3.26-6,6.75-6,10.58-.06,7,9.67,12.16,19.28,14.74,12.72,3.41,26.59,4.23,40.25,4.9,53,2.63,106.22,3.67,159.39,4.71,21.73.43,43.72.83,64.93-2.35,7.9-1.19,16.53-3.37,19.8-8.36,4.08-6.24-2.2-14,2.06-20.17,2.25-3.26,7.17-5.59,8.48-9.08,1.55-4.16-2.9-8.49-8.59-10.41s-12.32-2-18.69-2.09q-69.19-.67-138.4-1l-92.68-.54c-9.6-.05-30.61-3-38.81.91C71.08,259,71.34,269,66.77,274Z" transform="translate(-3.23 -21.97)" fill="#68e1fd" opacity="0.74"/><path d="M79.92,227.67H125a0,0,0,0,1,0,0v38.85a10.35,10.35,0,0,1-10.35,10.35H90.27a10.35,10.35,0,0,1-10.35-10.35V227.67A0,0,0,0,1,79.92,227.67Z" fill="#090909"/><path d="M300.45,227.67h45.09a0,0,0,0,1,0,0v38.85a10.35,10.35,0,0,1-10.35,10.35H310.8a10.35,10.35,0,0,1-10.35-10.35V227.67A0,0,0,0,1,300.45,227.67Z" fill="#090909"/><path d="M89.41,160.76H110.8v-18H89.41a9,9,0,0,0-9,9h0A9,9,0,0,0,89.41,160.76Z" transform="translate(-3.23 -21.97)" fill="#68e1fd"/><path d="M341.71,160.76H320.32v-18h21.39a9,9,0,0,1,9,9h0A9,9,0,0,1,341.71,160.76Z" transform="translate(-3.23 -21.97)" fill="#68e1fd"/><path d="M89.41,160.76H110.8v-18H89.41a9,9,0,0,0-9,9h0A9,9,0,0,0,89.41,160.76Z" transform="translate(-3.23 -21.97)" fill="url(#linear-gradient)"/><path d="M341.71,160.76H320.32v-18h21.39a9,9,0,0,1,9,9h0A9,9,0,0,1,341.71,160.76Z" transform="translate(-3.23 -21.97)" fill="url(#linear-gradient-2)"/><polygon points="243.11 71.3 179.49 71.3 182.34 49.6 240.26 49.6 243.11 71.3" fill="#68e1fd"/><polygon points="243.11 71.3 179.49 71.3 182.34 49.6 240.26 49.6 243.11 71.3" fill="url(#linear-gradient-3)"/><path d="M90.19,179a104.92,104.92,0,0,0-7,37.74l58.7,29.37,142.15.28,64.77-29.65h0a105.13,105.13,0,0,0-7-37.74Z" transform="translate(-3.23 -21.97)" fill="#68e1fd"/><path d="M90.19,179a104.92,104.92,0,0,0-7,37.74l58.7,29.37,142.15.28,64.77-29.65h0a105.13,105.13,0,0,0-7-37.74Z" transform="translate(-3.23 -21.97)" fill="url(#linear-gradient-4)"/><path d="M270.45,93.27H161.82a47.91,47.91,0,0,0-45.25,32.16l-7.92,22.73h215l-7.93-22.73A47.9,47.9,0,0,0,270.45,93.27Z" transform="translate(-3.23 -21.97)" fill="#68e1fd"/><path d="M313.26,148.16H115.8l8-23.29A37.21,37.21,0,0,1,159,99.81H271.53A37.2,37.2,0,0,1,307.36,127Z" transform="translate(-3.23 -21.97)" fill="url(#linear-gradient-5)"/><path d="M90.19,179h0a1006.32,1006.32,0,0,0,248.72.35l2.82-.35a104.81,104.81,0,0,0-17-29.09l-1.47-1.78H108.65l-1.48,1.78A105,105,0,0,0,90.19,179Z" transform="translate(-3.23 -21.97)" fill="#68e1fd"/><path d="M90.19,179h0a1006.32,1006.32,0,0,0,248.72.35l2.82-.35a104.81,104.81,0,0,0-17-29.09l-1.47-1.78H108.65l-1.48,1.78A105,105,0,0,0,90.19,179Z" transform="translate(-3.23 -21.97)" fill="url(#linear-gradient-6)"/><path d="M350.56,237.09l-1.79-20.32h-2.86l-26.67,7.74a215.37,215.37,0,0,1-60.12,8.56H169.94a215.37,215.37,0,0,1-60.12-8.56l-26.67-7.74-1.79,20.32a35.33,35.33,0,0,0,35.19,38.42H315.37A35.33,35.33,0,0,0,350.56,237.09Z" transform="translate(-3.23 -21.97)" fill="#68e1fd"/><path d="M350.56,237.09l-1.79-20.32h-2.86l-26.67,7.74a215.37,215.37,0,0,1-60.12,8.56H169.94a215.37,215.37,0,0,1-60.12-8.56l-26.67-7.74-1.79,20.32a35.33,35.33,0,0,0,35.19,38.42H315.37A35.33,35.33,0,0,0,350.56,237.09Z" transform="translate(-3.23 -21.97)" fill="url(#linear-gradient-7)"/><polygon points="212.73 167.89 159.52 167.89 170.13 198.45 212.73 198.45 255.32 198.45 265.94 167.89 212.73 167.89" fill="#fff"/><polygon points="212.73 170.31 163.42 170.31 173.25 196.03 212.73 196.03 252.21 196.03 262.04 170.31 212.73 170.31" fill="#68e1fd"/><polygon points="212.73 170.31 163.42 170.31 173.25 196.03 212.73 196.03 252.21 196.03 262.04 170.31 212.73 170.31" fill="url(#linear-gradient-8)"/><rect x="163.42" y="173.25" width="98.22" height="3.22" fill="#fff"/><rect x="166.6" y="181.56" width="92.3" height="3.22" fill="#fff"/><rect x="168.85" y="189.87" width="86.55" height="3.22" fill="#fff"/><path d="M293.7,267.53H138.26c0-9.88,13.44-17.89,30-17.89h95.39c16.58,0,30,8,30,17.89Z" transform="translate(-3.23 -21.97)" fill="#090909"/><path d="M195.43,88.79V77.2h-3.36V75.75h10.08V77.2H198.8V88.79Z" transform="translate(-3.23 -21.97)" fill="#fff"/><path d="M203.84,88.79V78.64a2.61,2.61,0,0,1,1-2,3.46,3.46,0,0,1,2.36-.85h3.37a3.51,3.51,0,0,1,2.37.86,2.61,2.61,0,0,1,1,2V88.79h-3.36V83h-3.37v5.8Zm3.35-7.24h3.37V78.64a1.26,1.26,0,0,0-.5-1,1.77,1.77,0,0,0-1.18-.43,1.79,1.79,0,0,0-1.19.43,1.29,1.29,0,0,0-.5,1Z" transform="translate(-3.23 -21.97)" fill="#fff"/><path d="M217.28,88.79V85.16c0-1.7,1.11-2.66,3.35-2.89-2.24-.23-3.35-1.19-3.35-2.89V75.75h3.35V80.1a1.33,1.33,0,0,0,.5,1,1.85,1.85,0,0,0,2.37,0,1.3,1.3,0,0,0,.5-1V75.75h3.36v3.63q0,2.55-3.36,2.89,3.36.35,3.36,2.9v3.62H224V84.44a1.27,1.27,0,0,0-.5-1,1.85,1.85,0,0,0-2.37,0,1.3,1.3,0,0,0-.5,1v4.35Z" transform="translate(-3.23 -21.97)" fill="#fff"/><path d="M232.4,88.79v-13h3.36v13Z" transform="translate(-3.23 -21.97)" fill="#fff"/><path d="M274.07,185.22l39.19-37.06H115.79l41.7,37A1005.35,1005.35,0,0,0,274.07,185.22Z" transform="translate(-3.23 -21.97)" fill="#68e1fd"/><path d="M274.07,185.22l39.19-37.06H115.79l41.7,37A1005.35,1005.35,0,0,0,274.07,185.22Z" transform="translate(-3.23 -21.97)" fill="url(#linear-gradient-9)"/><path d="M104.94,149.94H87.31a2.23,2.23,0,0,1-2.23-2.23h0a2.23,2.23,0,0,1,2.23-2.23h17.63a2.23,2.23,0,0,1,2.23,2.23h0A2.23,2.23,0,0,1,104.94,149.94Z" transform="translate(-3.23 -21.97)" fill="#fff" opacity="0.2"/><path d="M344.32,149.94H326.69a2.23,2.23,0,0,1-2.23-2.23h0a2.23,2.23,0,0,1,2.23-2.23h17.63a2.23,2.23,0,0,1,2.23,2.23h0A2.23,2.23,0,0,1,344.32,149.94Z" transform="translate(-3.23 -21.97)" fill="#fff" opacity="0.2"/><path d="M155.31,190.09s-51.33-3.85-56.9-1.72-9,21-9,21l77,10.27Z" transform="translate(-3.23 -21.97)" fill="#fff"/><path d="M276.74,190.09s51.34-3.85,56.9-1.72,9,21,9,21l-77,10.27Z" transform="translate(-3.23 -21.97)" fill="#fff"/><path d="M194.85,148.16H140.66a4.57,4.57,0,0,1,.43-.58,63.31,63.31,0,0,1,4.75-4.81,26.17,26.17,0,0,1,4.89-3.93c3.81-2.22,8.11-2.47,12.51-3l.64-.07.45,0,1.09-.15a40.47,40.47,0,0,1,8.38-.29l1,.07h0a44,44,0,0,1,6.95,1.17,20.63,20.63,0,0,1,8.23,3.74c2.39,2,3.63,4.72,4.8,7.34A.6.6,0,0,1,194.85,148.16Z" transform="translate(-3.23 -21.97)" fill="#68e1fd"/><path d="M194.85,148.16H140.66a4.57,4.57,0,0,1,.43-.58,63.31,63.31,0,0,1,4.75-4.81,26.17,26.17,0,0,1,4.89-3.93c3.81-2.22,8.11-2.47,12.51-3l.64-.07.45,0,1.09-.15a40.47,40.47,0,0,1,8.38-.29l1,.07h0a44,44,0,0,1,6.95,1.17,20.63,20.63,0,0,1,8.23,3.74c2.39,2,3.63,4.72,4.8,7.34A.6.6,0,0,1,194.85,148.16Z" transform="translate(-3.23 -21.97)" fill="url(#linear-gradient-10)"/><path d="M163.45,139.83a4,4,0,0,0,2.11,1.63,15.76,15.76,0,0,0,6.36.66,4.11,4.11,0,0,0,2.08-.46,2.83,2.83,0,0,0,1-2.23,13.66,13.66,0,0,0-1-6.36,1.83,1.83,0,0,0-.58-.85,2.33,2.33,0,0,0-.92-.31c-2-.37-6.45-1-8.08.6C163.24,133.7,162.7,138.44,163.45,139.83Z" transform="translate(-3.23 -21.97)" fill="#f7ad7e"/><path d="M166.23,139.64a6.38,6.38,0,0,0,6.38,0,3,3,0,0,0,1.08-1,3.58,3.58,0,0,0,.29-2.1,2.88,2.88,0,0,0-.7-2,3.32,3.32,0,0,0-1.54-.67,15.49,15.49,0,0,0-5.26-.31,3.93,3.93,0,0,0-2.19.76,2.12,2.12,0,0,0-.39,1.83A4.84,4.84,0,0,0,166.23,139.64Z" transform="translate(-3.23 -21.97)" fill="url(#linear-gradient-11)"/><path d="M178.36,130.8a11.42,11.42,0,0,1-8.88,6.87c-3,.23-6.29-2.15-7.6-5.13s-1.5-14.43-1.5-14.43a4.1,4.1,0,0,1,.51-2.21c.41-.83,1.17-3.33,2.21-4.06a30.33,30.33,0,0,1,14.51.28c1,.76,1.5,3.17,1.72,3.62a3.22,3.22,0,0,1,.21.84C179.94,119.34,179.76,127.22,178.36,130.8Z" transform="translate(-3.23 -21.97)" fill="#f7ad7e"/><path d="M160.24,121.17a1.64,1.64,0,0,0-2,.28,1.68,1.68,0,0,0-.21,1.08,6,6,0,0,0,.1,1.11,5.18,5.18,0,0,0,1.63,2.59,2.72,2.72,0,0,0,.67.48,1.17,1.17,0,0,0,.84.07,1.26,1.26,0,0,0,.73-1,4.91,4.91,0,0,0-.27-2.73A3.69,3.69,0,0,0,160.24,121.17Z" transform="translate(-3.23 -21.97)" fill="#f7ad7e"/><path d="M180.13,121a1.65,1.65,0,0,1,2,.27,1.7,1.7,0,0,1,.22,1.08,6,6,0,0,1-.11,1.11,5.18,5.18,0,0,1-1.63,2.59,2.28,2.28,0,0,1-.67.48,1.17,1.17,0,0,1-.84.08,1.27,1.27,0,0,1-.73-1.06,4.83,4.83,0,0,1,.28-2.73A3.64,3.64,0,0,1,180.13,121Z" transform="translate(-3.23 -21.97)" fill="#f7ad7e"/><path d="M179.68,121.46a5.41,5.41,0,0,0-.12-.55,16,16,0,0,0-1.11-2.85c-.73-1.57-1.45-3.12-2.17-4.69-.12-.24-.23-.49-.34-.73l0,0s0,0,0,.07a.94.94,0,0,1-.42.23,21.78,21.78,0,0,1-3,.76,11.15,11.15,0,0,1-4-.24c-1.11-.28-2.25-1.11-3.43-1.07l-.17,0a2.56,2.56,0,0,0-2.5,1.92,25.14,25.14,0,0,1-1.86,7.41c-1.27-.75-1.41-2.24-1.42-3.53s0-2.67,0-4a4.78,4.78,0,0,1,.25-1.91,2.15,2.15,0,0,1,1.62-1.28c.61-.1,1.32.08,1.84-.21a1.62,1.62,0,0,0,.64-1.24,4.74,4.74,0,0,1,1.16-2.59c1.46-1.49,4.23-1.59,6.42-1s4.09,1.81,6.25,2.53c1.45.49,3.13.82,4.06,1.87a4,4,0,0,1,.83,1.9A10.9,10.9,0,0,1,179.68,121.46Z" transform="translate(-3.23 -21.97)" fill="#e29f0b"/><path d="M180.15,120.2a2,2,0,0,1-.59.71,16,16,0,0,0-1.11-2.85l-2.51-5.42a5.06,5.06,0,0,1,1.58-.52,2.88,2.88,0,0,1,2.12.48,2.68,2.68,0,0,1,.85,1.38,10,10,0,0,1,.31,2.6A6.37,6.37,0,0,1,180.15,120.2Z" transform="translate(-3.23 -21.97)" fill="url(#linear-gradient-12)"/><path d="M178.93,111.86a9.43,9.43,0,0,0-2.65,1.51c-.12-.24-.23-.49-.34-.73l0,0s0,0,0,.07a.94.94,0,0,1-.42.23,21.78,21.78,0,0,1-3,.76,11.15,11.15,0,0,1-4-.24c-1.11-.28-2.25-1.11-3.43-1.07l-.17,0c0-.16.13-.33.19-.51.57-1.61.95-3,3.06-3.5a6.48,6.48,0,0,1,3.72.3,16.4,16.4,0,0,0,3.39,1.24,13,13,0,0,1,2.17.24A2.15,2.15,0,0,1,178.93,111.86Z" transform="translate(-3.23 -21.97)" fill="url(#linear-gradient-13)"/><path d="M167.85,137.23c-7.81,0-14.38,4.67-16.12,10.93h3.67c1.65-4.57,6.61-7.89,12.45-7.89s10.81,3.32,12.47,7.89H184C182.24,141.9,175.66,137.23,167.85,137.23Z" transform="translate(-3.23 -21.97)" fill="url(#linear-gradient-14)"/><path d="M158.29,141.14a10.63,10.63,0,0,1,2.06,2.07.81.81,0,0,1,.27.67c-.06.27-.38.4-.65.46a3.82,3.82,0,0,1-1.84-.06,1.24,1.24,0,0,1,.31,1.5,1.23,1.23,0,0,1-1.43.56,1.17,1.17,0,0,1-.3,1.75,3.44,3.44,0,0,1-2,.35l-3.27-.08a2.28,2.28,0,0,1-1.36-.33,1.48,1.48,0,0,1-.5-.88,4.73,4.73,0,0,1,.64-3,7.67,7.67,0,0,1,1.75-2.71A5.24,5.24,0,0,1,158.29,141.14Z" transform="translate(-3.23 -21.97)" fill="#f7ad7e"/><path d="M180.08,144.54a4.81,4.81,0,0,0-2,1.39,1.38,1.38,0,0,0-.3.8.79.79,0,0,0,.38.73c.49.28,1.11-.14,1.66,0a.61.61,0,0,0,.31.77,1.71,1.71,0,0,0,.9.13l3.55-.11a.87.87,0,0,0,.55-.13.66.66,0,0,0,.12-.75c-.24-.66-1-1-1.22-1.71s0-2.06-1.2-2.23C182,143.32,180.8,144.2,180.08,144.54Z" transform="translate(-3.23 -21.97)" fill="#f7ad7e"/><polygon points="155.77 77.84 196.58 126.05 239.07 125.76 202.57 78.7 155.77 77.84" fill="url(#linear-gradient-15)"/></svg>